<svg xmlns="http://www.w3.org/2000/svg" viewBox="0 0 880 200" width="100%" height="100%" style="background: transparent;">
  <defs>
    <radialGradient id="majorGlow" cx="50%" cy="50%" r="50%">
      <stop offset="0%" stop-color="#ffffff" stop-opacity="1" />
      <stop offset="30%" stop-color="#bae6fd" stop-opacity="0.85" />
      <stop offset="70%" stop-color="#38bdf8" stop-opacity="0.35" />
      <stop offset="100%" stop-color="#0284c7" stop-opacity="0" />
    </radialGradient>
    <radialGradient id="starGlow" cx="50%" cy="50%" r="50%">
      <stop offset="0%" stop-color="#bfdbfe" stop-opacity="0.75" />
      <stop offset="100%" stop-color="#3b82f6" stop-opacity="0" />
    </radialGradient>
    <style>
      .major-line { stroke: #bae6fd; stroke-width: 0.95; stroke-opacity: 0.65; stroke-dasharray: 2.5 3; }
      .minor-line { stroke: #7dd3fc; stroke-width: 0.6; stroke-opacity: 0.25; stroke-dasharray: 2 3; }
      .flare { stroke: #ffffff; stroke-width: 0.65; stroke-opacity: 0.85; }
      .star { cursor: pointer; }
      .star:hover circle.core { fill: #ffffff !important; stroke: #38bdf8; stroke-width: 1.2px; }
    </style>
  </defs>
  <g class="dust">
    <circle cx="278.96" cy="116.98" r="0.62" fill="#94a3b8" opacity="0.103" />
    <circle cx="730.54" cy="174.48" r="0.48" fill="#94a3b8" opacity="0.061" />
    <circle cx="472.39" cy="7.2" r="0.25" fill="#94a3b8" opacity="0.181" />
    <circle cx="632.02" cy="84.89" r="0.58" fill="#94a3b8" opacity="0.142" />
    <circle cx="828.2" cy="139.47" r="0.58" fill="#94a3b8" opacity="0.185" />
    <circle cx="298.23" cy="64.59" r="0.65" fill="#94a3b8" opacity="0.051" />
    <circle cx="411.92" cy="92.92" r="0.69" fill="#94a3b8" opacity="0.14" />
    <circle cx="713.61" cy="47.26" r="0.37" fill="#94a3b8" opacity="0.151" />
    <circle cx="82.72" cy="175.61" r="0.58" fill="#94a3b8" opacity="0.211" />
    <circle cx="500.43" cy="102.88" r="0.54" fill="#94a3b8" opacity="0.085" />
    <circle cx="191.17" cy="134.95" r="0.31" fill="#94a3b8" opacity="0.117" />
    <circle cx="260.65" cy="33.88" r="0.58" fill="#94a3b8" opacity="0.199" />
    <circle cx="579.37" cy="121.65" r="0.41" fill="#94a3b8" opacity="0.217" />
    <circle cx="314.44" cy="164.82" r="0.27" fill="#94a3b8" opacity="0.165" />
    <circle cx="282.37" cy="139.37" r="0.4" fill="#94a3b8" opacity="0.078" />
    <circle cx="761.77" cy="73.46" r="0.4" fill="#94a3b8" opacity="0.107" />
    <circle cx="215.69" cy="97.18" r="0.73" fill="#94a3b8" opacity="0.069" />
    <circle cx="170.06" cy="18.48" r="0.27" fill="#94a3b8" opacity="0.201" />
    <circle cx="91.75" cy="98.19" r="0.62" fill="#94a3b8" opacity="0.147" />
    <circle cx="607.03" cy="83.93" r="0.36" fill="#94a3b8" opacity="0.179" />
    <circle cx="237.46" cy="75.81" r="0.55" fill="#94a3b8" opacity="0.122" />
    <circle cx="745.6" cy="144.23" r="0.3" fill="#94a3b8" opacity="0.135" />
    <circle cx="189.32" cy="142.99" r="0.61" fill="#94a3b8" opacity="0.101" />
    <circle cx="355.92" cy="105.17" r="0.73" fill="#94a3b8" opacity="0.152" />
    <circle cx="683.51" cy="143.21" r="0.28" fill="#94a3b8" opacity="0.133" />
    <circle cx="162.02" cy="114.27" r="0.29" fill="#94a3b8" opacity="0.212" />
    <circle cx="328.4" cy="56.36" r="0.37" fill="#94a3b8" opacity="0.191" />
    <circle cx="549.96" cy="193.84" r="0.4" fill="#94a3b8" opacity="0.089" />
    <circle cx="580.68" cy="74.4" r="0.69" fill="#94a3b8" opacity="0.159" />
    <circle cx="500.29" cy="106.44" r="0.59" fill="#94a3b8" opacity="0.212" />
    <circle cx="751.73" cy="191.02" r="0.75" fill="#94a3b8" opacity="0.082" />
    <circle cx="182.49" cy="46.97" r="0.64" fill="#94a3b8" opacity="0.096" />
    <circle cx="464.76" cy="26.85" r="0.74" fill="#94a3b8" opacity="0.053" />
    <circle cx="27.58" cy="124.12" r="0.56" fill="#94a3b8" opacity="0.189" />
    <circle cx="178.12" cy="46.53" r="0.69" fill="#94a3b8" opacity="0.085" />
    <circle cx="458.04" cy="112.33" r="0.46" fill="#94a3b8" opacity="0.076" />
    <circle cx="145.89" cy="44.32" r="0.26" fill="#94a3b8" opacity="0.11" />
    <circle cx="262.47" cy="51.25" r="0.6" fill="#94a3b8" opacity="0.19" />
    <circle cx="237.22" cy="145.98" r="0.45" fill="#94a3b8" opacity="0.179" />
    <circle cx="500.54" cy="136.86" r="0.49" fill="#94a3b8" opacity="0.071" />
    <circle cx="307.21" cy="71.02" r="0.45" fill="#94a3b8" opacity="0.046" />
    <circle cx="724.5" cy="91.49" r="0.36" fill="#94a3b8" opacity="0.175" />
    <circle cx="141.45" cy="42.98" r="0.41" fill="#94a3b8" opacity="0.063" />
    <circle cx="357.98" cy="116.59" r="0.44" fill="#94a3b8" opacity="0.199" />
    <circle cx="330.89" cy="181.62" r="0.47" fill="#94a3b8" opacity="0.175" />
    <circle cx="469.34" cy="57.03" r="0.34" fill="#94a3b8" opacity="0.136" />
    <circle cx="602.72" cy="43.95" r="0.43" fill="#94a3b8" opacity="0.116" />
    <circle cx="655.51" cy="10.68" r="0.59" fill="#94a3b8" opacity="0.098" />
    <circle cx="868.24" cy="164.88" r="0.4" fill="#94a3b8" opacity="0.066" />
    <circle cx="217.61" cy="183.79" r="0.68" fill="#94a3b8" opacity="0.101" />
    <circle cx="255.21" cy="187.85" r="0.7" fill="#94a3b8" opacity="0.181" />
    <circle cx="289.81" cy="143.83" r="0.45" fill="#94a3b8" opacity="0.16" />
    <circle cx="178.91" cy="20.64" r="0.36" fill="#94a3b8" opacity="0.093" />
    <circle cx="707.59" cy="43.42" r="0.33" fill="#94a3b8" opacity="0.179" />
    <circle cx="452.77" cy="40.69" r="0.68" fill="#94a3b8" opacity="0.054" />
    <circle cx="54.15" cy="193.69" r="0.39" fill="#94a3b8" opacity="0.194" />
    <circle cx="438.24" cy="56.04" r="0.46" fill="#94a3b8" opacity="0.091" />
    <circle cx="779.22" cy="67.83" r="0.48" fill="#94a3b8" opacity="0.131" />
    <circle cx="463.98" cy="49.69" r="0.34" fill="#94a3b8" opacity="0.12" />
    <circle cx="497.1" cy="98.79" r="0.37" fill="#94a3b8" opacity="0.135" />
    <circle cx="26.39" cy="8.6" r="0.56" fill="#94a3b8" opacity="0.206" />
    <circle cx="264.78" cy="176.48" r="0.54" fill="#94a3b8" opacity="0.158" />
    <circle cx="337.3" cy="43.77" r="0.65" fill="#94a3b8" opacity="0.083" />
    <circle cx="528.5" cy="80.08" r="0.62" fill="#94a3b8" opacity="0.213" />
    <circle cx="841.87" cy="71.33" r="0.64" fill="#94a3b8" opacity="0.133" />
    <circle cx="808.61" cy="169.73" r="0.35" fill="#94a3b8" opacity="0.213" />
    <circle cx="71.83" cy="140.09" r="0.4" fill="#94a3b8" opacity="0.138" />
    <circle cx="103.62" cy="65.26" r="0.37" fill="#94a3b8" opacity="0.184" />
    <circle cx="295.16" cy="143.23" r="0.73" fill="#94a3b8" opacity="0.2" />
    <circle cx="399.64" cy="68.84" r="0.4" fill="#94a3b8" opacity="0.196" />
    <circle cx="18.6" cy="110.35" r="0.68" fill="#94a3b8" opacity="0.197" />
    <circle cx="109.74" cy="128.62" r="0.38" fill="#94a3b8" opacity="0.174" />
    <circle cx="761.84" cy="150.18" r="0.53" fill="#94a3b8" opacity="0.079" />
    <circle cx="683.93" cy="22.69" r="0.62" fill="#94a3b8" opacity="0.194" />
    <circle cx="340.33" cy="75.12" r="0.64" fill="#94a3b8" opacity="0.155" />
    <circle cx="558.83" cy="6.19" r="0.71" fill="#94a3b8" opacity="0.042" />
    <circle cx="359.56" cy="85.37" r="0.62" fill="#94a3b8" opacity="0.13" />
    <circle cx="765.94" cy="139.24" r="0.75" fill="#94a3b8" opacity="0.199" />
    <circle cx="263.56" cy="47.01" r="0.33" fill="#94a3b8" opacity="0.117" />
    <circle cx="338.83" cy="152.66" r="0.66" fill="#94a3b8" opacity="0.207" />
    <circle cx="193.81" cy="190.69" r="0.75" fill="#94a3b8" opacity="0.193" />
    <circle cx="309.23" cy="33.05" r="0.47" fill="#94a3b8" opacity="0.047" />
    <circle cx="838.4" cy="176.54" r="0.43" fill="#94a3b8" opacity="0.122" />
    <circle cx="666.43" cy="191.59" r="0.6" fill="#94a3b8" opacity="0.172" />
    <circle cx="408.37" cy="85.68" r="0.69" fill="#94a3b8" opacity="0.21" />
    <circle cx="646.13" cy="28.5" r="0.42" fill="#94a3b8" opacity="0.107" />
    <circle cx="430.93" cy="71.96" r="0.35" fill="#94a3b8" opacity="0.067" />
    <circle cx="753.11" cy="66.17" r="0.28" fill="#94a3b8" opacity="0.148" />
    <circle cx="454.38" cy="158.89" r="0.69" fill="#94a3b8" opacity="0.057" />
    <circle cx="221.98" cy="112.84" r="0.7" fill="#94a3b8" opacity="0.111" />
    <circle cx="312.59" cy="190.25" r="0.53" fill="#94a3b8" opacity="0.112" />
    <circle cx="543.1" cy="20.57" r="0.36" fill="#94a3b8" opacity="0.205" />
    <circle cx="213.25" cy="141.51" r="0.68" fill="#94a3b8" opacity="0.099" />
    <circle cx="340.46" cy="154.23" r="0.33" fill="#94a3b8" opacity="0.167" />
    <circle cx="178.66" cy="118.46" r="0.71" fill="#94a3b8" opacity="0.09" />
    <circle cx="413.35" cy="51.56" r="0.64" fill="#94a3b8" opacity="0.196" />
    <circle cx="396.23" cy="42.38" r="0.38" fill="#94a3b8" opacity="0.057" />
    <circle cx="112.5" cy="184.11" r="0.58" fill="#94a3b8" opacity="0.072" />
    <circle cx="49.74" cy="71.42" r="0.65" fill="#94a3b8" opacity="0.082" />
    <circle cx="231.71" cy="187.67" r="0.5" fill="#94a3b8" opacity="0.188" />
    <circle cx="559.55" cy="167.24" r="0.65" fill="#94a3b8" opacity="0.198" />
    <circle cx="542.78" cy="59.92" r="0.48" fill="#94a3b8" opacity="0.126" />
    <circle cx="624.08" cy="7.28" r="0.55" fill="#94a3b8" opacity="0.105" />
    <circle cx="336.09" cy="52.07" r="0.41" fill="#94a3b8" opacity="0.175" />
    <circle cx="503.85" cy="80.34" r="0.73" fill="#94a3b8" opacity="0.088" />
    <circle cx="118.17" cy="118.83" r="0.37" fill="#94a3b8" opacity="0.161" />
    <circle cx="245.84" cy="120.49" r="0.53" fill="#94a3b8" opacity="0.048" />
    <circle cx="665.97" cy="188.02" r="0.42" fill="#94a3b8" opacity="0.204" />
    <circle cx="345.28" cy="183.98" r="0.41" fill="#94a3b8" opacity="0.158" />
    <circle cx="519.46" cy="54.07" r="0.51" fill="#94a3b8" opacity="0.185" />
    <circle cx="518.19" cy="36.51" r="0.48" fill="#94a3b8" opacity="0.151" />
    <circle cx="823.66" cy="190.87" r="0.52" fill="#94a3b8" opacity="0.205" />
    <circle cx="520.44" cy="123.7" r="0.39" fill="#94a3b8" opacity="0.07" />
    <circle cx="714.75" cy="30.71" r="0.49" fill="#94a3b8" opacity="0.11" />
    <circle cx="531.57" cy="101.73" r="0.63" fill="#94a3b8" opacity="0.082" />
    <circle cx="779.0" cy="20.27" r="0.74" fill="#94a3b8" opacity="0.162" />
    <circle cx="396.89" cy="17.35" r="0.33" fill="#94a3b8" opacity="0.193" />
    <circle cx="256.97" cy="73.63" r="0.44" fill="#94a3b8" opacity="0.159" />
    <circle cx="804.85" cy="79.52" r="0.55" fill="#94a3b8" opacity="0.093" />
    <circle cx="290.14" cy="38.74" r="0.55" fill="#94a3b8" opacity="0.067" />
    <circle cx="183.61" cy="76.2" r="0.56" fill="#94a3b8" opacity="0.159" />
    <circle cx="307.39" cy="80.32" r="0.42" fill="#94a3b8" opacity="0.059" />
    <circle cx="271.66" cy="30.68" r="0.4" fill="#94a3b8" opacity="0.04" />
    <circle cx="776.43" cy="153.23" r="0.75" fill="#94a3b8" opacity="0.148" />
    <circle cx="66.3" cy="95.44" r="0.43" fill="#94a3b8" opacity="0.133" />
    <circle cx="507.82" cy="35.17" r="0.57" fill="#94a3b8" opacity="0.137" />
    <circle cx="659.62" cy="93.21" r="0.59" fill="#94a3b8" opacity="0.15" />
    <circle cx="726.11" cy="61.21" r="0.27" fill="#94a3b8" opacity="0.053" />
    <circle cx="444.87" cy="75.69" r="0.52" fill="#94a3b8" opacity="0.044" />
    <circle cx="639.7" cy="167.65" r="0.67" fill="#94a3b8" opacity="0.055" />
    <circle cx="416.52" cy="135.28" r="0.53" fill="#94a3b8" opacity="0.052" />
    <circle cx="346.37" cy="51.91" r="0.37" fill="#94a3b8" opacity="0.154" />
    <circle cx="532.61" cy="48.26" r="0.4" fill="#94a3b8" opacity="0.093" />
    <circle cx="407.96" cy="121.01" r="0.38" fill="#94a3b8" opacity="0.053" />
    <circle cx="334.32" cy="114.66" r="0.35" fill="#94a3b8" opacity="0.042" />
    <circle cx="496.39" cy="72.61" r="0.6" fill="#94a3b8" opacity="0.058" />
    <circle cx="438.11" cy="28.19" r="0.62" fill="#94a3b8" opacity="0.2" />
    <circle cx="257.09" cy="115.6" r="0.62" fill="#94a3b8" opacity="0.078" />
    <circle cx="397.83" cy="183.91" r="0.72" fill="#94a3b8" opacity="0.191" />
    <circle cx="518.64" cy="7.21" r="0.38" fill="#94a3b8" opacity="0.127" />
    <circle cx="86.45" cy="64.28" r="0.5" fill="#94a3b8" opacity="0.09" />
    <circle cx="816.76" cy="58.94" r="0.25" fill="#94a3b8" opacity="0.173" />
    <circle cx="519.62" cy="57.79" r="0.54" fill="#94a3b8" opacity="0.155" />
    <circle cx="519.62" cy="77.72" r="0.3" fill="#94a3b8" opacity="0.128" />
    <circle cx="429.88" cy="69.65" r="0.52" fill="#94a3b8" opacity="0.071" />
    <circle cx="841.42" cy="174.76" r="0.26" fill="#94a3b8" opacity="0.203" />
    <circle cx="509.14" cy="89.9" r="0.45" fill="#94a3b8" opacity="0.185" />
    <circle cx="78.19" cy="24.28" r="0.63" fill="#94a3b8" opacity="0.055" />
    <circle cx="564.31" cy="6.8" r="0.5" fill="#94a3b8" opacity="0.102" />
    <circle cx="704.6" cy="156.32" r="0.6" fill="#94a3b8" opacity="0.166" />
    <circle cx="567.43" cy="158.08" r="0.65" fill="#94a3b8" opacity="0.136" />
    <circle cx="52.65" cy="135.05" r="0.54" fill="#94a3b8" opacity="0.054" />
    <circle cx="202.35" cy="113.23" r="0.5" fill="#94a3b8" opacity="0.063" />
    <circle cx="211.83" cy="125.81" r="0.28" fill="#94a3b8" opacity="0.077" />
    <circle cx="265.86" cy="71.3" r="0.31" fill="#94a3b8" opacity="0.092" />
    <circle cx="145.83" cy="125.1" r="0.72" fill="#94a3b8" opacity="0.186" />
    <circle cx="600.35" cy="183.83" r="0.63" fill="#94a3b8" opacity="0.052" />
    <circle cx="794.0" cy="108.17" r="0.61" fill="#94a3b8" opacity="0.155" />
    <circle cx="116.34" cy="67.52" r="0.47" fill="#94a3b8" opacity="0.182" />
    <circle cx="745.25" cy="134.56" r="0.67" fill="#94a3b8" opacity="0.125" />
    <circle cx="326.47" cy="33.43" r="0.57" fill="#94a3b8" opacity="0.16" />
    <circle cx="153.06" cy="177.46" r="0.42" fill="#94a3b8" opacity="0.177" />
    <circle cx="637.96" cy="67.07" r="0.45" fill="#94a3b8" opacity="0.078" />
    <circle cx="725.72" cy="185.64" r="0.74" fill="#94a3b8" opacity="0.049" />
    <circle cx="800.65" cy="69.72" r="0.63" fill="#94a3b8" opacity="0.126" />
    <circle cx="235.32" cy="39.37" r="0.61" fill="#94a3b8" opacity="0.142" />
    <circle cx="579.98" cy="126.89" r="0.62" fill="#94a3b8" opacity="0.043" />
    <circle cx="819.85" cy="71.62" r="0.6" fill="#94a3b8" opacity="0.14" />
    <circle cx="781.84" cy="65.06" r="0.59" fill="#94a3b8" opacity="0.147" />
    <circle cx="624.09" cy="137.77" r="0.34" fill="#94a3b8" opacity="0.093" />
    <circle cx="45.78" cy="94.59" r="0.54" fill="#94a3b8" opacity="0.182" />
    <circle cx="18.55" cy="42.47" r="0.69" fill="#94a3b8" opacity="0.146" />
    <circle cx="543.56" cy="52.16" r="0.7" fill="#94a3b8" opacity="0.194" />
    <circle cx="641.17" cy="95.63" r="0.64" fill="#94a3b8" opacity="0.137" />
    <circle cx="495.94" cy="167.66" r="0.51" fill="#94a3b8" opacity="0.13" />
    <circle cx="624.6" cy="108.65" r="0.42" fill="#94a3b8" opacity="0.084" />
    <circle cx="460.56" cy="120.21" r="0.37" fill="#94a3b8" opacity="0.12" />
    <circle cx="462.44" cy="17.62" r="0.39" fill="#94a3b8" opacity="0.107" />
    <circle cx="747.53" cy="174.87" r="0.54" fill="#94a3b8" opacity="0.074" />
    <circle cx="214.53" cy="147.91" r="0.49" fill="#94a3b8" opacity="0.209" />
    <circle cx="697.65" cy="85.18" r="0.51" fill="#94a3b8" opacity="0.153" />
    <circle cx="358.86" cy="96.83" r="0.51" fill="#94a3b8" opacity="0.154" />
    <circle cx="662.11" cy="53.81" r="0.57" fill="#94a3b8" opacity="0.053" />
    <circle cx="584.8" cy="151.09" r="0.5" fill="#94a3b8" opacity="0.2" />
    <circle cx="216.87" cy="77.67" r="0.61" fill="#94a3b8" opacity="0.126" />
    <circle cx="613.41" cy="187.92" r="0.44" fill="#94a3b8" opacity="0.098" />
    <circle cx="633.66" cy="152.77" r="0.38" fill="#94a3b8" opacity="0.19" />
    <circle cx="659.69" cy="8.48" r="0.6" fill="#94a3b8" opacity="0.127" />
    <circle cx="195.99" cy="183.92" r="0.62" fill="#94a3b8" opacity="0.139" />
    <circle cx="623.16" cy="73.62" r="0.57" fill="#94a3b8" opacity="0.106" />
    <circle cx="383.74" cy="55.56" r="0.47" fill="#94a3b8" opacity="0.112" />
    <circle cx="23.34" cy="167.58" r="0.37" fill="#94a3b8" opacity="0.06" />
    <circle cx="35.22" cy="127.58" r="0.28" fill="#94a3b8" opacity="0.167" />
    <circle cx="144.36" cy="113.71" r="0.69" fill="#94a3b8" opacity="0.1" />
    <circle cx="9.1" cy="190.82" r="0.46" fill="#94a3b8" opacity="0.141" />
    <circle cx="318.32" cy="146.49" r="0.29" fill="#94a3b8" opacity="0.069" />
    <circle cx="744.33" cy="138.29" r="0.49" fill="#94a3b8" opacity="0.107" />
    <circle cx="572.41" cy="150.52" r="0.5" fill="#94a3b8" opacity="0.199" />
    <circle cx="612.51" cy="22.94" r="0.38" fill="#94a3b8" opacity="0.167" />
    <circle cx="33.74" cy="147.16" r="0.43" fill="#94a3b8" opacity="0.109" />
    <circle cx="454.54" cy="44.45" r="0.62" fill="#94a3b8" opacity="0.159" />
    <circle cx="127.14" cy="83.84" r="0.68" fill="#94a3b8" opacity="0.206" />
    <circle cx="22.95" cy="92.87" r="0.75" fill="#94a3b8" opacity="0.113" />
    <circle cx="195.73" cy="86.43" r="0.73" fill="#94a3b8" opacity="0.067" />
    <circle cx="552.6" cy="164.07" r="0.71" fill="#94a3b8" opacity="0.145" />
    <circle cx="285.59" cy="73.93" r="0.52" fill="#94a3b8" opacity="0.079" />
    <circle cx="394.19" cy="180.86" r="0.73" fill="#94a3b8" opacity="0.202" />
    <circle cx="817.03" cy="183.18" r="0.69" fill="#94a3b8" opacity="0.189" />
    <circle cx="378.64" cy="72.63" r="0.64" fill="#94a3b8" opacity="0.204" />
    <circle cx="675.42" cy="100.24" r="0.4" fill="#94a3b8" opacity="0.139" />
    <circle cx="667.11" cy="154.29" r="0.73" fill="#94a3b8" opacity="0.042" />
    <circle cx="216.67" cy="71.53" r="0.29" fill="#94a3b8" opacity="0.203" />
    <circle cx="499.85" cy="171.53" r="0.34" fill="#94a3b8" opacity="0.16" />
    <circle cx="364.5" cy="14.22" r="0.58" fill="#94a3b8" opacity="0.087" />
    <circle cx="178.49" cy="16.77" r="0.46" fill="#94a3b8" opacity="0.102" />
    <circle cx="874.92" cy="160.03" r="0.36" fill="#94a3b8" opacity="0.191" />
    <circle cx="192.52" cy="72.49" r="0.33" fill="#94a3b8" opacity="0.099" />
    <circle cx="306.72" cy="162.35" r="0.39" fill="#94a3b8" opacity="0.212" />
    <circle cx="470.72" cy="169.68" r="0.48" fill="#94a3b8" opacity="0.162" />
    <circle cx="437.6" cy="149.47" r="0.54" fill="#94a3b8" opacity="0.125" />
    <circle cx="425.4" cy="35.43" r="0.5" fill="#94a3b8" opacity="0.186" />
    <circle cx="663.35" cy="137.69" r="0.46" fill="#94a3b8" opacity="0.121" />
    <circle cx="620.97" cy="186.07" r="0.41" fill="#94a3b8" opacity="0.16" />
    <circle cx="244.4" cy="163.8" r="0.36" fill="#94a3b8" opacity="0.074" />
    <circle cx="555.2" cy="147.27" r="0.75" fill="#94a3b8" opacity="0.137" />
    <circle cx="489.97" cy="47.94" r="0.72" fill="#94a3b8" opacity="0.05" />
    <circle cx="583.55" cy="104.49" r="0.38" fill="#94a3b8" opacity="0.075" />
    <circle cx="646.65" cy="7.33" r="0.43" fill="#94a3b8" opacity="0.044" />
    <circle cx="587.19" cy="186.06" r="0.66" fill="#94a3b8" opacity="0.072" />
    <circle cx="276.24" cy="112.86" r="0.55" fill="#94a3b8" opacity="0.07" />
    <circle cx="571.42" cy="146.19" r="0.42" fill="#94a3b8" opacity="0.072" />
    <circle cx="446.19" cy="186.06" r="0.45" fill="#94a3b8" opacity="0.041" />
    <circle cx="140.61" cy="67.92" r="0.57" fill="#94a3b8" opacity="0.121" />
    <circle cx="233.08" cy="156.52" r="0.7" fill="#94a3b8" opacity="0.116" />
    <circle cx="663.75" cy="75.35" r="0.58" fill="#94a3b8" opacity="0.111" />
    <circle cx="415.59" cy="106.82" r="0.32" fill="#94a3b8" opacity="0.145" />
    <circle cx="195.47" cy="155.18" r="0.45" fill="#94a3b8" opacity="0.186" />
    <circle cx="801.93" cy="123.49" r="0.61" fill="#94a3b8" opacity="0.122" />
    <circle cx="250.73" cy="123.14" r="0.5" fill="#94a3b8" opacity="0.083" />
    <circle cx="135.75" cy="81.37" r="0.67" fill="#94a3b8" opacity="0.069" />
    <circle cx="544.87" cy="128.01" r="0.64" fill="#94a3b8" opacity="0.156" />
    <circle cx="106.52" cy="42.44" r="0.33" fill="#94a3b8" opacity="0.147" />
    <circle cx="416.78" cy="185.94" r="0.38" fill="#94a3b8" opacity="0.137" />
    <circle cx="443.33" cy="165.98" r="0.74" fill="#94a3b8" opacity="0.199" />
    <circle cx="112.08" cy="98.74" r="0.61" fill="#94a3b8" opacity="0.206" />
    <circle cx="63.03" cy="163.46" r="0.43" fill="#94a3b8" opacity="0.093" />
    <circle cx="697.48" cy="50.63" r="0.69" fill="#94a3b8" opacity="0.074" />
    <circle cx="186.74" cy="165.1" r="0.38" fill="#94a3b8" opacity="0.191" />
    <circle cx="331.35" cy="33.68" r="0.35" fill="#94a3b8" opacity="0.124" />
    <circle cx="137.28" cy="159.06" r="0.74" fill="#94a3b8" opacity="0.21" />
    <circle cx="784.46" cy="60.24" r="0.33" fill="#94a3b8" opacity="0.074" />
    <circle cx="334.88" cy="116.81" r="0.29" fill="#94a3b8" opacity="0.088" />
    <circle cx="212.22" cy="171.45" r="0.68" fill="#94a3b8" opacity="0.078" />
    <circle cx="653.05" cy="152.81" r="0.58" fill="#94a3b8" opacity="0.189" />
    <circle cx="736.08" cy="172.44" r="0.37" fill="#94a3b8" opacity="0.161" />
    <circle cx="328.59" cy="156.42" r="0.56" fill="#94a3b8" opacity="0.204" />
    <circle cx="256.94" cy="60.19" r="0.36" fill="#94a3b8" opacity="0.116" />
    <circle cx="116.43" cy="138.85" r="0.35" fill="#94a3b8" opacity="0.149" />
    <circle cx="470.45" cy="182.83" r="0.73" fill="#94a3b8" opacity="0.164" />
    <circle cx="362.69" cy="131.0" r="0.48" fill="#94a3b8" opacity="0.212" />
    <circle cx="393.96" cy="10.43" r="0.67" fill="#94a3b8" opacity="0.163" />
    <circle cx="305.9" cy="158.77" r="0.37" fill="#94a3b8" opacity="0.099" />
    <circle cx="620.19" cy="29.71" r="0.37" fill="#94a3b8" opacity="0.106" />
    <circle cx="625.14" cy="130.79" r="0.31" fill="#94a3b8" opacity="0.168" />
    <circle cx="222.59" cy="6.79" r="0.29" fill="#94a3b8" opacity="0.194" />
    <circle cx="792.22" cy="124.91" r="0.4" fill="#94a3b8" opacity="0.077" />
    <circle cx="45.16" cy="28.52" r="0.57" fill="#94a3b8" opacity="0.143" />
    <circle cx="495.27" cy="176.04" r="0.59" fill="#94a3b8" opacity="0.153" />
    <circle cx="71.52" cy="178.2" r="0.33" fill="#94a3b8" opacity="0.19" />
    <circle cx="742.18" cy="169.08" r="0.71" fill="#94a3b8" opacity="0.17" />
    <circle cx="72.88" cy="69.79" r="0.46" fill="#94a3b8" opacity="0.129" />
    <circle cx="656.57" cy="48.2" r="0.54" fill="#94a3b8" opacity="0.112" />
    <circle cx="193.36" cy="57.98" r="0.51" fill="#94a3b8" opacity="0.134" />
    <circle cx="374.72" cy="163.73" r="0.28" fill="#94a3b8" opacity="0.18" />
    <circle cx="681.26" cy="133.34" r="0.5" fill="#94a3b8" opacity="0.101" />
    <circle cx="675.09" cy="34.75" r="0.68" fill="#94a3b8" opacity="0.086" />
    <circle cx="394.65" cy="131.59" r="0.28" fill="#94a3b8" opacity="0.104" />
    <circle cx="420.78" cy="13.11" r="0.55" fill="#94a3b8" opacity="0.166" />
    <circle cx="167.02" cy="69.74" r="0.7" fill="#94a3b8" opacity="0.07" />
    <circle cx="848.43" cy="93.17" r="0.33" fill="#94a3b8" opacity="0.187" />
  </g>
  <g class="lines">
    <line class="minor-line" x1="88.7" y1="70.47" x2="116.29" y2="75.76" />
    <line class="minor-line" x1="35.0" y1="84.25" x2="63.51" y2="94.46" />
    <line class="minor-line" x1="63.51" y1="94.46" x2="89.14" y2="108.41" />
    <line class="minor-line" x1="89.14" y1="108.41" x2="109.99" y2="121.1" />
    <line class="minor-line" x1="109.99" y1="121.1" x2="108.76" y2="148.59" />
    <line class="minor-line" x1="108.76" y1="148.59" x2="149.2" y2="148.6" />
    <line class="minor-line" x1="149.2" y1="148.6" x2="150.33" y2="118.88" />
    <line class="minor-line" x1="150.33" y1="118.88" x2="109.99" y2="121.1" />
    <line class="minor-line" x1="150.33" y1="118.88" x2="169.85" y2="103.32" />
    <line class="minor-line" x1="169.85" y1="103.32" x2="185.49" y2="88.17" />
    <line class="minor-line" x1="185.49" y1="88.17" x2="200.54" y2="73.76" />
    <line class="minor-line" x1="159.78" y1="59.33" x2="185.05" y2="68.84" />
    <line class="minor-line" x1="272.7" y1="76.31" x2="295.07" y2="62.15" />
    <line class="minor-line" x1="324.93" y1="63.81" x2="351.59" y2="52.21" />
    <line class="minor-line" x1="643.9" y1="128.61" x2="663.58" y2="118.84" />
    <line class="minor-line" x1="662.43" y1="37.24" x2="682.57" y2="51.05" />
    <line class="minor-line" x1="747.44" y1="131.72" x2="768.53" y2="144.86" />
    <line class="minor-line" x1="768.53" y1="144.86" x2="773.75" y2="116.66" />
    <line class="minor-line" x1="773.75" y1="116.66" x2="747.44" y2="131.72" />
    <line class="major-line" x1="484.4" y1="134.72" x2="506.18" y2="116.54" />
    <line class="major-line" x1="506.18" y1="116.54" x2="529.41" y2="92.56" />
    <line class="major-line" x1="529.41" y1="92.56" x2="547.7" y2="76.59" />
    <line class="major-line" x1="547.7" y1="76.59" x2="533.76" y2="43.52" />
    <line class="major-line" x1="533.76" y1="43.52" x2="577.14" y2="30.0" />
    <line class="major-line" x1="577.14" y1="30.0" x2="593.77" y2="60.4" />
    <line class="major-line" x1="593.77" y1="60.4" x2="547.7" y2="76.59" />
    <line class="major-line" x1="593.77" y1="60.4" x2="614.7" y2="69.17" />
    <line class="major-line" x1="614.7" y1="69.17" x2="636.92" y2="78.14" />
    <line class="major-line" x1="636.92" y1="78.14" x2="662.56" y2="85.58" />
    <line class="major-line" x1="662.56" y1="85.58" x2="681.07" y2="98.59" />
    <line class="major-line" x1="681.07" y1="98.59" x2="708.29" y2="106.64" />
    <line class="major-line" x1="708.29" y1="106.64" x2="730.53" y2="115.39" />
    <line class="major-line" x1="730.53" y1="115.39" x2="752.11" y2="121.64" />
    <line class="major-line" x1="752.11" y1="121.64" x2="774.48" y2="132.97" />
    <line class="major-line" x1="774.48" y1="132.97" x2="796.8" y2="140.28" />
    <line class="major-line" x1="796.8" y1="140.28" x2="819.18" y2="150.59" />
    <line class="major-line" x1="819.18" y1="150.59" x2="845.0" y2="161.65" />
  </g>
  <g class="stars">
    <g class="star">
      <title>Sep 14, 2025 - 2 contributions</title>
      <circle cx="56.73" cy="80.11" r="4.5" fill="url(#starGlow)" opacity="0.11" />
      <circle class="core" cx="56.73" cy="80.11" r="1.8" fill="#dbeafe" opacity="0.74" />
    </g>
    <g class="star">
      <title>Sep 17, 2025 - 1 contribution</title>
      <circle class="core" cx="69.3" cy="80.79" r="1.8" fill="#dbeafe" opacity="0.67" />
    </g>
    <g class="star">
      <title>Sep 24, 2025 - 1 contribution</title>
      <circle class="core" cx="67.73" cy="39.59" r="1.8" fill="#dbeafe" opacity="0.67" />
    </g>
    <g class="star">
      <title>Sep 30, 2025 - 2 contributions</title>
      <circle cx="84.7" cy="69.34" r="4.5" fill="url(#starGlow)" opacity="0.11" />
      <circle class="core" cx="84.7" cy="69.34" r="1.8" fill="#dbeafe" opacity="0.74" />
    </g>
    <g class="star">
      <title>Oct 04, 2025 - 3 contributions</title>
      <circle cx="88.7" cy="70.47" r="4.5" fill="url(#starGlow)" opacity="0.14" />
      <circle class="core" cx="88.7" cy="70.47" r="1.8" fill="#dbeafe" opacity="0.79" />
    </g>
    <g class="star">
      <title>Oct 05, 2025 - 5 contributions</title>
      <circle cx="116.29" cy="75.76" r="4.5" fill="url(#starGlow)" opacity="0.17" />
      <circle class="core" cx="116.29" cy="75.76" r="1.8" fill="#ffffff" opacity="0.86" />
    </g>
    <g class="star">
      <title>Oct 07, 2025 - 3 contributions</title>
      <circle cx="35.0" cy="84.25" r="4.5" fill="url(#starGlow)" opacity="0.14" />
      <circle class="core" cx="35.0" cy="84.25" r="1.8" fill="#dbeafe" opacity="0.79" />
    </g>
    <g class="star">
      <title>Oct 08, 2025 - 4 contributions</title>
      <circle cx="63.51" cy="94.46" r="4.5" fill="url(#starGlow)" opacity="0.16" />
      <circle class="core" cx="63.51" cy="94.46" r="1.8" fill="#ffffff" opacity="0.83" />
    </g>
    <g class="star">
      <title>Oct 09, 2025 - 1 contribution</title>
      <circle class="core" cx="89.14" cy="108.41" r="1.8" fill="#dbeafe" opacity="0.67" />
    </g>
    <g class="star">
      <title>Oct 10, 2025 - 3 contributions</title>
      <circle cx="109.99" cy="121.1" r="4.5" fill="url(#starGlow)" opacity="0.14" />
      <circle class="core" cx="109.99" cy="121.1" r="1.8" fill="#dbeafe" opacity="0.79" />
    </g>
    <g class="star">
      <title>Oct 11, 2025 - 3 contributions</title>
      <circle cx="108.76" cy="148.59" r="4.5" fill="url(#starGlow)" opacity="0.14" />
      <circle class="core" cx="108.76" cy="148.59" r="1.8" fill="#dbeafe" opacity="0.79" />
    </g>
    <g class="star">
      <title>Oct 12, 2025 - 5 contributions</title>
      <circle cx="149.2" cy="148.6" r="4.5" fill="url(#starGlow)" opacity="0.17" />
      <circle class="core" cx="149.2" cy="148.6" r="1.8" fill="#ffffff" opacity="0.86" />
    </g>
    <g class="star">
      <title>Oct 13, 2025 - 1 contribution</title>
      <circle class="core" cx="150.33" cy="118.88" r="1.8" fill="#dbeafe" opacity="0.67" />
    </g>
    <g class="star">
      <title>Oct 14, 2025 - 3 contributions</title>
      <circle cx="169.85" cy="103.32" r="4.5" fill="url(#starGlow)" opacity="0.14" />
      <circle class="core" cx="169.85" cy="103.32" r="1.8" fill="#dbeafe" opacity="0.79" />
    </g>
    <g class="star">
      <title>Oct 15, 2025 - 5 contributions</title>
      <circle cx="185.49" cy="88.17" r="4.5" fill="url(#starGlow)" opacity="0.17" />
      <circle class="core" cx="185.49" cy="88.17" r="1.8" fill="#ffffff" opacity="0.86" />
    </g>
    <g class="star">
      <title>Oct 16, 2025 - 3 contributions</title>
      <circle cx="200.54" cy="73.76" r="4.5" fill="url(#starGlow)" opacity="0.14" />
      <circle class="core" cx="200.54" cy="73.76" r="1.8" fill="#dbeafe" opacity="0.79" />
    </g>
    <g class="star">
      <title>Nov 07, 2025 - 2 contributions</title>
      <circle cx="159.78" cy="59.33" r="4.5" fill="url(#starGlow)" opacity="0.11" />
      <circle class="core" cx="159.78" cy="59.33" r="1.8" fill="#dbeafe" opacity="0.74" />
    </g>
    <g class="star">
      <title>Nov 08, 2025 - 2 contributions</title>
      <circle cx="185.05" cy="68.84" r="4.5" fill="url(#starGlow)" opacity="0.11" />
      <circle class="core" cx="185.05" cy="68.84" r="1.8" fill="#dbeafe" opacity="0.74" />
    </g>
    <g class="star">
      <title>Nov 22, 2025 - 1 contribution</title>
      <circle class="core" cx="205.85" cy="127.74" r="1.8" fill="#dbeafe" opacity="0.67" />
    </g>
    <g class="star">
      <title>Nov 24, 2025 - 2 contributions</title>
      <circle cx="197.57" cy="89.36" r="4.5" fill="url(#starGlow)" opacity="0.11" />
      <circle class="core" cx="197.57" cy="89.36" r="1.8" fill="#dbeafe" opacity="0.74" />
    </g>
    <g class="star">
      <title>Nov 26, 2025 - 1 contribution</title>
      <circle class="core" cx="215.39" cy="111.81" r="1.8" fill="#dbeafe" opacity="0.67" />
    </g>
    <g class="star">
      <title>Dec 15, 2025 - 3 contributions</title>
      <circle cx="239.35" cy="136.93" r="4.5" fill="url(#starGlow)" opacity="0.14" />
      <circle class="core" cx="239.35" cy="136.93" r="1.8" fill="#dbeafe" opacity="0.79" />
    </g>
    <g class="star">
      <title>Dec 18, 2025 - 1 contribution</title>
      <circle class="core" cx="264.19" cy="63.27" r="1.8" fill="#dbeafe" opacity="0.67" />
    </g>
    <g class="star">
      <title>Dec 29, 2025 - 1 contribution</title>
      <circle class="core" cx="277.49" cy="74.02" r="1.8" fill="#dbeafe" opacity="0.67" />
    </g>
    <g class="star">
      <title>Jan 01, 2026 - 1 contribution</title>
      <circle class="core" cx="272.7" cy="76.31" r="1.8" fill="#dbeafe" opacity="0.67" />
    </g>
    <g class="star">
      <title>Jan 02, 2026 - 1 contribution</title>
      <circle class="core" cx="295.07" cy="62.15" r="1.8" fill="#dbeafe" opacity="0.67" />
    </g>
    <g class="star">
      <title>Jan 05, 2026 - 1 contribution</title>
      <circle class="core" cx="298.69" cy="58.85" r="1.8" fill="#dbeafe" opacity="0.67" />
    </g>
    <g class="star">
      <title>Jan 27, 2026 - 2 contributions</title>
      <circle cx="324.93" cy="63.81" r="4.5" fill="url(#starGlow)" opacity="0.11" />
      <circle class="core" cx="324.93" cy="63.81" r="1.8" fill="#dbeafe" opacity="0.74" />
    </g>
    <g class="star">
      <title>Jan 28, 2026 - 1 contribution</title>
      <circle class="core" cx="351.59" cy="52.21" r="1.8" fill="#dbeafe" opacity="0.67" />
    </g>
    <g class="star">
      <title>Jun 30, 2026 - 2 contributions</title>
      <circle cx="643.9" cy="128.61" r="4.5" fill="url(#starGlow)" opacity="0.11" />
      <circle class="core" cx="643.9" cy="128.61" r="1.8" fill="#dbeafe" opacity="0.74" />
    </g>
    <g class="star">
      <title>Jul 01, 2026 - 2 contributions</title>
      <circle cx="663.58" cy="118.84" r="4.5" fill="url(#starGlow)" opacity="0.11" />
      <circle class="core" cx="663.58" cy="118.84" r="1.8" fill="#dbeafe" opacity="0.74" />
    </g>
    <g class="star">
      <title>Jul 09, 2026 - 1 contribution</title>
      <circle class="core" cx="662.43" cy="37.24" r="1.8" fill="#dbeafe" opacity="0.67" />
    </g>
    <g class="star">
      <title>Jul 10, 2026 - 1 contribution</title>
      <circle class="core" cx="682.57" cy="51.05" r="1.8" fill="#dbeafe" opacity="0.67" />
    </g>
    <g class="star">
      <title>Jul 16, 2026 - 12 contributions</title>
      <circle cx="690.38" cy="161.98" r="4.5" fill="url(#starGlow)" opacity="0.25" />
      <circle class="core" cx="690.38" cy="161.98" r="1.8" fill="#ffffff" opacity="1.0" />
    </g>
    <g class="star">
      <title>Aug 22, 2026 - 3 contributions</title>
      <circle cx="747.44" cy="131.72" r="4.5" fill="url(#starGlow)" opacity="0.14" />
      <circle class="core" cx="747.44" cy="131.72" r="1.8" fill="#dbeafe" opacity="0.79" />
    </g>
    <g class="star">
      <title>Aug 23, 2026 - 1 contribution</title>
      <circle class="core" cx="768.53" cy="144.86" r="1.8" fill="#dbeafe" opacity="0.67" />
    </g>
    <g class="star">
      <title>Aug 24, 2026 - 4 contributions</title>
      <circle cx="773.75" cy="116.66" r="4.5" fill="url(#starGlow)" opacity="0.16" />
      <circle class="core" cx="773.75" cy="116.66" r="1.8" fill="#ffffff" opacity="0.83" />
    </g>
    <g class="star">
      <title>Aug 29, 2026 - 3 contributions</title>
      <circle cx="484.4" cy="134.72" r="6.5" fill="url(#majorGlow)" opacity="0.7" />
      <line class="flare" x1="477.9" y1="134.72" x2="490.9" y2="134.72" />
      <line class="flare" x1="484.4" y1="128.22" x2="484.4" y2="141.22" />
      <circle class="core" cx="484.4" cy="134.72" r="1.8" fill="#ffffff" />
    </g>
    <g class="star">
      <title>Aug 30, 2026 - 9 contributions</title>
      <circle cx="506.18" cy="116.54" r="6.5" fill="url(#majorGlow)" opacity="0.7" />
      <line class="flare" x1="499.68" y1="116.54" x2="512.6800000000001" y2="116.54" />
      <line class="flare" x1="506.18" y1="110.04" x2="506.18" y2="123.04" />
      <circle class="core" cx="506.18" cy="116.54" r="1.8" fill="#ffffff" />
    </g>
    <g class="star">
      <title>Aug 31, 2026 - 12 contributions</title>
      <circle cx="529.41" cy="92.56" r="6.5" fill="url(#majorGlow)" opacity="0.7" />
      <line class="flare" x1="522.91" y1="92.56" x2="535.91" y2="92.56" />
      <line class="flare" x1="529.41" y1="86.06" x2="529.41" y2="99.06" />
      <circle class="core" cx="529.41" cy="92.56" r="1.8" fill="#ffffff" />
    </g>
    <g class="star">
      <title>Sep 01, 2026 - 1 contribution</title>
      <circle cx="547.7" cy="76.59" r="6.5" fill="url(#majorGlow)" opacity="0.7" />
      <line class="flare" x1="541.2" y1="76.59" x2="554.2" y2="76.59" />
      <line class="flare" x1="547.7" y1="70.09" x2="547.7" y2="83.09" />
      <circle class="core" cx="547.7" cy="76.59" r="1.8" fill="#ffffff" />
    </g>
    <g class="star">
      <title>Sep 02, 2026 - 3 contributions</title>
      <circle cx="533.76" cy="43.52" r="6.5" fill="url(#majorGlow)" opacity="0.7" />
      <line class="flare" x1="527.26" y1="43.52" x2="540.26" y2="43.52" />
      <line class="flare" x1="533.76" y1="37.02" x2="533.76" y2="50.02" />
      <circle class="core" cx="533.76" cy="43.52" r="1.8" fill="#ffffff" />
    </g>
    <g class="star">
      <title>Sep 03, 2026 - 4 contributions</title>
      <circle cx="577.14" cy="30.0" r="6.5" fill="url(#majorGlow)" opacity="0.7" />
      <line class="flare" x1="570.64" y1="30.0" x2="583.64" y2="30.0" />
      <line class="flare" x1="577.14" y1="23.5" x2="577.14" y2="36.5" />
      <circle class="core" cx="577.14" cy="30.0" r="1.8" fill="#ffffff" />
    </g>
    <g class="star">
      <title>Sep 04, 2026 - 2 contributions</title>
      <circle cx="593.77" cy="60.4" r="6.5" fill="url(#majorGlow)" opacity="0.7" />
      <line class="flare" x1="587.27" y1="60.4" x2="600.27" y2="60.4" />
      <line class="flare" x1="593.77" y1="53.9" x2="593.77" y2="66.9" />
      <circle class="core" cx="593.77" cy="60.4" r="1.8" fill="#ffffff" />
    </g>
    <g class="star">
      <title>Sep 05, 2026 - 3 contributions</title>
      <circle cx="614.7" cy="69.17" r="6.5" fill="url(#majorGlow)" opacity="0.7" />
      <line class="flare" x1="608.2" y1="69.17" x2="621.2" y2="69.17" />
      <line class="flare" x1="614.7" y1="62.67" x2="614.7" y2="75.67" />
      <circle class="core" cx="614.7" cy="69.17" r="1.8" fill="#ffffff" />
    </g>
    <g class="star">
      <title>Sep 06, 2026 - 10 contributions</title>
      <circle cx="636.92" cy="78.14" r="6.5" fill="url(#majorGlow)" opacity="0.7" />
      <line class="flare" x1="630.42" y1="78.14" x2="643.42" y2="78.14" />
      <line class="flare" x1="636.92" y1="71.64" x2="636.92" y2="84.64" />
      <circle class="core" cx="636.92" cy="78.14" r="1.8" fill="#ffffff" />
    </g>
    <g class="star">
      <title>Sep 07, 2026 - 10 contributions</title>
      <circle cx="662.56" cy="85.58" r="6.5" fill="url(#majorGlow)" opacity="0.7" />
      <line class="flare" x1="656.06" y1="85.58" x2="669.06" y2="85.58" />
      <line class="flare" x1="662.56" y1="79.08" x2="662.56" y2="92.08" />
      <circle class="core" cx="662.56" cy="85.58" r="1.8" fill="#ffffff" />
    </g>
    <g class="star">
      <title>Sep 08, 2026 - 1 contribution</title>
      <circle cx="681.07" cy="98.59" r="6.5" fill="url(#majorGlow)" opacity="0.7" />
      <line class="flare" x1="674.57" y1="98.59" x2="687.57" y2="98.59" />
      <line class="flare" x1="681.07" y1="92.09" x2="681.07" y2="105.09" />
      <circle class="core" cx="681.07" cy="98.59" r="1.8" fill="#ffffff" />
    </g>
    <g class="star">
      <title>Sep 09, 2026 - 1 contribution</title>
      <circle cx="708.29" cy="106.64" r="6.5" fill="url(#majorGlow)" opacity="0.7" />
      <line class="flare" x1="701.79" y1="106.64" x2="714.79" y2="106.64" />
      <line class="flare" x1="708.29" y1="100.14" x2="708.29" y2="113.14" />
      <circle class="core" cx="708.29" cy="106.64" r="1.8" fill="#ffffff" />
    </g>
    <g class="star">
      <title>Sep 10, 2026 - 8 contributions</title>
      <circle cx="730.53" cy="115.39" r="6.5" fill="url(#majorGlow)" opacity="0.7" />
      <line class="flare" x1="724.03" y1="115.39" x2="737.03" y2="115.39" />
      <line class="flare" x1="730.53" y1="108.89" x2="730.53" y2="121.89" />
      <circle class="core" cx="730.53" cy="115.39" r="1.8" fill="#ffffff" />
    </g>
    <g class="star">
      <title>Sep 11, 2026 - 1 contribution</title>
      <circle cx="752.11" cy="121.64" r="6.5" fill="url(#majorGlow)" opacity="0.7" />
      <line class="flare" x1="745.61" y1="121.64" x2="758.61" y2="121.64" />
      <line class="flare" x1="752.11" y1="115.14" x2="752.11" y2="128.14" />
      <circle class="core" cx="752.11" cy="121.64" r="1.8" fill="#ffffff" />
    </g>
    <g class="star">
      <title>Sep 12, 2026 - 3 contributions</title>
      <circle cx="774.48" cy="132.97" r="6.5" fill="url(#majorGlow)" opacity="0.7" />
      <line class="flare" x1="767.98" y1="132.97" x2="780.98" y2="132.97" />
      <line class="flare" x1="774.48" y1="126.47" x2="774.48" y2="139.47" />
      <circle class="core" cx="774.48" cy="132.97" r="1.8" fill="#ffffff" />
    </g>
    <g class="star">
      <title>Sep 13, 2026 - 2 contributions</title>
      <circle cx="796.8" cy="140.28" r="6.5" fill="url(#majorGlow)" opacity="0.7" />
      <line class="flare" x1="790.3" y1="140.28" x2="803.3" y2="140.28" />
      <line class="flare" x1="796.8" y1="133.78" x2="796.8" y2="146.78" />
      <circle class="core" cx="796.8" cy="140.28" r="1.8" fill="#ffffff" />
    </g>
    <g class="star">
      <title>Sep 14, 2026 - 5 contributions</title>
      <circle cx="819.18" cy="150.59" r="6.5" fill="url(#majorGlow)" opacity="0.7" />
      <line class="flare" x1="812.68" y1="150.59" x2="825.68" y2="150.59" />
      <line class="flare" x1="819.18" y1="144.09" x2="819.18" y2="157.09" />
      <circle class="core" cx="819.18" cy="150.59" r="1.8" fill="#ffffff" />
    </g>
    <g class="star">
      <title>Sep 15, 2026 - 1 contribution</title>
      <circle cx="845.0" cy="161.65" r="6.5" fill="url(#majorGlow)" opacity="0.7" />
      <line class="flare" x1="838.5" y1="161.65" x2="851.5" y2="161.65" />
      <line class="flare" x1="845.0" y1="155.15" x2="845.0" y2="168.15" />
      <circle class="core" cx="845.0" cy="161.65" r="1.8" fill="#ffffff" />
    </g>
  </g>
</svg>