<svg xmlns="http://www.w3.org/2000/svg" viewBox="0 0 880 200" width="100%" height="100%" style="background: transparent;">
  <defs>
    <radialGradient id="majorGlow" cx="50%" cy="50%" r="50%">
      <stop offset="0%" stop-color="#ffffff" stop-opacity="1" />
      <stop offset="30%" stop-color="#bae6fd" stop-opacity="0.85" />
      <stop offset="70%" stop-color="#38bdf8" stop-opacity="0.35" />
      <stop offset="100%" stop-color="#0284c7" stop-opacity="0" />
    </radialGradient>
    <radialGradient id="starGlow" cx="50%" cy="50%" r="50%">
      <stop offset="0%" stop-color="#bfdbfe" stop-opacity="0.75" />
      <stop offset="100%" stop-color="#3b82f6" stop-opacity="0" />
    </radialGradient>
    <style>
      .major-line { stroke: #bae6fd; stroke-width: 0.95; stroke-opacity: 0.65; stroke-dasharray: 2.5 3; }
      .minor-line { stroke: #7dd3fc; stroke-width: 0.6; stroke-opacity: 0.25; stroke-dasharray: 2 3; }
      .flare { stroke: #ffffff; stroke-width: 0.65; stroke-opacity: 0.85; }
      .star { cursor: pointer; }
      .star:hover circle.core { fill: #ffffff !important; stroke: #38bdf8; stroke-width: 1.2px; }
    </style>
  </defs>
  <g class="dust">
    <circle cx="155.91" cy="112.17" r="0.72" fill="#94a3b8" opacity="0.056" />
    <circle cx="257.06" cy="28.25" r="0.38" fill="#94a3b8" opacity="0.147" />
    <circle cx="308.28" cy="187.24" r="0.51" fill="#94a3b8" opacity="0.178" />
    <circle cx="26.97" cy="79.26" r="0.72" fill="#94a3b8" opacity="0.083" />
    <circle cx="125.94" cy="81.34" r="0.57" fill="#94a3b8" opacity="0.163" />
    <circle cx="656.61" cy="38.36" r="0.71" fill="#94a3b8" opacity="0.176" />
    <circle cx="692.52" cy="106.72" r="0.74" fill="#94a3b8" opacity="0.108" />
    <circle cx="488.7" cy="150.08" r="0.52" fill="#94a3b8" opacity="0.172" />
    <circle cx="805.42" cy="32.41" r="0.66" fill="#94a3b8" opacity="0.174" />
    <circle cx="86.18" cy="130.57" r="0.68" fill="#94a3b8" opacity="0.162" />
    <circle cx="827.37" cy="49.02" r="0.55" fill="#94a3b8" opacity="0.207" />
    <circle cx="450.02" cy="38.77" r="0.33" fill="#94a3b8" opacity="0.182" />
    <circle cx="769.35" cy="155.75" r="0.49" fill="#94a3b8" opacity="0.154" />
    <circle cx="415.89" cy="63.66" r="0.47" fill="#94a3b8" opacity="0.047" />
    <circle cx="294.62" cy="68.3" r="0.31" fill="#94a3b8" opacity="0.096" />
    <circle cx="66.77" cy="110.55" r="0.59" fill="#94a3b8" opacity="0.193" />
    <circle cx="679.61" cy="91.13" r="0.25" fill="#94a3b8" opacity="0.164" />
    <circle cx="789.38" cy="172.47" r="0.36" fill="#94a3b8" opacity="0.046" />
    <circle cx="593.3" cy="24.48" r="0.44" fill="#94a3b8" opacity="0.134" />
    <circle cx="183.2" cy="110.28" r="0.25" fill="#94a3b8" opacity="0.146" />
    <circle cx="507.63" cy="18.38" r="0.4" fill="#94a3b8" opacity="0.182" />
    <circle cx="841.77" cy="165.42" r="0.6" fill="#94a3b8" opacity="0.212" />
    <circle cx="740.47" cy="17.36" r="0.42" fill="#94a3b8" opacity="0.217" />
    <circle cx="714.05" cy="95.53" r="0.58" fill="#94a3b8" opacity="0.147" />
    <circle cx="379.53" cy="138.4" r="0.64" fill="#94a3b8" opacity="0.203" />
    <circle cx="526.79" cy="56.17" r="0.71" fill="#94a3b8" opacity="0.099" />
    <circle cx="129.5" cy="112.05" r="0.38" fill="#94a3b8" opacity="0.072" />
    <circle cx="836.81" cy="86.73" r="0.34" fill="#94a3b8" opacity="0.157" />
    <circle cx="169.13" cy="64.29" r="0.52" fill="#94a3b8" opacity="0.12" />
    <circle cx="349.29" cy="66.3" r="0.45" fill="#94a3b8" opacity="0.051" />
    <circle cx="25.09" cy="15.98" r="0.25" fill="#94a3b8" opacity="0.073" />
    <circle cx="28.7" cy="24.38" r="0.32" fill="#94a3b8" opacity="0.103" />
    <circle cx="654.02" cy="99.5" r="0.69" fill="#94a3b8" opacity="0.118" />
    <circle cx="448.29" cy="106.93" r="0.54" fill="#94a3b8" opacity="0.076" />
    <circle cx="382.87" cy="123.0" r="0.31" fill="#94a3b8" opacity="0.154" />
    <circle cx="791.41" cy="15.93" r="0.27" fill="#94a3b8" opacity="0.217" />
    <circle cx="303.36" cy="146.93" r="0.37" fill="#94a3b8" opacity="0.155" />
    <circle cx="187.51" cy="5.98" r="0.46" fill="#94a3b8" opacity="0.144" />
    <circle cx="666.51" cy="137.81" r="0.75" fill="#94a3b8" opacity="0.218" />
    <circle cx="502.59" cy="118.24" r="0.45" fill="#94a3b8" opacity="0.048" />
    <circle cx="558.46" cy="131.4" r="0.64" fill="#94a3b8" opacity="0.163" />
    <circle cx="174.94" cy="32.85" r="0.5" fill="#94a3b8" opacity="0.12" />
    <circle cx="189.11" cy="54.32" r="0.69" fill="#94a3b8" opacity="0.146" />
    <circle cx="80.41" cy="176.05" r="0.26" fill="#94a3b8" opacity="0.199" />
    <circle cx="23.87" cy="58.16" r="0.72" fill="#94a3b8" opacity="0.209" />
    <circle cx="23.18" cy="69.7" r="0.68" fill="#94a3b8" opacity="0.051" />
    <circle cx="516.94" cy="161.8" r="0.44" fill="#94a3b8" opacity="0.093" />
    <circle cx="563.26" cy="111.48" r="0.59" fill="#94a3b8" opacity="0.117" />
    <circle cx="231.88" cy="35.74" r="0.43" fill="#94a3b8" opacity="0.077" />
    <circle cx="777.04" cy="19.11" r="0.65" fill="#94a3b8" opacity="0.092" />
    <circle cx="850.01" cy="121.3" r="0.44" fill="#94a3b8" opacity="0.156" />
    <circle cx="27.9" cy="29.03" r="0.68" fill="#94a3b8" opacity="0.11" />
    <circle cx="470.93" cy="167.24" r="0.6" fill="#94a3b8" opacity="0.089" />
    <circle cx="610.36" cy="34.85" r="0.38" fill="#94a3b8" opacity="0.128" />
    <circle cx="302.98" cy="10.77" r="0.53" fill="#94a3b8" opacity="0.078" />
    <circle cx="864.3" cy="135.98" r="0.46" fill="#94a3b8" opacity="0.211" />
    <circle cx="545.06" cy="184.44" r="0.48" fill="#94a3b8" opacity="0.097" />
    <circle cx="354.97" cy="138.09" r="0.65" fill="#94a3b8" opacity="0.093" />
    <circle cx="140.15" cy="170.02" r="0.31" fill="#94a3b8" opacity="0.08" />
    <circle cx="429.23" cy="50.0" r="0.39" fill="#94a3b8" opacity="0.212" />
    <circle cx="835.29" cy="150.57" r="0.52" fill="#94a3b8" opacity="0.081" />
    <circle cx="18.54" cy="173.0" r="0.39" fill="#94a3b8" opacity="0.052" />
    <circle cx="374.19" cy="23.19" r="0.74" fill="#94a3b8" opacity="0.122" />
    <circle cx="601.05" cy="70.04" r="0.71" fill="#94a3b8" opacity="0.164" />
    <circle cx="755.32" cy="103.74" r="0.56" fill="#94a3b8" opacity="0.129" />
    <circle cx="128.99" cy="66.77" r="0.28" fill="#94a3b8" opacity="0.112" />
    <circle cx="793.34" cy="149.5" r="0.41" fill="#94a3b8" opacity="0.054" />
    <circle cx="37.13" cy="133.0" r="0.32" fill="#94a3b8" opacity="0.124" />
    <circle cx="347.18" cy="150.93" r="0.57" fill="#94a3b8" opacity="0.19" />
    <circle cx="49.57" cy="194.36" r="0.38" fill="#94a3b8" opacity="0.046" />
    <circle cx="499.64" cy="167.67" r="0.39" fill="#94a3b8" opacity="0.163" />
    <circle cx="195.59" cy="27.32" r="0.37" fill="#94a3b8" opacity="0.184" />
    <circle cx="843.73" cy="194.41" r="0.74" fill="#94a3b8" opacity="0.089" />
    <circle cx="456.34" cy="54.29" r="0.25" fill="#94a3b8" opacity="0.12" />
    <circle cx="124.37" cy="109.81" r="0.65" fill="#94a3b8" opacity="0.114" />
    <circle cx="551.5" cy="147.94" r="0.26" fill="#94a3b8" opacity="0.099" />
    <circle cx="524.58" cy="173.56" r="0.45" fill="#94a3b8" opacity="0.16" />
    <circle cx="349.68" cy="80.07" r="0.7" fill="#94a3b8" opacity="0.093" />
    <circle cx="253.86" cy="90.7" r="0.25" fill="#94a3b8" opacity="0.161" />
    <circle cx="549.58" cy="156.63" r="0.28" fill="#94a3b8" opacity="0.182" />
    <circle cx="110.96" cy="77.04" r="0.41" fill="#94a3b8" opacity="0.174" />
    <circle cx="241.52" cy="133.81" r="0.54" fill="#94a3b8" opacity="0.153" />
    <circle cx="159.86" cy="93.4" r="0.6" fill="#94a3b8" opacity="0.176" />
    <circle cx="530.74" cy="13.93" r="0.54" fill="#94a3b8" opacity="0.154" />
    <circle cx="316.37" cy="181.88" r="0.48" fill="#94a3b8" opacity="0.073" />
    <circle cx="483.35" cy="180.64" r="0.44" fill="#94a3b8" opacity="0.181" />
    <circle cx="622.33" cy="106.38" r="0.3" fill="#94a3b8" opacity="0.125" />
    <circle cx="667.43" cy="108.93" r="0.63" fill="#94a3b8" opacity="0.196" />
    <circle cx="145.79" cy="109.68" r="0.25" fill="#94a3b8" opacity="0.16" />
    <circle cx="507.08" cy="89.2" r="0.57" fill="#94a3b8" opacity="0.163" />
    <circle cx="6.0" cy="91.1" r="0.57" fill="#94a3b8" opacity="0.049" />
    <circle cx="487.54" cy="28.12" r="0.64" fill="#94a3b8" opacity="0.043" />
    <circle cx="176.75" cy="26.1" r="0.73" fill="#94a3b8" opacity="0.16" />
    <circle cx="590.72" cy="34.8" r="0.73" fill="#94a3b8" opacity="0.168" />
    <circle cx="303.77" cy="184.27" r="0.35" fill="#94a3b8" opacity="0.069" />
    <circle cx="235.13" cy="188.61" r="0.3" fill="#94a3b8" opacity="0.157" />
    <circle cx="524.29" cy="176.13" r="0.64" fill="#94a3b8" opacity="0.095" />
    <circle cx="351.65" cy="112.62" r="0.69" fill="#94a3b8" opacity="0.048" />
    <circle cx="111.69" cy="186.31" r="0.67" fill="#94a3b8" opacity="0.049" />
    <circle cx="93.11" cy="68.36" r="0.74" fill="#94a3b8" opacity="0.076" />
    <circle cx="710.97" cy="165.72" r="0.57" fill="#94a3b8" opacity="0.11" />
    <circle cx="420.5" cy="153.78" r="0.26" fill="#94a3b8" opacity="0.203" />
    <circle cx="375.67" cy="90.63" r="0.61" fill="#94a3b8" opacity="0.196" />
    <circle cx="502.64" cy="28.06" r="0.66" fill="#94a3b8" opacity="0.163" />
    <circle cx="65.49" cy="56.6" r="0.29" fill="#94a3b8" opacity="0.045" />
    <circle cx="421.64" cy="12.86" r="0.41" fill="#94a3b8" opacity="0.212" />
    <circle cx="652.4" cy="194.26" r="0.45" fill="#94a3b8" opacity="0.181" />
    <circle cx="330.37" cy="75.68" r="0.25" fill="#94a3b8" opacity="0.089" />
    <circle cx="592.33" cy="26.49" r="0.58" fill="#94a3b8" opacity="0.179" />
    <circle cx="43.64" cy="30.47" r="0.55" fill="#94a3b8" opacity="0.062" />
    <circle cx="772.38" cy="13.92" r="0.69" fill="#94a3b8" opacity="0.09" />
    <circle cx="461.69" cy="30.78" r="0.35" fill="#94a3b8" opacity="0.11" />
    <circle cx="460.92" cy="176.13" r="0.37" fill="#94a3b8" opacity="0.206" />
    <circle cx="478.25" cy="45.42" r="0.38" fill="#94a3b8" opacity="0.096" />
    <circle cx="149.41" cy="16.96" r="0.42" fill="#94a3b8" opacity="0.072" />
    <circle cx="94.56" cy="174.09" r="0.61" fill="#94a3b8" opacity="0.096" />
    <circle cx="774.57" cy="169.63" r="0.37" fill="#94a3b8" opacity="0.095" />
    <circle cx="141.63" cy="169.52" r="0.56" fill="#94a3b8" opacity="0.162" />
    <circle cx="854.65" cy="146.55" r="0.32" fill="#94a3b8" opacity="0.142" />
    <circle cx="706.09" cy="13.4" r="0.72" fill="#94a3b8" opacity="0.109" />
    <circle cx="277.21" cy="60.7" r="0.59" fill="#94a3b8" opacity="0.218" />
    <circle cx="268.39" cy="98.99" r="0.38" fill="#94a3b8" opacity="0.162" />
    <circle cx="698.7" cy="132.26" r="0.62" fill="#94a3b8" opacity="0.101" />
    <circle cx="804.36" cy="160.13" r="0.56" fill="#94a3b8" opacity="0.194" />
    <circle cx="435.27" cy="143.45" r="0.56" fill="#94a3b8" opacity="0.115" />
    <circle cx="228.46" cy="61.67" r="0.68" fill="#94a3b8" opacity="0.144" />
    <circle cx="118.7" cy="165.32" r="0.69" fill="#94a3b8" opacity="0.145" />
    <circle cx="457.17" cy="124.95" r="0.32" fill="#94a3b8" opacity="0.207" />
    <circle cx="376.22" cy="79.91" r="0.49" fill="#94a3b8" opacity="0.073" />
    <circle cx="462.51" cy="57.16" r="0.37" fill="#94a3b8" opacity="0.147" />
    <circle cx="801.67" cy="136.65" r="0.47" fill="#94a3b8" opacity="0.208" />
    <circle cx="539.01" cy="154.48" r="0.32" fill="#94a3b8" opacity="0.197" />
    <circle cx="606.94" cy="189.07" r="0.29" fill="#94a3b8" opacity="0.203" />
    <circle cx="478.52" cy="115.98" r="0.29" fill="#94a3b8" opacity="0.139" />
    <circle cx="783.18" cy="168.46" r="0.54" fill="#94a3b8" opacity="0.123" />
    <circle cx="252.56" cy="170.5" r="0.26" fill="#94a3b8" opacity="0.187" />
    <circle cx="872.4" cy="125.54" r="0.36" fill="#94a3b8" opacity="0.054" />
    <circle cx="307.3" cy="169.37" r="0.36" fill="#94a3b8" opacity="0.106" />
    <circle cx="583.78" cy="76.08" r="0.5" fill="#94a3b8" opacity="0.218" />
    <circle cx="25.53" cy="174.6" r="0.71" fill="#94a3b8" opacity="0.043" />
    <circle cx="468.8" cy="139.87" r="0.64" fill="#94a3b8" opacity="0.092" />
    <circle cx="51.6" cy="57.78" r="0.29" fill="#94a3b8" opacity="0.12" />
    <circle cx="351.25" cy="6.07" r="0.29" fill="#94a3b8" opacity="0.105" />
    <circle cx="400.65" cy="17.94" r="0.57" fill="#94a3b8" opacity="0.083" />
    <circle cx="747.23" cy="47.59" r="0.72" fill="#94a3b8" opacity="0.178" />
    <circle cx="49.39" cy="63.59" r="0.5" fill="#94a3b8" opacity="0.198" />
    <circle cx="393.66" cy="27.59" r="0.59" fill="#94a3b8" opacity="0.047" />
    <circle cx="846.18" cy="54.67" r="0.55" fill="#94a3b8" opacity="0.059" />
    <circle cx="416.02" cy="42.26" r="0.33" fill="#94a3b8" opacity="0.211" />
    <circle cx="251.26" cy="62.37" r="0.27" fill="#94a3b8" opacity="0.184" />
    <circle cx="616.6" cy="61.77" r="0.55" fill="#94a3b8" opacity="0.127" />
    <circle cx="819.55" cy="35.71" r="0.38" fill="#94a3b8" opacity="0.161" />
    <circle cx="826.3" cy="100.82" r="0.29" fill="#94a3b8" opacity="0.146" />
    <circle cx="459.87" cy="54.03" r="0.73" fill="#94a3b8" opacity="0.199" />
    <circle cx="600.61" cy="79.11" r="0.74" fill="#94a3b8" opacity="0.086" />
    <circle cx="326.16" cy="47.36" r="0.72" fill="#94a3b8" opacity="0.118" />
    <circle cx="97.65" cy="50.68" r="0.57" fill="#94a3b8" opacity="0.093" />
    <circle cx="36.46" cy="185.18" r="0.65" fill="#94a3b8" opacity="0.115" />
    <circle cx="787.39" cy="167.95" r="0.68" fill="#94a3b8" opacity="0.189" />
    <circle cx="188.35" cy="147.38" r="0.27" fill="#94a3b8" opacity="0.211" />
    <circle cx="206.87" cy="149.99" r="0.6" fill="#94a3b8" opacity="0.139" />
    <circle cx="591.32" cy="91.91" r="0.3" fill="#94a3b8" opacity="0.088" />
    <circle cx="503.84" cy="161.13" r="0.5" fill="#94a3b8" opacity="0.187" />
    <circle cx="25.18" cy="25.74" r="0.37" fill="#94a3b8" opacity="0.073" />
    <circle cx="61.81" cy="46.73" r="0.27" fill="#94a3b8" opacity="0.042" />
    <circle cx="600.33" cy="64.85" r="0.71" fill="#94a3b8" opacity="0.14" />
    <circle cx="734.13" cy="128.55" r="0.42" fill="#94a3b8" opacity="0.171" />
    <circle cx="175.56" cy="65.58" r="0.65" fill="#94a3b8" opacity="0.043" />
    <circle cx="816.88" cy="79.54" r="0.43" fill="#94a3b8" opacity="0.083" />
    <circle cx="805.43" cy="69.09" r="0.51" fill="#94a3b8" opacity="0.085" />
    <circle cx="435.44" cy="81.78" r="0.47" fill="#94a3b8" opacity="0.163" />
    <circle cx="303.1" cy="61.99" r="0.72" fill="#94a3b8" opacity="0.05" />
    <circle cx="547.28" cy="171.81" r="0.69" fill="#94a3b8" opacity="0.116" />
    <circle cx="87.59" cy="58.01" r="0.47" fill="#94a3b8" opacity="0.156" />
    <circle cx="381.86" cy="42.44" r="0.53" fill="#94a3b8" opacity="0.048" />
    <circle cx="699.94" cy="145.14" r="0.71" fill="#94a3b8" opacity="0.044" />
    <circle cx="182.21" cy="187.63" r="0.67" fill="#94a3b8" opacity="0.184" />
    <circle cx="531.5" cy="87.97" r="0.34" fill="#94a3b8" opacity="0.131" />
    <circle cx="596.4" cy="148.18" r="0.3" fill="#94a3b8" opacity="0.198" />
    <circle cx="277.65" cy="120.11" r="0.46" fill="#94a3b8" opacity="0.064" />
    <circle cx="411.03" cy="110.87" r="0.55" fill="#94a3b8" opacity="0.139" />
    <circle cx="334.03" cy="76.85" r="0.35" fill="#94a3b8" opacity="0.191" />
    <circle cx="405.8" cy="61.48" r="0.45" fill="#94a3b8" opacity="0.117" />
    <circle cx="607.46" cy="57.84" r="0.65" fill="#94a3b8" opacity="0.08" />
    <circle cx="671.04" cy="118.76" r="0.62" fill="#94a3b8" opacity="0.133" />
    <circle cx="779.56" cy="160.59" r="0.53" fill="#94a3b8" opacity="0.152" />
    <circle cx="815.52" cy="182.18" r="0.46" fill="#94a3b8" opacity="0.198" />
    <circle cx="143.77" cy="85.09" r="0.55" fill="#94a3b8" opacity="0.219" />
    <circle cx="817.92" cy="170.26" r="0.4" fill="#94a3b8" opacity="0.154" />
    <circle cx="99.74" cy="58.31" r="0.38" fill="#94a3b8" opacity="0.125" />
    <circle cx="506.4" cy="25.79" r="0.55" fill="#94a3b8" opacity="0.219" />
    <circle cx="576.74" cy="122.55" r="0.54" fill="#94a3b8" opacity="0.202" />
    <circle cx="643.16" cy="191.4" r="0.57" fill="#94a3b8" opacity="0.183" />
    <circle cx="414.73" cy="9.08" r="0.52" fill="#94a3b8" opacity="0.151" />
    <circle cx="109.58" cy="93.65" r="0.29" fill="#94a3b8" opacity="0.09" />
    <circle cx="602.82" cy="114.26" r="0.48" fill="#94a3b8" opacity="0.131" />
    <circle cx="238.56" cy="138.17" r="0.5" fill="#94a3b8" opacity="0.169" />
    <circle cx="624.03" cy="79.88" r="0.66" fill="#94a3b8" opacity="0.058" />
    <circle cx="362.88" cy="132.79" r="0.74" fill="#94a3b8" opacity="0.143" />
    <circle cx="78.7" cy="18.09" r="0.46" fill="#94a3b8" opacity="0.205" />
    <circle cx="834.77" cy="103.55" r="0.41" fill="#94a3b8" opacity="0.065" />
    <circle cx="705.99" cy="110.58" r="0.42" fill="#94a3b8" opacity="0.218" />
    <circle cx="148.14" cy="79.38" r="0.61" fill="#94a3b8" opacity="0.142" />
    <circle cx="192.18" cy="6.5" r="0.41" fill="#94a3b8" opacity="0.169" />
    <circle cx="842.57" cy="118.72" r="0.5" fill="#94a3b8" opacity="0.209" />
    <circle cx="439.72" cy="115.78" r="0.4" fill="#94a3b8" opacity="0.169" />
    <circle cx="524.66" cy="106.66" r="0.37" fill="#94a3b8" opacity="0.054" />
    <circle cx="502.71" cy="118.87" r="0.7" fill="#94a3b8" opacity="0.129" />
    <circle cx="851.22" cy="173.96" r="0.37" fill="#94a3b8" opacity="0.132" />
    <circle cx="177.49" cy="164.76" r="0.28" fill="#94a3b8" opacity="0.218" />
    <circle cx="851.3" cy="83.93" r="0.41" fill="#94a3b8" opacity="0.166" />
    <circle cx="292.73" cy="177.28" r="0.66" fill="#94a3b8" opacity="0.156" />
    <circle cx="137.52" cy="171.46" r="0.6" fill="#94a3b8" opacity="0.213" />
    <circle cx="537.64" cy="91.14" r="0.71" fill="#94a3b8" opacity="0.13" />
    <circle cx="347.0" cy="186.34" r="0.37" fill="#94a3b8" opacity="0.097" />
    <circle cx="756.3" cy="96.43" r="0.41" fill="#94a3b8" opacity="0.115" />
    <circle cx="805.32" cy="39.08" r="0.26" fill="#94a3b8" opacity="0.124" />
    <circle cx="470.05" cy="115.48" r="0.46" fill="#94a3b8" opacity="0.201" />
    <circle cx="155.43" cy="75.28" r="0.4" fill="#94a3b8" opacity="0.219" />
    <circle cx="523.29" cy="121.24" r="0.6" fill="#94a3b8" opacity="0.217" />
    <circle cx="779.91" cy="22.99" r="0.53" fill="#94a3b8" opacity="0.055" />
    <circle cx="799.32" cy="14.3" r="0.59" fill="#94a3b8" opacity="0.137" />
    <circle cx="132.62" cy="162.97" r="0.29" fill="#94a3b8" opacity="0.147" />
    <circle cx="454.61" cy="83.35" r="0.72" fill="#94a3b8" opacity="0.172" />
    <circle cx="416.28" cy="155.45" r="0.28" fill="#94a3b8" opacity="0.125" />
    <circle cx="833.7" cy="82.64" r="0.74" fill="#94a3b8" opacity="0.207" />
    <circle cx="483.42" cy="83.19" r="0.29" fill="#94a3b8" opacity="0.144" />
    <circle cx="36.93" cy="98.81" r="0.74" fill="#94a3b8" opacity="0.185" />
    <circle cx="56.62" cy="108.84" r="0.57" fill="#94a3b8" opacity="0.161" />
    <circle cx="781.24" cy="171.37" r="0.28" fill="#94a3b8" opacity="0.156" />
    <circle cx="344.55" cy="178.23" r="0.35" fill="#94a3b8" opacity="0.18" />
    <circle cx="626.47" cy="167.98" r="0.57" fill="#94a3b8" opacity="0.141" />
    <circle cx="286.5" cy="57.29" r="0.63" fill="#94a3b8" opacity="0.148" />
    <circle cx="350.55" cy="62.96" r="0.37" fill="#94a3b8" opacity="0.196" />
    <circle cx="11.85" cy="80.34" r="0.65" fill="#94a3b8" opacity="0.185" />
    <circle cx="866.34" cy="143.54" r="0.29" fill="#94a3b8" opacity="0.153" />
    <circle cx="486.01" cy="124.22" r="0.71" fill="#94a3b8" opacity="0.162" />
    <circle cx="557.69" cy="111.25" r="0.55" fill="#94a3b8" opacity="0.178" />
    <circle cx="432.98" cy="94.83" r="0.43" fill="#94a3b8" opacity="0.187" />
    <circle cx="272.94" cy="14.52" r="0.45" fill="#94a3b8" opacity="0.051" />
    <circle cx="120.29" cy="56.06" r="0.56" fill="#94a3b8" opacity="0.122" />
    <circle cx="569.2" cy="50.78" r="0.39" fill="#94a3b8" opacity="0.22" />
    <circle cx="66.18" cy="40.41" r="0.32" fill="#94a3b8" opacity="0.124" />
    <circle cx="499.49" cy="103.31" r="0.73" fill="#94a3b8" opacity="0.18" />
    <circle cx="629.02" cy="77.35" r="0.37" fill="#94a3b8" opacity="0.145" />
    <circle cx="671.72" cy="160.93" r="0.37" fill="#94a3b8" opacity="0.157" />
    <circle cx="864.72" cy="170.81" r="0.42" fill="#94a3b8" opacity="0.101" />
    <circle cx="372.08" cy="126.73" r="0.59" fill="#94a3b8" opacity="0.21" />
    <circle cx="756.59" cy="96.67" r="0.36" fill="#94a3b8" opacity="0.206" />
    <circle cx="336.51" cy="98.39" r="0.53" fill="#94a3b8" opacity="0.091" />
    <circle cx="20.86" cy="38.56" r="0.74" fill="#94a3b8" opacity="0.167" />
    <circle cx="773.58" cy="117.36" r="0.53" fill="#94a3b8" opacity="0.206" />
    <circle cx="242.95" cy="191.92" r="0.4" fill="#94a3b8" opacity="0.169" />
    <circle cx="468.86" cy="46.24" r="0.67" fill="#94a3b8" opacity="0.144" />
    <circle cx="649.96" cy="190.75" r="0.46" fill="#94a3b8" opacity="0.153" />
    <circle cx="371.27" cy="153.38" r="0.31" fill="#94a3b8" opacity="0.185" />
    <circle cx="609.99" cy="93.85" r="0.48" fill="#94a3b8" opacity="0.106" />
    <circle cx="386.16" cy="156.32" r="0.58" fill="#94a3b8" opacity="0.067" />
    <circle cx="671.46" cy="68.37" r="0.55" fill="#94a3b8" opacity="0.099" />
    <circle cx="179.83" cy="9.1" r="0.75" fill="#94a3b8" opacity="0.098" />
    <circle cx="342.87" cy="153.65" r="0.39" fill="#94a3b8" opacity="0.069" />
    <circle cx="105.21" cy="12.22" r="0.74" fill="#94a3b8" opacity="0.174" />
    <circle cx="747.74" cy="60.99" r="0.62" fill="#94a3b8" opacity="0.192" />
    <circle cx="240.02" cy="115.74" r="0.65" fill="#94a3b8" opacity="0.211" />
    <circle cx="282.63" cy="88.87" r="0.29" fill="#94a3b8" opacity="0.212" />
    <circle cx="337.08" cy="149.14" r="0.45" fill="#94a3b8" opacity="0.156" />
    <circle cx="397.6" cy="166.65" r="0.73" fill="#94a3b8" opacity="0.156" />
    <circle cx="294.99" cy="12.34" r="0.35" fill="#94a3b8" opacity="0.059" />
    <circle cx="644.08" cy="64.72" r="0.5" fill="#94a3b8" opacity="0.127" />
    <circle cx="851.27" cy="93.73" r="0.42" fill="#94a3b8" opacity="0.131" />
    <circle cx="600.37" cy="21.62" r="0.3" fill="#94a3b8" opacity="0.11" />
    <circle cx="526.17" cy="75.98" r="0.49" fill="#94a3b8" opacity="0.139" />
    <circle cx="828.28" cy="95.17" r="0.75" fill="#94a3b8" opacity="0.211" />
    <circle cx="641.02" cy="110.24" r="0.67" fill="#94a3b8" opacity="0.168" />
    <circle cx="85.87" cy="18.48" r="0.27" fill="#94a3b8" opacity="0.153" />
    <circle cx="198.51" cy="132.91" r="0.52" fill="#94a3b8" opacity="0.091" />
    <circle cx="758.97" cy="21.36" r="0.52" fill="#94a3b8" opacity="0.113" />
    <circle cx="75.8" cy="144.81" r="0.58" fill="#94a3b8" opacity="0.049" />
    <circle cx="95.4" cy="165.48" r="0.5" fill="#94a3b8" opacity="0.081" />
    <circle cx="328.45" cy="191.41" r="0.65" fill="#94a3b8" opacity="0.152" />
  </g>
  <g class="lines">
    <line class="minor-line" x1="55.56" y1="114.3" x2="81.59" y2="121.82" />
    <line class="minor-line" x1="35.0" y1="167.72" x2="64.69" y2="147.99" />
    <line class="minor-line" x1="64.69" y1="147.99" x2="88.88" y2="129.81" />
    <line class="minor-line" x1="88.88" y1="129.81" x2="116.55" y2="113.33" />
    <line class="minor-line" x1="116.55" y1="113.33" x2="111.54" y2="79.07" />
    <line class="minor-line" x1="111.54" y1="79.07" x2="156.83" y2="74.75" />
    <line class="minor-line" x1="156.83" y1="74.75" x2="166.33" y2="107.91" />
    <line class="minor-line" x1="166.33" y1="107.91" x2="116.55" y2="113.33" />
    <line class="minor-line" x1="166.33" y1="107.91" x2="187.06" y2="121.41" />
    <line class="minor-line" x1="187.06" y1="121.41" x2="209.26" y2="137.86" />
    <line class="minor-line" x1="209.26" y1="137.86" x2="234.0" y2="151.99" />
    <line class="minor-line" x1="135.33" y1="73.08" x2="150.93" y2="87.91" />
    <line class="minor-line" x1="247.58" y1="42.08" x2="271.16" y2="49.97" />
    <line class="minor-line" x1="302.73" y1="85.35" x2="328.21" y2="83.52" />
    <line class="minor-line" x1="632.92" y1="64.13" x2="660.09" y2="54.09" />
    <line class="minor-line" x1="652.26" y1="73.34" x2="678.62" y2="70.93" />
    <line class="minor-line" x1="742.63" y1="44.25" x2="762.41" y2="64.44" />
    <line class="minor-line" x1="762.41" y1="64.44" x2="778.33" y2="38.61" />
    <line class="minor-line" x1="778.33" y1="38.61" x2="742.63" y2="44.25" />
    <line class="major-line" x1="484.24" y1="45.99" x2="506.56" y2="62.96" />
    <line class="major-line" x1="506.56" y1="62.96" x2="529.64" y2="89.64" />
    <line class="major-line" x1="529.64" y1="89.64" x2="547.75" y2="105.04" />
    <line class="major-line" x1="547.75" y1="105.04" x2="536.63" y2="135.34" />
    <line class="major-line" x1="536.63" y1="135.34" x2="575.03" y2="151.16" />
    <line class="major-line" x1="575.03" y1="151.16" x2="592.5" y2="121.25" />
    <line class="major-line" x1="592.5" y1="121.25" x2="547.75" y2="105.04" />
    <line class="major-line" x1="592.5" y1="121.25" x2="616.68" y2="114.48" />
    <line class="major-line" x1="616.68" y1="114.48" x2="637.94" y2="104.0" />
    <line class="major-line" x1="637.94" y1="104.0" x2="660.8" y2="97.96" />
    <line class="major-line" x1="660.8" y1="97.96" x2="682.43" y2="86.69" />
    <line class="major-line" x1="682.43" y1="86.69" x2="708.52" y2="79.55" />
    <line class="major-line" x1="708.52" y1="79.55" x2="727.53" y2="69.01" />
    <line class="major-line" x1="727.53" y1="69.01" x2="753.03" y2="61.08" />
    <line class="major-line" x1="753.03" y1="61.08" x2="777.37" y2="51.97" />
    <line class="major-line" x1="777.37" y1="51.97" x2="798.54" y2="44.8" />
    <line class="major-line" x1="798.54" y1="44.8" x2="823.76" y2="36.08" />
    <line class="major-line" x1="823.76" y1="36.08" x2="845.0" y2="30.0" />
  </g>
  <g class="stars">
    <g class="star">
      <title>Sep 30, 2025 - 2 contributions</title>
      <circle cx="48.65" cy="110.01" r="4.5" fill="url(#starGlow)" opacity="0.11" />
      <circle class="core" cx="48.65" cy="110.01" r="1.8" fill="#dbeafe" opacity="0.74" />
    </g>
    <g class="star">
      <title>Oct 04, 2025 - 3 contributions</title>
      <circle cx="55.56" cy="114.3" r="4.5" fill="url(#starGlow)" opacity="0.14" />
      <circle class="core" cx="55.56" cy="114.3" r="1.8" fill="#dbeafe" opacity="0.79" />
    </g>
    <g class="star">
      <title>Oct 05, 2025 - 5 contributions</title>
      <circle cx="81.59" cy="121.82" r="4.5" fill="url(#starGlow)" opacity="0.17" />
      <circle class="core" cx="81.59" cy="121.82" r="1.8" fill="#ffffff" opacity="0.86" />
    </g>
    <g class="star">
      <title>Oct 07, 2025 - 3 contributions</title>
      <circle cx="35.0" cy="167.72" r="4.5" fill="url(#starGlow)" opacity="0.14" />
      <circle class="core" cx="35.0" cy="167.72" r="1.8" fill="#dbeafe" opacity="0.79" />
    </g>
    <g class="star">
      <title>Oct 08, 2025 - 4 contributions</title>
      <circle cx="64.69" cy="147.99" r="4.5" fill="url(#starGlow)" opacity="0.16" />
      <circle class="core" cx="64.69" cy="147.99" r="1.8" fill="#ffffff" opacity="0.83" />
    </g>
    <g class="star">
      <title>Oct 09, 2025 - 1 contribution</title>
      <circle class="core" cx="88.88" cy="129.81" r="1.8" fill="#dbeafe" opacity="0.67" />
    </g>
    <g class="star">
      <title>Oct 10, 2025 - 3 contributions</title>
      <circle cx="116.55" cy="113.33" r="4.5" fill="url(#starGlow)" opacity="0.14" />
      <circle class="core" cx="116.55" cy="113.33" r="1.8" fill="#dbeafe" opacity="0.79" />
    </g>
    <g class="star">
      <title>Oct 11, 2025 - 3 contributions</title>
      <circle cx="111.54" cy="79.07" r="4.5" fill="url(#starGlow)" opacity="0.14" />
      <circle class="core" cx="111.54" cy="79.07" r="1.8" fill="#dbeafe" opacity="0.79" />
    </g>
    <g class="star">
      <title>Oct 12, 2025 - 5 contributions</title>
      <circle cx="156.83" cy="74.75" r="4.5" fill="url(#starGlow)" opacity="0.17" />
      <circle class="core" cx="156.83" cy="74.75" r="1.8" fill="#ffffff" opacity="0.86" />
    </g>
    <g class="star">
      <title>Oct 13, 2025 - 1 contribution</title>
      <circle class="core" cx="166.33" cy="107.91" r="1.8" fill="#dbeafe" opacity="0.67" />
    </g>
    <g class="star">
      <title>Oct 14, 2025 - 3 contributions</title>
      <circle cx="187.06" cy="121.41" r="4.5" fill="url(#starGlow)" opacity="0.14" />
      <circle class="core" cx="187.06" cy="121.41" r="1.8" fill="#dbeafe" opacity="0.79" />
    </g>
    <g class="star">
      <title>Oct 15, 2025 - 5 contributions</title>
      <circle cx="209.26" cy="137.86" r="4.5" fill="url(#starGlow)" opacity="0.17" />
      <circle class="core" cx="209.26" cy="137.86" r="1.8" fill="#ffffff" opacity="0.86" />
    </g>
    <g class="star">
      <title>Oct 16, 2025 - 3 contributions</title>
      <circle cx="234.0" cy="151.99" r="4.5" fill="url(#starGlow)" opacity="0.14" />
      <circle class="core" cx="234.0" cy="151.99" r="1.8" fill="#dbeafe" opacity="0.79" />
    </g>
    <g class="star">
      <title>Nov 07, 2025 - 2 contributions</title>
      <circle cx="135.33" cy="73.08" r="4.5" fill="url(#starGlow)" opacity="0.11" />
      <circle class="core" cx="135.33" cy="73.08" r="1.8" fill="#dbeafe" opacity="0.74" />
    </g>
    <g class="star">
      <title>Nov 08, 2025 - 2 contributions</title>
      <circle cx="150.93" cy="87.91" r="4.5" fill="url(#starGlow)" opacity="0.11" />
      <circle class="core" cx="150.93" cy="87.91" r="1.8" fill="#dbeafe" opacity="0.74" />
    </g>
    <g class="star">
      <title>Nov 22, 2025 - 1 contribution</title>
      <circle class="core" cx="165.61" cy="126.43" r="1.8" fill="#dbeafe" opacity="0.67" />
    </g>
    <g class="star">
      <title>Nov 24, 2025 - 2 contributions</title>
      <circle cx="179.69" cy="150.27" r="4.5" fill="url(#starGlow)" opacity="0.11" />
      <circle class="core" cx="179.69" cy="150.27" r="1.8" fill="#dbeafe" opacity="0.74" />
    </g>
    <g class="star">
      <title>Nov 26, 2025 - 1 contribution</title>
      <circle class="core" cx="186.92" cy="75.79" r="1.8" fill="#dbeafe" opacity="0.67" />
    </g>
    <g class="star">
      <title>Dec 15, 2025 - 3 contributions</title>
      <circle cx="236.03" cy="57.14" r="4.5" fill="url(#starGlow)" opacity="0.14" />
      <circle class="core" cx="236.03" cy="57.14" r="1.8" fill="#dbeafe" opacity="0.79" />
    </g>
    <g class="star">
      <title>Dec 18, 2025 - 1 contribution</title>
      <circle class="core" cx="228.37" cy="54.08" r="1.8" fill="#dbeafe" opacity="0.67" />
    </g>
    <g class="star">
      <title>Dec 29, 2025 - 1 contribution</title>
      <circle class="core" cx="253.04" cy="59.65" r="1.8" fill="#dbeafe" opacity="0.67" />
    </g>
    <g class="star">
      <title>Jan 01, 2026 - 1 contribution</title>
      <circle class="core" cx="247.58" cy="42.08" r="1.8" fill="#dbeafe" opacity="0.67" />
    </g>
    <g class="star">
      <title>Jan 02, 2026 - 1 contribution</title>
      <circle class="core" cx="271.16" cy="49.97" r="1.8" fill="#dbeafe" opacity="0.67" />
    </g>
    <g class="star">
      <title>Jan 05, 2026 - 1 contribution</title>
      <circle class="core" cx="276.35" cy="78.61" r="1.8" fill="#dbeafe" opacity="0.67" />
    </g>
    <g class="star">
      <title>Jan 27, 2026 - 2 contributions</title>
      <circle cx="302.73" cy="85.35" r="4.5" fill="url(#starGlow)" opacity="0.11" />
      <circle class="core" cx="302.73" cy="85.35" r="1.8" fill="#dbeafe" opacity="0.74" />
    </g>
    <g class="star">
      <title>Jan 28, 2026 - 1 contribution</title>
      <circle class="core" cx="328.21" cy="83.52" r="1.8" fill="#dbeafe" opacity="0.67" />
    </g>
    <g class="star">
      <title>Jun 30, 2026 - 2 contributions</title>
      <circle cx="632.92" cy="64.13" r="4.5" fill="url(#starGlow)" opacity="0.11" />
      <circle class="core" cx="632.92" cy="64.13" r="1.8" fill="#dbeafe" opacity="0.74" />
    </g>
    <g class="star">
      <title>Jul 01, 2026 - 2 contributions</title>
      <circle cx="660.09" cy="54.09" r="4.5" fill="url(#starGlow)" opacity="0.11" />
      <circle class="core" cx="660.09" cy="54.09" r="1.8" fill="#dbeafe" opacity="0.74" />
    </g>
    <g class="star">
      <title>Jul 09, 2026 - 1 contribution</title>
      <circle class="core" cx="652.26" cy="73.34" r="1.8" fill="#dbeafe" opacity="0.67" />
    </g>
    <g class="star">
      <title>Jul 10, 2026 - 1 contribution</title>
      <circle class="core" cx="678.62" cy="70.93" r="1.8" fill="#dbeafe" opacity="0.67" />
    </g>
    <g class="star">
      <title>Jul 16, 2026 - 12 contributions</title>
      <circle cx="672.31" cy="50.22" r="4.5" fill="url(#starGlow)" opacity="0.25" />
      <circle class="core" cx="672.31" cy="50.22" r="1.8" fill="#ffffff" opacity="1.0" />
    </g>
    <g class="star">
      <title>Aug 22, 2026 - 3 contributions</title>
      <circle cx="742.63" cy="44.25" r="4.5" fill="url(#starGlow)" opacity="0.14" />
      <circle class="core" cx="742.63" cy="44.25" r="1.8" fill="#dbeafe" opacity="0.79" />
    </g>
    <g class="star">
      <title>Aug 23, 2026 - 1 contribution</title>
      <circle class="core" cx="762.41" cy="64.44" r="1.8" fill="#dbeafe" opacity="0.67" />
    </g>
    <g class="star">
      <title>Aug 24, 2026 - 4 contributions</title>
      <circle cx="778.33" cy="38.61" r="4.5" fill="url(#starGlow)" opacity="0.16" />
      <circle class="core" cx="778.33" cy="38.61" r="1.8" fill="#ffffff" opacity="0.83" />
    </g>
    <g class="star">
      <title>Aug 29, 2026 - 3 contributions</title>
      <circle cx="484.24" cy="45.99" r="6.5" fill="url(#majorGlow)" opacity="0.7" />
      <line class="flare" x1="477.74" y1="45.99" x2="490.74" y2="45.99" />
      <line class="flare" x1="484.24" y1="39.49" x2="484.24" y2="52.49" />
      <circle class="core" cx="484.24" cy="45.99" r="1.8" fill="#ffffff" />
    </g>
    <g class="star">
      <title>Aug 30, 2026 - 9 contributions</title>
      <circle cx="506.56" cy="62.96" r="6.5" fill="url(#majorGlow)" opacity="0.7" />
      <line class="flare" x1="500.06" y1="62.96" x2="513.06" y2="62.96" />
      <line class="flare" x1="506.56" y1="56.46" x2="506.56" y2="69.46000000000001" />
      <circle class="core" cx="506.56" cy="62.96" r="1.8" fill="#ffffff" />
    </g>
    <g class="star">
      <title>Aug 31, 2026 - 12 contributions</title>
      <circle cx="529.64" cy="89.64" r="6.5" fill="url(#majorGlow)" opacity="0.7" />
      <line class="flare" x1="523.14" y1="89.64" x2="536.14" y2="89.64" />
      <line class="flare" x1="529.64" y1="83.14" x2="529.64" y2="96.14" />
      <circle class="core" cx="529.64" cy="89.64" r="1.8" fill="#ffffff" />
    </g>
    <g class="star">
      <title>Sep 01, 2026 - 1 contribution</title>
      <circle cx="547.75" cy="105.04" r="6.5" fill="url(#majorGlow)" opacity="0.7" />
      <line class="flare" x1="541.25" y1="105.04" x2="554.25" y2="105.04" />
      <line class="flare" x1="547.75" y1="98.54" x2="547.75" y2="111.54" />
      <circle class="core" cx="547.75" cy="105.04" r="1.8" fill="#ffffff" />
    </g>
    <g class="star">
      <title>Sep 02, 2026 - 3 contributions</title>
      <circle cx="536.63" cy="135.34" r="6.5" fill="url(#majorGlow)" opacity="0.7" />
      <line class="flare" x1="530.13" y1="135.34" x2="543.13" y2="135.34" />
      <line class="flare" x1="536.63" y1="128.84" x2="536.63" y2="141.84" />
      <circle class="core" cx="536.63" cy="135.34" r="1.8" fill="#ffffff" />
    </g>
    <g class="star">
      <title>Sep 03, 2026 - 4 contributions</title>
      <circle cx="575.03" cy="151.16" r="6.5" fill="url(#majorGlow)" opacity="0.7" />
      <line class="flare" x1="568.53" y1="151.16" x2="581.53" y2="151.16" />
      <line class="flare" x1="575.03" y1="144.66" x2="575.03" y2="157.66" />
      <circle class="core" cx="575.03" cy="151.16" r="1.8" fill="#ffffff" />
    </g>
    <g class="star">
      <title>Sep 04, 2026 - 2 contributions</title>
      <circle cx="592.5" cy="121.25" r="6.5" fill="url(#majorGlow)" opacity="0.7" />
      <line class="flare" x1="586.0" y1="121.25" x2="599.0" y2="121.25" />
      <line class="flare" x1="592.5" y1="114.75" x2="592.5" y2="127.75" />
      <circle class="core" cx="592.5" cy="121.25" r="1.8" fill="#ffffff" />
    </g>
    <g class="star">
      <title>Sep 05, 2026 - 3 contributions</title>
      <circle cx="616.68" cy="114.48" r="6.5" fill="url(#majorGlow)" opacity="0.7" />
      <line class="flare" x1="610.18" y1="114.48" x2="623.18" y2="114.48" />
      <line class="flare" x1="616.68" y1="107.98" x2="616.68" y2="120.98" />
      <circle class="core" cx="616.68" cy="114.48" r="1.8" fill="#ffffff" />
    </g>
    <g class="star">
      <title>Sep 06, 2026 - 10 contributions</title>
      <circle cx="637.94" cy="104.0" r="6.5" fill="url(#majorGlow)" opacity="0.7" />
      <line class="flare" x1="631.44" y1="104.0" x2="644.44" y2="104.0" />
      <line class="flare" x1="637.94" y1="97.5" x2="637.94" y2="110.5" />
      <circle class="core" cx="637.94" cy="104.0" r="1.8" fill="#ffffff" />
    </g>
    <g class="star">
      <title>Sep 07, 2026 - 10 contributions</title>
      <circle cx="660.8" cy="97.96" r="6.5" fill="url(#majorGlow)" opacity="0.7" />
      <line class="flare" x1="654.3" y1="97.96" x2="667.3" y2="97.96" />
      <line class="flare" x1="660.8" y1="91.46" x2="660.8" y2="104.46" />
      <circle class="core" cx="660.8" cy="97.96" r="1.8" fill="#ffffff" />
    </g>
    <g class="star">
      <title>Sep 08, 2026 - 1 contribution</title>
      <circle cx="682.43" cy="86.69" r="6.5" fill="url(#majorGlow)" opacity="0.7" />
      <line class="flare" x1="675.93" y1="86.69" x2="688.93" y2="86.69" />
      <line class="flare" x1="682.43" y1="80.19" x2="682.43" y2="93.19" />
      <circle class="core" cx="682.43" cy="86.69" r="1.8" fill="#ffffff" />
    </g>
    <g class="star">
      <title>Sep 09, 2026 - 1 contribution</title>
      <circle cx="708.52" cy="79.55" r="6.5" fill="url(#majorGlow)" opacity="0.7" />
      <line class="flare" x1="702.02" y1="79.55" x2="715.02" y2="79.55" />
      <line class="flare" x1="708.52" y1="73.05" x2="708.52" y2="86.05" />
      <circle class="core" cx="708.52" cy="79.55" r="1.8" fill="#ffffff" />
    </g>
    <g class="star">
      <title>Sep 10, 2026 - 8 contributions</title>
      <circle cx="727.53" cy="69.01" r="6.5" fill="url(#majorGlow)" opacity="0.7" />
      <line class="flare" x1="721.03" y1="69.01" x2="734.03" y2="69.01" />
      <line class="flare" x1="727.53" y1="62.510000000000005" x2="727.53" y2="75.51" />
      <circle class="core" cx="727.53" cy="69.01" r="1.8" fill="#ffffff" />
    </g>
    <g class="star">
      <title>Sep 11, 2026 - 1 contribution</title>
      <circle cx="753.03" cy="61.08" r="6.5" fill="url(#majorGlow)" opacity="0.7" />
      <line class="flare" x1="746.53" y1="61.08" x2="759.53" y2="61.08" />
      <line class="flare" x1="753.03" y1="54.58" x2="753.03" y2="67.58" />
      <circle class="core" cx="753.03" cy="61.08" r="1.8" fill="#ffffff" />
    </g>
    <g class="star">
      <title>Sep 12, 2026 - 3 contributions</title>
      <circle cx="777.37" cy="51.97" r="6.5" fill="url(#majorGlow)" opacity="0.7" />
      <line class="flare" x1="770.87" y1="51.97" x2="783.87" y2="51.97" />
      <line class="flare" x1="777.37" y1="45.47" x2="777.37" y2="58.47" />
      <circle class="core" cx="777.37" cy="51.97" r="1.8" fill="#ffffff" />
    </g>
    <g class="star">
      <title>Sep 13, 2026 - 2 contributions</title>
      <circle cx="798.54" cy="44.8" r="6.5" fill="url(#majorGlow)" opacity="0.7" />
      <line class="flare" x1="792.04" y1="44.8" x2="805.04" y2="44.8" />
      <line class="flare" x1="798.54" y1="38.3" x2="798.54" y2="51.3" />
      <circle class="core" cx="798.54" cy="44.8" r="1.8" fill="#ffffff" />
    </g>
    <g class="star">
      <title>Sep 14, 2026 - 5 contributions</title>
      <circle cx="823.76" cy="36.08" r="6.5" fill="url(#majorGlow)" opacity="0.7" />
      <line class="flare" x1="817.26" y1="36.08" x2="830.26" y2="36.08" />
      <line class="flare" x1="823.76" y1="29.58" x2="823.76" y2="42.58" />
      <circle class="core" cx="823.76" cy="36.08" r="1.8" fill="#ffffff" />
    </g>
    <g class="star">
      <title>Sep 15, 2026 - 1 contribution</title>
      <circle cx="845.0" cy="30.0" r="6.5" fill="url(#majorGlow)" opacity="0.7" />
      <line class="flare" x1="838.5" y1="30.0" x2="851.5" y2="30.0" />
      <line class="flare" x1="845.0" y1="23.5" x2="845.0" y2="36.5" />
      <circle class="core" cx="845.0" cy="30.0" r="1.8" fill="#ffffff" />
    </g>
  </g>
</svg>