<svg xmlns="http://www.w3.org/2000/svg" viewBox="0 0 880 200" width="100%" height="100%" style="background: transparent;">
  <defs>
    <radialGradient id="majorGlow" cx="50%" cy="50%" r="50%">
      <stop offset="0%" stop-color="#ffffff" stop-opacity="1" />
      <stop offset="30%" stop-color="#bae6fd" stop-opacity="0.85" />
      <stop offset="70%" stop-color="#38bdf8" stop-opacity="0.35" />
      <stop offset="100%" stop-color="#0284c7" stop-opacity="0" />
    </radialGradient>
    <radialGradient id="starGlow" cx="50%" cy="50%" r="50%">
      <stop offset="0%" stop-color="#bfdbfe" stop-opacity="0.75" />
      <stop offset="100%" stop-color="#3b82f6" stop-opacity="0" />
    </radialGradient>
    <style>
      .major-line { stroke: #bae6fd; stroke-width: 0.95; stroke-opacity: 0.65; stroke-dasharray: 2.5 3; }
      .minor-line { stroke: #7dd3fc; stroke-width: 0.6; stroke-opacity: 0.25; stroke-dasharray: 2 3; }
      .flare { stroke: #ffffff; stroke-width: 0.65; stroke-opacity: 0.85; }
      .star { cursor: pointer; }
      .star:hover circle.core { fill: #ffffff !important; stroke: #38bdf8; stroke-width: 1.2px; }
    </style>
  </defs>
  <g class="dust">
    <circle cx="453.66" cy="88.57" r="0.35" fill="#94a3b8" opacity="0.044" />
    <circle cx="312.15" cy="101.25" r="0.7" fill="#94a3b8" opacity="0.163" />
    <circle cx="99.95" cy="123.35" r="0.52" fill="#94a3b8" opacity="0.166" />
    <circle cx="780.64" cy="51.59" r="0.74" fill="#94a3b8" opacity="0.102" />
    <circle cx="854.65" cy="48.63" r="0.5" fill="#94a3b8" opacity="0.059" />
    <circle cx="325.5" cy="38.02" r="0.56" fill="#94a3b8" opacity="0.143" />
    <circle cx="91.12" cy="30.87" r="0.43" fill="#94a3b8" opacity="0.155" />
    <circle cx="502.62" cy="194.92" r="0.62" fill="#94a3b8" opacity="0.049" />
    <circle cx="779.01" cy="118.53" r="0.57" fill="#94a3b8" opacity="0.102" />
    <circle cx="522.74" cy="131.08" r="0.43" fill="#94a3b8" opacity="0.059" />
    <circle cx="791.59" cy="101.81" r="0.59" fill="#94a3b8" opacity="0.171" />
    <circle cx="584.7" cy="66.41" r="0.44" fill="#94a3b8" opacity="0.193" />
    <circle cx="211.04" cy="128.16" r="0.44" fill="#94a3b8" opacity="0.084" />
    <circle cx="747.94" cy="136.18" r="0.42" fill="#94a3b8" opacity="0.1" />
    <circle cx="246.96" cy="110.75" r="0.34" fill="#94a3b8" opacity="0.125" />
    <circle cx="300.21" cy="124.01" r="0.26" fill="#94a3b8" opacity="0.1" />
    <circle cx="629.61" cy="31.7" r="0.54" fill="#94a3b8" opacity="0.103" />
    <circle cx="825.78" cy="143.12" r="0.43" fill="#94a3b8" opacity="0.134" />
    <circle cx="630.21" cy="142.87" r="0.47" fill="#94a3b8" opacity="0.152" />
    <circle cx="335.37" cy="42.49" r="0.62" fill="#94a3b8" opacity="0.09" />
    <circle cx="23.73" cy="162.11" r="0.73" fill="#94a3b8" opacity="0.143" />
    <circle cx="719.82" cy="191.44" r="0.66" fill="#94a3b8" opacity="0.162" />
    <circle cx="370.31" cy="44.7" r="0.61" fill="#94a3b8" opacity="0.086" />
    <circle cx="327.87" cy="7.39" r="0.34" fill="#94a3b8" opacity="0.154" />
    <circle cx="64.56" cy="66.86" r="0.39" fill="#94a3b8" opacity="0.134" />
    <circle cx="120.38" cy="25.47" r="0.31" fill="#94a3b8" opacity="0.132" />
    <circle cx="427.74" cy="13.17" r="0.48" fill="#94a3b8" opacity="0.126" />
    <circle cx="860.3" cy="133.02" r="0.42" fill="#94a3b8" opacity="0.212" />
    <circle cx="462.1" cy="165.03" r="0.31" fill="#94a3b8" opacity="0.081" />
    <circle cx="846.33" cy="162.12" r="0.44" fill="#94a3b8" opacity="0.058" />
    <circle cx="804.41" cy="78.06" r="0.63" fill="#94a3b8" opacity="0.125" />
    <circle cx="179.26" cy="34.58" r="0.74" fill="#94a3b8" opacity="0.175" />
    <circle cx="376.75" cy="192.91" r="0.59" fill="#94a3b8" opacity="0.136" />
    <circle cx="735.31" cy="104.81" r="0.42" fill="#94a3b8" opacity="0.144" />
    <circle cx="773.5" cy="105.21" r="0.64" fill="#94a3b8" opacity="0.17" />
    <circle cx="146.51" cy="154.02" r="0.46" fill="#94a3b8" opacity="0.06" />
    <circle cx="494.54" cy="98.21" r="0.68" fill="#94a3b8" opacity="0.075" />
    <circle cx="102.55" cy="37.7" r="0.61" fill="#94a3b8" opacity="0.065" />
    <circle cx="102.08" cy="59.91" r="0.59" fill="#94a3b8" opacity="0.067" />
    <circle cx="40.82" cy="184.88" r="0.59" fill="#94a3b8" opacity="0.213" />
    <circle cx="47.52" cy="36.26" r="0.56" fill="#94a3b8" opacity="0.209" />
    <circle cx="850.99" cy="62.47" r="0.44" fill="#94a3b8" opacity="0.172" />
    <circle cx="750.32" cy="69.09" r="0.51" fill="#94a3b8" opacity="0.171" />
    <circle cx="217.42" cy="69.22" r="0.47" fill="#94a3b8" opacity="0.113" />
    <circle cx="44.71" cy="24.23" r="0.55" fill="#94a3b8" opacity="0.178" />
    <circle cx="819.34" cy="12.92" r="0.54" fill="#94a3b8" opacity="0.21" />
    <circle cx="7.96" cy="144.98" r="0.66" fill="#94a3b8" opacity="0.098" />
    <circle cx="146.79" cy="112.82" r="0.44" fill="#94a3b8" opacity="0.139" />
    <circle cx="148.67" cy="17.72" r="0.66" fill="#94a3b8" opacity="0.061" />
    <circle cx="62.87" cy="136.47" r="0.29" fill="#94a3b8" opacity="0.104" />
    <circle cx="664.7" cy="77.45" r="0.27" fill="#94a3b8" opacity="0.189" />
    <circle cx="576.89" cy="65.96" r="0.5" fill="#94a3b8" opacity="0.18" />
    <circle cx="179.06" cy="191.97" r="0.71" fill="#94a3b8" opacity="0.101" />
    <circle cx="780.66" cy="135.73" r="0.46" fill="#94a3b8" opacity="0.118" />
    <circle cx="256.0" cy="63.09" r="0.62" fill="#94a3b8" opacity="0.185" />
    <circle cx="41.17" cy="40.94" r="0.5" fill="#94a3b8" opacity="0.189" />
    <circle cx="92.3" cy="9.17" r="0.3" fill="#94a3b8" opacity="0.072" />
    <circle cx="174.7" cy="130.01" r="0.37" fill="#94a3b8" opacity="0.152" />
    <circle cx="366.62" cy="77.26" r="0.37" fill="#94a3b8" opacity="0.064" />
    <circle cx="212.32" cy="67.81" r="0.52" fill="#94a3b8" opacity="0.069" />
    <circle cx="721.09" cy="87.96" r="0.53" fill="#94a3b8" opacity="0.083" />
    <circle cx="223.15" cy="175.39" r="0.73" fill="#94a3b8" opacity="0.098" />
    <circle cx="863.7" cy="153.27" r="0.65" fill="#94a3b8" opacity="0.133" />
    <circle cx="524.5" cy="8.48" r="0.33" fill="#94a3b8" opacity="0.118" />
    <circle cx="524.03" cy="147.49" r="0.41" fill="#94a3b8" opacity="0.083" />
    <circle cx="801.46" cy="73.91" r="0.27" fill="#94a3b8" opacity="0.114" />
    <circle cx="652.18" cy="137.25" r="0.52" fill="#94a3b8" opacity="0.133" />
    <circle cx="622.97" cy="67.23" r="0.5" fill="#94a3b8" opacity="0.124" />
    <circle cx="849.18" cy="107.42" r="0.73" fill="#94a3b8" opacity="0.189" />
    <circle cx="29.22" cy="55.97" r="0.4" fill="#94a3b8" opacity="0.084" />
    <circle cx="567.02" cy="37.05" r="0.54" fill="#94a3b8" opacity="0.114" />
    <circle cx="200.63" cy="114.95" r="0.42" fill="#94a3b8" opacity="0.205" />
    <circle cx="688.94" cy="80.37" r="0.27" fill="#94a3b8" opacity="0.214" />
    <circle cx="357.65" cy="168.88" r="0.34" fill="#94a3b8" opacity="0.125" />
    <circle cx="756.37" cy="151.0" r="0.45" fill="#94a3b8" opacity="0.102" />
    <circle cx="635.36" cy="36.71" r="0.37" fill="#94a3b8" opacity="0.168" />
    <circle cx="794.02" cy="10.97" r="0.36" fill="#94a3b8" opacity="0.102" />
    <circle cx="93.06" cy="168.73" r="0.66" fill="#94a3b8" opacity="0.119" />
    <circle cx="266.91" cy="29.92" r="0.57" fill="#94a3b8" opacity="0.108" />
    <circle cx="516.26" cy="8.32" r="0.43" fill="#94a3b8" opacity="0.126" />
    <circle cx="72.11" cy="32.02" r="0.59" fill="#94a3b8" opacity="0.063" />
    <circle cx="237.32" cy="124.01" r="0.31" fill="#94a3b8" opacity="0.08" />
    <circle cx="300.95" cy="132.1" r="0.47" fill="#94a3b8" opacity="0.14" />
    <circle cx="329.31" cy="33.62" r="0.54" fill="#94a3b8" opacity="0.21" />
    <circle cx="858.95" cy="45.91" r="0.72" fill="#94a3b8" opacity="0.199" />
    <circle cx="270.85" cy="48.08" r="0.43" fill="#94a3b8" opacity="0.185" />
    <circle cx="148.97" cy="17.85" r="0.43" fill="#94a3b8" opacity="0.204" />
    <circle cx="453.31" cy="79.86" r="0.25" fill="#94a3b8" opacity="0.162" />
    <circle cx="189.4" cy="29.82" r="0.27" fill="#94a3b8" opacity="0.097" />
    <circle cx="176.47" cy="56.66" r="0.54" fill="#94a3b8" opacity="0.153" />
    <circle cx="355.03" cy="111.84" r="0.34" fill="#94a3b8" opacity="0.102" />
    <circle cx="758.84" cy="50.2" r="0.47" fill="#94a3b8" opacity="0.153" />
    <circle cx="679.56" cy="78.87" r="0.48" fill="#94a3b8" opacity="0.041" />
    <circle cx="23.24" cy="107.39" r="0.56" fill="#94a3b8" opacity="0.182" />
    <circle cx="548.22" cy="183.96" r="0.7" fill="#94a3b8" opacity="0.169" />
    <circle cx="42.41" cy="11.8" r="0.46" fill="#94a3b8" opacity="0.185" />
    <circle cx="646.53" cy="6.42" r="0.56" fill="#94a3b8" opacity="0.217" />
    <circle cx="643.65" cy="127.32" r="0.7" fill="#94a3b8" opacity="0.073" />
    <circle cx="658.65" cy="47.88" r="0.63" fill="#94a3b8" opacity="0.168" />
    <circle cx="602.48" cy="54.83" r="0.44" fill="#94a3b8" opacity="0.178" />
    <circle cx="201.69" cy="133.78" r="0.71" fill="#94a3b8" opacity="0.047" />
    <circle cx="110.08" cy="139.29" r="0.59" fill="#94a3b8" opacity="0.178" />
    <circle cx="159.42" cy="21.73" r="0.47" fill="#94a3b8" opacity="0.153" />
    <circle cx="571.47" cy="33.95" r="0.53" fill="#94a3b8" opacity="0.154" />
    <circle cx="429.79" cy="34.39" r="0.49" fill="#94a3b8" opacity="0.144" />
    <circle cx="61.29" cy="194.14" r="0.3" fill="#94a3b8" opacity="0.109" />
    <circle cx="589.88" cy="189.15" r="0.42" fill="#94a3b8" opacity="0.081" />
    <circle cx="560.18" cy="63.08" r="0.63" fill="#94a3b8" opacity="0.077" />
    <circle cx="784.29" cy="88.28" r="0.68" fill="#94a3b8" opacity="0.144" />
    <circle cx="354.11" cy="160.72" r="0.62" fill="#94a3b8" opacity="0.143" />
    <circle cx="492.98" cy="111.98" r="0.48" fill="#94a3b8" opacity="0.185" />
    <circle cx="786.86" cy="105.42" r="0.29" fill="#94a3b8" opacity="0.168" />
    <circle cx="181.47" cy="145.74" r="0.65" fill="#94a3b8" opacity="0.101" />
    <circle cx="636.05" cy="17.88" r="0.57" fill="#94a3b8" opacity="0.175" />
    <circle cx="243.55" cy="21.71" r="0.37" fill="#94a3b8" opacity="0.081" />
    <circle cx="68.01" cy="43.43" r="0.64" fill="#94a3b8" opacity="0.084" />
    <circle cx="644.37" cy="62.75" r="0.3" fill="#94a3b8" opacity="0.09" />
    <circle cx="533.4" cy="119.26" r="0.4" fill="#94a3b8" opacity="0.122" />
    <circle cx="779.64" cy="164.66" r="0.65" fill="#94a3b8" opacity="0.086" />
    <circle cx="434.18" cy="161.49" r="0.28" fill="#94a3b8" opacity="0.107" />
    <circle cx="113.35" cy="93.45" r="0.32" fill="#94a3b8" opacity="0.066" />
    <circle cx="541.0" cy="108.65" r="0.65" fill="#94a3b8" opacity="0.106" />
    <circle cx="277.22" cy="151.57" r="0.39" fill="#94a3b8" opacity="0.134" />
    <circle cx="43.12" cy="140.59" r="0.29" fill="#94a3b8" opacity="0.097" />
    <circle cx="310.85" cy="143.2" r="0.32" fill="#94a3b8" opacity="0.06" />
    <circle cx="690.04" cy="181.03" r="0.28" fill="#94a3b8" opacity="0.126" />
    <circle cx="537.89" cy="180.29" r="0.75" fill="#94a3b8" opacity="0.083" />
    <circle cx="283.91" cy="118.32" r="0.65" fill="#94a3b8" opacity="0.181" />
    <circle cx="552.2" cy="136.54" r="0.54" fill="#94a3b8" opacity="0.083" />
    <circle cx="727.13" cy="57.8" r="0.32" fill="#94a3b8" opacity="0.054" />
    <circle cx="338.01" cy="12.29" r="0.59" fill="#94a3b8" opacity="0.142" />
    <circle cx="846.54" cy="55.24" r="0.54" fill="#94a3b8" opacity="0.212" />
    <circle cx="225.77" cy="164.8" r="0.7" fill="#94a3b8" opacity="0.09" />
    <circle cx="524.25" cy="128.11" r="0.62" fill="#94a3b8" opacity="0.101" />
    <circle cx="798.67" cy="35.58" r="0.42" fill="#94a3b8" opacity="0.047" />
    <circle cx="734.99" cy="111.18" r="0.7" fill="#94a3b8" opacity="0.088" />
    <circle cx="396.3" cy="105.78" r="0.39" fill="#94a3b8" opacity="0.088" />
    <circle cx="221.37" cy="102.84" r="0.64" fill="#94a3b8" opacity="0.091" />
    <circle cx="163.28" cy="191.78" r="0.25" fill="#94a3b8" opacity="0.139" />
    <circle cx="868.67" cy="49.74" r="0.75" fill="#94a3b8" opacity="0.098" />
    <circle cx="42.91" cy="98.07" r="0.47" fill="#94a3b8" opacity="0.074" />
    <circle cx="167.99" cy="71.69" r="0.51" fill="#94a3b8" opacity="0.173" />
    <circle cx="627.23" cy="92.38" r="0.66" fill="#94a3b8" opacity="0.12" />
    <circle cx="273.43" cy="111.9" r="0.48" fill="#94a3b8" opacity="0.207" />
    <circle cx="71.12" cy="14.38" r="0.26" fill="#94a3b8" opacity="0.094" />
    <circle cx="402.19" cy="103.88" r="0.72" fill="#94a3b8" opacity="0.101" />
    <circle cx="396.73" cy="53.96" r="0.32" fill="#94a3b8" opacity="0.085" />
    <circle cx="78.18" cy="91.43" r="0.7" fill="#94a3b8" opacity="0.058" />
    <circle cx="234.08" cy="119.48" r="0.62" fill="#94a3b8" opacity="0.079" />
    <circle cx="412.51" cy="193.32" r="0.27" fill="#94a3b8" opacity="0.112" />
    <circle cx="516.32" cy="21.65" r="0.47" fill="#94a3b8" opacity="0.086" />
    <circle cx="183.66" cy="133.86" r="0.29" fill="#94a3b8" opacity="0.078" />
    <circle cx="134.57" cy="65.4" r="0.68" fill="#94a3b8" opacity="0.169" />
    <circle cx="802.56" cy="48.62" r="0.39" fill="#94a3b8" opacity="0.152" />
    <circle cx="801.83" cy="156.61" r="0.47" fill="#94a3b8" opacity="0.153" />
    <circle cx="358.08" cy="7.47" r="0.56" fill="#94a3b8" opacity="0.108" />
    <circle cx="351.54" cy="141.15" r="0.43" fill="#94a3b8" opacity="0.049" />
    <circle cx="194.37" cy="49.99" r="0.68" fill="#94a3b8" opacity="0.122" />
    <circle cx="22.97" cy="149.72" r="0.52" fill="#94a3b8" opacity="0.131" />
    <circle cx="817.79" cy="120.67" r="0.54" fill="#94a3b8" opacity="0.087" />
    <circle cx="555.53" cy="17.29" r="0.34" fill="#94a3b8" opacity="0.192" />
    <circle cx="523.22" cy="12.55" r="0.63" fill="#94a3b8" opacity="0.149" />
    <circle cx="29.51" cy="8.43" r="0.41" fill="#94a3b8" opacity="0.198" />
    <circle cx="664.23" cy="82.86" r="0.31" fill="#94a3b8" opacity="0.048" />
    <circle cx="168.82" cy="194.82" r="0.6" fill="#94a3b8" opacity="0.098" />
    <circle cx="849.3" cy="74.9" r="0.36" fill="#94a3b8" opacity="0.089" />
    <circle cx="833.48" cy="87.34" r="0.54" fill="#94a3b8" opacity="0.127" />
    <circle cx="312.05" cy="186.37" r="0.27" fill="#94a3b8" opacity="0.117" />
    <circle cx="589.58" cy="79.53" r="0.41" fill="#94a3b8" opacity="0.202" />
    <circle cx="243.85" cy="40.18" r="0.74" fill="#94a3b8" opacity="0.082" />
    <circle cx="120.36" cy="118.43" r="0.5" fill="#94a3b8" opacity="0.095" />
    <circle cx="49.68" cy="106.24" r="0.39" fill="#94a3b8" opacity="0.21" />
    <circle cx="827.74" cy="168.94" r="0.56" fill="#94a3b8" opacity="0.2" />
    <circle cx="364.8" cy="90.24" r="0.35" fill="#94a3b8" opacity="0.073" />
    <circle cx="85.55" cy="128.71" r="0.71" fill="#94a3b8" opacity="0.171" />
    <circle cx="610.91" cy="84.81" r="0.44" fill="#94a3b8" opacity="0.174" />
    <circle cx="845.66" cy="14.89" r="0.68" fill="#94a3b8" opacity="0.14" />
    <circle cx="19.43" cy="41.42" r="0.68" fill="#94a3b8" opacity="0.104" />
    <circle cx="572.63" cy="57.75" r="0.31" fill="#94a3b8" opacity="0.114" />
    <circle cx="203.01" cy="141.8" r="0.46" fill="#94a3b8" opacity="0.197" />
    <circle cx="873.46" cy="120.9" r="0.42" fill="#94a3b8" opacity="0.11" />
    <circle cx="6.01" cy="131.74" r="0.3" fill="#94a3b8" opacity="0.075" />
    <circle cx="362.42" cy="18.99" r="0.25" fill="#94a3b8" opacity="0.108" />
    <circle cx="146.86" cy="78.03" r="0.62" fill="#94a3b8" opacity="0.189" />
    <circle cx="119.65" cy="67.7" r="0.31" fill="#94a3b8" opacity="0.09" />
    <circle cx="726.27" cy="46.97" r="0.47" fill="#94a3b8" opacity="0.043" />
    <circle cx="215.73" cy="133.93" r="0.73" fill="#94a3b8" opacity="0.181" />
    <circle cx="625.93" cy="191.27" r="0.42" fill="#94a3b8" opacity="0.201" />
    <circle cx="358.07" cy="114.14" r="0.43" fill="#94a3b8" opacity="0.173" />
    <circle cx="837.19" cy="185.8" r="0.54" fill="#94a3b8" opacity="0.083" />
    <circle cx="573.41" cy="41.54" r="0.4" fill="#94a3b8" opacity="0.045" />
    <circle cx="334.66" cy="156.85" r="0.28" fill="#94a3b8" opacity="0.066" />
    <circle cx="376.67" cy="183.77" r="0.27" fill="#94a3b8" opacity="0.116" />
    <circle cx="322.37" cy="166.51" r="0.52" fill="#94a3b8" opacity="0.189" />
    <circle cx="58.28" cy="139.17" r="0.44" fill="#94a3b8" opacity="0.069" />
    <circle cx="153.59" cy="8.6" r="0.31" fill="#94a3b8" opacity="0.05" />
    <circle cx="172.45" cy="107.28" r="0.39" fill="#94a3b8" opacity="0.193" />
    <circle cx="578.5" cy="133.67" r="0.53" fill="#94a3b8" opacity="0.163" />
    <circle cx="569.75" cy="128.33" r="0.49" fill="#94a3b8" opacity="0.126" />
    <circle cx="492.33" cy="10.71" r="0.29" fill="#94a3b8" opacity="0.055" />
    <circle cx="50.44" cy="146.75" r="0.28" fill="#94a3b8" opacity="0.111" />
    <circle cx="831.51" cy="156.68" r="0.51" fill="#94a3b8" opacity="0.197" />
    <circle cx="784.24" cy="44.09" r="0.69" fill="#94a3b8" opacity="0.213" />
    <circle cx="334.89" cy="59.36" r="0.64" fill="#94a3b8" opacity="0.154" />
    <circle cx="659.02" cy="118.7" r="0.6" fill="#94a3b8" opacity="0.218" />
    <circle cx="643.97" cy="71.2" r="0.38" fill="#94a3b8" opacity="0.068" />
    <circle cx="292.53" cy="47.89" r="0.48" fill="#94a3b8" opacity="0.096" />
    <circle cx="418.68" cy="107.85" r="0.59" fill="#94a3b8" opacity="0.194" />
    <circle cx="597.2" cy="89.52" r="0.61" fill="#94a3b8" opacity="0.214" />
    <circle cx="313.84" cy="43.19" r="0.43" fill="#94a3b8" opacity="0.146" />
    <circle cx="415.52" cy="171.75" r="0.69" fill="#94a3b8" opacity="0.116" />
    <circle cx="689.33" cy="182.86" r="0.74" fill="#94a3b8" opacity="0.208" />
    <circle cx="23.63" cy="129.26" r="0.5" fill="#94a3b8" opacity="0.119" />
    <circle cx="574.79" cy="105.76" r="0.46" fill="#94a3b8" opacity="0.102" />
    <circle cx="221.32" cy="122.98" r="0.34" fill="#94a3b8" opacity="0.113" />
    <circle cx="613.56" cy="165.34" r="0.75" fill="#94a3b8" opacity="0.042" />
    <circle cx="395.19" cy="144.76" r="0.63" fill="#94a3b8" opacity="0.192" />
    <circle cx="683.33" cy="61.79" r="0.46" fill="#94a3b8" opacity="0.216" />
    <circle cx="326.36" cy="99.33" r="0.3" fill="#94a3b8" opacity="0.149" />
    <circle cx="390.6" cy="60.24" r="0.3" fill="#94a3b8" opacity="0.085" />
    <circle cx="619.03" cy="65.54" r="0.72" fill="#94a3b8" opacity="0.094" />
    <circle cx="790.4" cy="108.58" r="0.47" fill="#94a3b8" opacity="0.094" />
    <circle cx="507.2" cy="36.05" r="0.41" fill="#94a3b8" opacity="0.209" />
    <circle cx="51.88" cy="124.16" r="0.51" fill="#94a3b8" opacity="0.194" />
    <circle cx="781.45" cy="102.1" r="0.54" fill="#94a3b8" opacity="0.21" />
    <circle cx="376.95" cy="134.78" r="0.52" fill="#94a3b8" opacity="0.2" />
    <circle cx="647.13" cy="68.0" r="0.25" fill="#94a3b8" opacity="0.194" />
    <circle cx="241.35" cy="55.75" r="0.3" fill="#94a3b8" opacity="0.151" />
    <circle cx="795.85" cy="92.68" r="0.35" fill="#94a3b8" opacity="0.15" />
    <circle cx="266.69" cy="103.79" r="0.47" fill="#94a3b8" opacity="0.136" />
    <circle cx="747.66" cy="7.58" r="0.67" fill="#94a3b8" opacity="0.142" />
    <circle cx="271.41" cy="156.93" r="0.64" fill="#94a3b8" opacity="0.175" />
    <circle cx="98.22" cy="84.63" r="0.41" fill="#94a3b8" opacity="0.178" />
    <circle cx="263.93" cy="80.77" r="0.65" fill="#94a3b8" opacity="0.144" />
    <circle cx="636.1" cy="81.83" r="0.28" fill="#94a3b8" opacity="0.061" />
    <circle cx="83.49" cy="75.69" r="0.6" fill="#94a3b8" opacity="0.197" />
    <circle cx="394.09" cy="38.63" r="0.54" fill="#94a3b8" opacity="0.194" />
    <circle cx="30.68" cy="98.9" r="0.26" fill="#94a3b8" opacity="0.117" />
    <circle cx="718.69" cy="130.67" r="0.44" fill="#94a3b8" opacity="0.149" />
    <circle cx="635.34" cy="78.28" r="0.57" fill="#94a3b8" opacity="0.144" />
    <circle cx="34.45" cy="128.24" r="0.28" fill="#94a3b8" opacity="0.095" />
    <circle cx="490.35" cy="133.42" r="0.37" fill="#94a3b8" opacity="0.071" />
    <circle cx="707.37" cy="120.21" r="0.45" fill="#94a3b8" opacity="0.103" />
    <circle cx="698.75" cy="167.45" r="0.38" fill="#94a3b8" opacity="0.078" />
    <circle cx="154.68" cy="72.26" r="0.61" fill="#94a3b8" opacity="0.164" />
    <circle cx="159.55" cy="74.12" r="0.49" fill="#94a3b8" opacity="0.167" />
    <circle cx="726.72" cy="158.18" r="0.34" fill="#94a3b8" opacity="0.111" />
    <circle cx="268.6" cy="5.78" r="0.67" fill="#94a3b8" opacity="0.108" />
    <circle cx="38.19" cy="10.71" r="0.47" fill="#94a3b8" opacity="0.053" />
    <circle cx="777.57" cy="29.99" r="0.44" fill="#94a3b8" opacity="0.193" />
    <circle cx="39.52" cy="174.78" r="0.75" fill="#94a3b8" opacity="0.177" />
    <circle cx="309.53" cy="33.37" r="0.71" fill="#94a3b8" opacity="0.051" />
    <circle cx="29.18" cy="71.99" r="0.5" fill="#94a3b8" opacity="0.191" />
    <circle cx="683.04" cy="183.65" r="0.28" fill="#94a3b8" opacity="0.146" />
    <circle cx="440.24" cy="27.98" r="0.31" fill="#94a3b8" opacity="0.124" />
    <circle cx="313.25" cy="77.2" r="0.46" fill="#94a3b8" opacity="0.212" />
    <circle cx="733.2" cy="74.51" r="0.58" fill="#94a3b8" opacity="0.132" />
    <circle cx="326.21" cy="58.02" r="0.55" fill="#94a3b8" opacity="0.175" />
    <circle cx="646.77" cy="13.06" r="0.31" fill="#94a3b8" opacity="0.127" />
    <circle cx="427.71" cy="18.27" r="0.28" fill="#94a3b8" opacity="0.076" />
    <circle cx="789.02" cy="50.49" r="0.58" fill="#94a3b8" opacity="0.086" />
    <circle cx="35.6" cy="74.81" r="0.32" fill="#94a3b8" opacity="0.127" />
    <circle cx="389.02" cy="89.26" r="0.31" fill="#94a3b8" opacity="0.186" />
    <circle cx="723.15" cy="128.77" r="0.54" fill="#94a3b8" opacity="0.185" />
    <circle cx="198.31" cy="101.43" r="0.39" fill="#94a3b8" opacity="0.137" />
    <circle cx="388.37" cy="112.28" r="0.34" fill="#94a3b8" opacity="0.102" />
    <circle cx="695.81" cy="5.97" r="0.43" fill="#94a3b8" opacity="0.193" />
    <circle cx="379.99" cy="113.35" r="0.26" fill="#94a3b8" opacity="0.131" />
    <circle cx="633.54" cy="28.39" r="0.57" fill="#94a3b8" opacity="0.075" />
    <circle cx="873.13" cy="164.91" r="0.56" fill="#94a3b8" opacity="0.048" />
    <circle cx="183.94" cy="109.98" r="0.49" fill="#94a3b8" opacity="0.133" />
    <circle cx="326.28" cy="186.94" r="0.46" fill="#94a3b8" opacity="0.113" />
    <circle cx="650.89" cy="6.24" r="0.65" fill="#94a3b8" opacity="0.056" />
    <circle cx="599.21" cy="8.38" r="0.4" fill="#94a3b8" opacity="0.145" />
    <circle cx="207.31" cy="56.05" r="0.72" fill="#94a3b8" opacity="0.057" />
    <circle cx="210.15" cy="194.19" r="0.4" fill="#94a3b8" opacity="0.101" />
    <circle cx="381.2" cy="130.59" r="0.37" fill="#94a3b8" opacity="0.186" />
    <circle cx="212.78" cy="14.21" r="0.36" fill="#94a3b8" opacity="0.097" />
    <circle cx="761.8" cy="114.56" r="0.5" fill="#94a3b8" opacity="0.2" />
    <circle cx="625.51" cy="116.06" r="0.63" fill="#94a3b8" opacity="0.106" />
  </g>
  <g class="lines">
    <line class="minor-line" x1="35.0" y1="62.34" x2="61.0" y2="76.63" />
    <line class="minor-line" x1="61.0" y1="76.63" x2="86.93" y2="91.7" />
    <line class="minor-line" x1="86.93" y1="91.7" x2="109.15" y2="104.5" />
    <line class="minor-line" x1="109.15" y1="104.5" x2="104.65" y2="134.27" />
    <line class="minor-line" x1="104.65" y1="134.27" x2="144.81" y2="139.56" />
    <line class="minor-line" x1="144.81" y1="139.56" x2="154.44" y2="108.3" />
    <line class="minor-line" x1="154.44" y1="108.3" x2="109.15" y2="104.5" />
    <line class="minor-line" x1="154.44" y1="108.3" x2="174.11" y2="93.83" />
    <line class="minor-line" x1="174.11" y1="93.83" x2="190.4" y2="80.01" />
    <line class="minor-line" x1="190.4" y1="80.01" x2="208.37" y2="65.09" />
    <line class="minor-line" x1="114.71" y1="112.97" x2="141.15" y2="108.12" />
    <line class="minor-line" x1="230.65" y1="90.01" x2="254.0" y2="73.57" />
    <line class="minor-line" x1="288.18" y1="122.67" x2="300.14" y2="136.17" />
    <line class="minor-line" x1="596.8" y1="71.53" x2="619.88" y2="85.62" />
    <line class="minor-line" x1="619.35" y1="123.91" x2="638.81" y2="137.11" />
    <line class="minor-line" x1="700.42" y1="66.64" x2="722.19" y2="73.57" />
    <line class="minor-line" x1="722.19" y1="73.57" x2="727.6" y2="52.52" />
    <line class="minor-line" x1="727.6" y1="52.52" x2="700.42" y2="66.64" />
    <line class="major-line" x1="507.53" y1="161.32" x2="537.08" y2="178.02" />
    <line class="major-line" x1="537.08" y1="178.02" x2="560.8" y2="188.66" />
    <line class="major-line" x1="560.8" y1="188.66" x2="590.19" y2="200.58" />
    <line class="major-line" x1="590.19" y1="200.58" x2="585.54" y2="234.84" />
    <line class="major-line" x1="585.54" y1="234.84" x2="627.54" y2="235.47" />
    <line class="major-line" x1="627.54" y1="235.47" x2="635.48" y2="202.06" />
    <line class="major-line" x1="635.48" y1="202.06" x2="590.19" y2="200.58" />
    <line class="major-line" x1="635.48" y1="202.06" x2="655.54" y2="186.65" />
    <line class="major-line" x1="655.54" y1="186.65" x2="674.36" y2="172.26" />
    <line class="major-line" x1="674.36" y1="172.26" x2="693.84" y2="157.12" />
    <line class="major-line" x1="693.84" y1="157.12" x2="712.74" y2="139.85" />
    <line class="major-line" x1="712.74" y1="139.85" x2="728.58" y2="126.81" />
    <line class="major-line" x1="728.58" y1="126.81" x2="750.5" y2="110.34" />
    <line class="major-line" x1="750.5" y1="110.34" x2="767.31" y2="92.05" />
    <line class="major-line" x1="767.31" y1="92.05" x2="786.51" y2="79.15" />
    <line class="major-line" x1="786.51" y1="79.15" x2="804.13" y2="61.93" />
    <line class="major-line" x1="804.13" y1="61.93" x2="825.54" y2="46.6" />
    <line class="major-line" x1="825.54" y1="46.6" x2="845.0" y2="30.0" />
  </g>
  <g class="stars">
    <g class="star">
      <title>Oct 05, 2025 - 5 contributions</title>
      <circle cx="61.44" cy="78.13" r="4.5" fill="url(#starGlow)" opacity="0.17" />
      <circle class="core" cx="61.44" cy="78.13" r="1.8" fill="#ffffff" opacity="0.86" />
    </g>
    <g class="star">
      <title>Oct 07, 2025 - 3 contributions</title>
      <circle cx="35.0" cy="62.34" r="4.5" fill="url(#starGlow)" opacity="0.14" />
      <circle class="core" cx="35.0" cy="62.34" r="1.8" fill="#dbeafe" opacity="0.79" />
    </g>
    <g class="star">
      <title>Oct 08, 2025 - 4 contributions</title>
      <circle cx="61.0" cy="76.63" r="4.5" fill="url(#starGlow)" opacity="0.16" />
      <circle class="core" cx="61.0" cy="76.63" r="1.8" fill="#ffffff" opacity="0.83" />
    </g>
    <g class="star">
      <title>Oct 09, 2025 - 1 contribution</title>
      <circle class="core" cx="86.93" cy="91.7" r="1.8" fill="#dbeafe" opacity="0.67" />
    </g>
    <g class="star">
      <title>Oct 10, 2025 - 3 contributions</title>
      <circle cx="109.15" cy="104.5" r="4.5" fill="url(#starGlow)" opacity="0.14" />
      <circle class="core" cx="109.15" cy="104.5" r="1.8" fill="#dbeafe" opacity="0.79" />
    </g>
    <g class="star">
      <title>Oct 11, 2025 - 3 contributions</title>
      <circle cx="104.65" cy="134.27" r="4.5" fill="url(#starGlow)" opacity="0.14" />
      <circle class="core" cx="104.65" cy="134.27" r="1.8" fill="#dbeafe" opacity="0.79" />
    </g>
    <g class="star">
      <title>Oct 12, 2025 - 5 contributions</title>
      <circle cx="144.81" cy="139.56" r="4.5" fill="url(#starGlow)" opacity="0.17" />
      <circle class="core" cx="144.81" cy="139.56" r="1.8" fill="#ffffff" opacity="0.86" />
    </g>
    <g class="star">
      <title>Oct 13, 2025 - 1 contribution</title>
      <circle class="core" cx="154.44" cy="108.3" r="1.8" fill="#dbeafe" opacity="0.67" />
    </g>
    <g class="star">
      <title>Oct 14, 2025 - 3 contributions</title>
      <circle cx="174.11" cy="93.83" r="4.5" fill="url(#starGlow)" opacity="0.14" />
      <circle class="core" cx="174.11" cy="93.83" r="1.8" fill="#dbeafe" opacity="0.79" />
    </g>
    <g class="star">
      <title>Oct 15, 2025 - 5 contributions</title>
      <circle cx="190.4" cy="80.01" r="4.5" fill="url(#starGlow)" opacity="0.17" />
      <circle class="core" cx="190.4" cy="80.01" r="1.8" fill="#ffffff" opacity="0.86" />
    </g>
    <g class="star">
      <title>Oct 16, 2025 - 3 contributions</title>
      <circle cx="208.37" cy="65.09" r="4.5" fill="url(#starGlow)" opacity="0.14" />
      <circle class="core" cx="208.37" cy="65.09" r="1.8" fill="#dbeafe" opacity="0.79" />
    </g>
    <g class="star">
      <title>Nov 07, 2025 - 2 contributions</title>
      <circle cx="114.71" cy="112.97" r="4.5" fill="url(#starGlow)" opacity="0.11" />
      <circle class="core" cx="114.71" cy="112.97" r="1.8" fill="#dbeafe" opacity="0.74" />
    </g>
    <g class="star">
      <title>Nov 08, 2025 - 2 contributions</title>
      <circle cx="141.15" cy="108.12" r="4.5" fill="url(#starGlow)" opacity="0.11" />
      <circle class="core" cx="141.15" cy="108.12" r="1.8" fill="#dbeafe" opacity="0.74" />
    </g>
    <g class="star">
      <title>Nov 22, 2025 - 1 contribution</title>
      <circle class="core" cx="152.2" cy="97.24" r="1.8" fill="#dbeafe" opacity="0.67" />
    </g>
    <g class="star">
      <title>Nov 24, 2025 - 2 contributions</title>
      <circle cx="174.63" cy="117.81" r="4.5" fill="url(#starGlow)" opacity="0.11" />
      <circle class="core" cx="174.63" cy="117.81" r="1.8" fill="#dbeafe" opacity="0.74" />
    </g>
    <g class="star">
      <title>Nov 26, 2025 - 1 contribution</title>
      <circle class="core" cx="163.71" cy="130.6" r="1.8" fill="#dbeafe" opacity="0.67" />
    </g>
    <g class="star">
      <title>Dec 15, 2025 - 3 contributions</title>
      <circle cx="217.05" cy="110.7" r="4.5" fill="url(#starGlow)" opacity="0.14" />
      <circle class="core" cx="217.05" cy="110.7" r="1.8" fill="#dbeafe" opacity="0.79" />
    </g>
    <g class="star">
      <title>Dec 18, 2025 - 1 contribution</title>
      <circle class="core" cx="200.1" cy="140.04" r="1.8" fill="#dbeafe" opacity="0.67" />
    </g>
    <g class="star">
      <title>Dec 29, 2025 - 1 contribution</title>
      <circle class="core" cx="228.48" cy="35.71" r="1.8" fill="#dbeafe" opacity="0.67" />
    </g>
    <g class="star">
      <title>Jan 01, 2026 - 1 contribution</title>
      <circle class="core" cx="230.65" cy="90.01" r="1.8" fill="#dbeafe" opacity="0.67" />
    </g>
    <g class="star">
      <title>Jan 02, 2026 - 1 contribution</title>
      <circle class="core" cx="254.0" cy="73.57" r="1.8" fill="#dbeafe" opacity="0.67" />
    </g>
    <g class="star">
      <title>Jan 05, 2026 - 1 contribution</title>
      <circle class="core" cx="245.82" cy="82.39" r="1.8" fill="#dbeafe" opacity="0.67" />
    </g>
    <g class="star">
      <title>Jan 27, 2026 - 2 contributions</title>
      <circle cx="288.18" cy="122.67" r="4.5" fill="url(#starGlow)" opacity="0.11" />
      <circle class="core" cx="288.18" cy="122.67" r="1.8" fill="#dbeafe" opacity="0.74" />
    </g>
    <g class="star">
      <title>Jan 28, 2026 - 1 contribution</title>
      <circle class="core" cx="300.14" cy="136.17" r="1.8" fill="#dbeafe" opacity="0.67" />
    </g>
    <g class="star">
      <title>Jun 30, 2026 - 2 contributions</title>
      <circle cx="596.8" cy="71.53" r="4.5" fill="url(#starGlow)" opacity="0.11" />
      <circle class="core" cx="596.8" cy="71.53" r="1.8" fill="#dbeafe" opacity="0.74" />
    </g>
    <g class="star">
      <title>Jul 01, 2026 - 2 contributions</title>
      <circle cx="619.88" cy="85.62" r="4.5" fill="url(#starGlow)" opacity="0.11" />
      <circle class="core" cx="619.88" cy="85.62" r="1.8" fill="#dbeafe" opacity="0.74" />
    </g>
    <g class="star">
      <title>Jul 09, 2026 - 1 contribution</title>
      <circle class="core" cx="619.35" cy="123.91" r="1.8" fill="#dbeafe" opacity="0.67" />
    </g>
    <g class="star">
      <title>Jul 10, 2026 - 1 contribution</title>
      <circle class="core" cx="638.81" cy="137.11" r="1.8" fill="#dbeafe" opacity="0.67" />
    </g>
    <g class="star">
      <title>Jul 16, 2026 - 12 contributions</title>
      <circle cx="652.81" cy="46.78" r="4.5" fill="url(#starGlow)" opacity="0.25" />
      <circle class="core" cx="652.81" cy="46.78" r="1.8" fill="#ffffff" opacity="1.0" />
    </g>
    <g class="star">
      <title>Aug 22, 2026 - 3 contributions</title>
      <circle cx="700.42" cy="66.64" r="4.5" fill="url(#starGlow)" opacity="0.14" />
      <circle class="core" cx="700.42" cy="66.64" r="1.8" fill="#dbeafe" opacity="0.79" />
    </g>
    <g class="star">
      <title>Aug 23, 2026 - 1 contribution</title>
      <circle class="core" cx="722.19" cy="73.57" r="1.8" fill="#dbeafe" opacity="0.67" />
    </g>
    <g class="star">
      <title>Aug 24, 2026 - 4 contributions</title>
      <circle cx="727.6" cy="52.52" r="4.5" fill="url(#starGlow)" opacity="0.16" />
      <circle class="core" cx="727.6" cy="52.52" r="1.8" fill="#ffffff" opacity="0.83" />
    </g>
    <g class="star">
      <title>Aug 29, 2026 - 3 contributions</title>
      <circle cx="507.53" cy="161.32" r="6.5" fill="url(#majorGlow)" opacity="0.7" />
      <line class="flare" x1="501.03" y1="161.32" x2="514.03" y2="161.32" />
      <line class="flare" x1="507.53" y1="154.82" x2="507.53" y2="167.82" />
      <circle class="core" cx="507.53" cy="161.32" r="1.8" fill="#ffffff" />
    </g>
    <g class="star">
      <title>Aug 30, 2026 - 9 contributions</title>
      <circle cx="537.08" cy="178.02" r="6.5" fill="url(#majorGlow)" opacity="0.7" />
      <line class="flare" x1="530.58" y1="178.02" x2="543.58" y2="178.02" />
      <line class="flare" x1="537.08" y1="171.52" x2="537.08" y2="184.52" />
      <circle class="core" cx="537.08" cy="178.02" r="1.8" fill="#ffffff" />
    </g>
    <g class="star">
      <title>Aug 31, 2026 - 12 contributions</title>
      <circle cx="560.8" cy="188.66" r="6.5" fill="url(#majorGlow)" opacity="0.7" />
      <line class="flare" x1="554.3" y1="188.66" x2="567.3" y2="188.66" />
      <line class="flare" x1="560.8" y1="182.16" x2="560.8" y2="195.16" />
      <circle class="core" cx="560.8" cy="188.66" r="1.8" fill="#ffffff" />
    </g>
    <g class="star">
      <title>Sep 01, 2026 - 1 contribution</title>
      <circle cx="590.19" cy="200.58" r="6.5" fill="url(#majorGlow)" opacity="0.7" />
      <line class="flare" x1="583.69" y1="200.58" x2="596.69" y2="200.58" />
      <line class="flare" x1="590.19" y1="194.08" x2="590.19" y2="207.08" />
      <circle class="core" cx="590.19" cy="200.58" r="1.8" fill="#ffffff" />
    </g>
    <g class="star">
      <title>Sep 02, 2026 - 3 contributions</title>
      <circle cx="585.54" cy="234.84" r="6.5" fill="url(#majorGlow)" opacity="0.7" />
      <line class="flare" x1="579.04" y1="234.84" x2="592.04" y2="234.84" />
      <line class="flare" x1="585.54" y1="228.34" x2="585.54" y2="241.34" />
      <circle class="core" cx="585.54" cy="234.84" r="1.8" fill="#ffffff" />
    </g>
    <g class="star">
      <title>Sep 03, 2026 - 4 contributions</title>
      <circle cx="627.54" cy="235.47" r="6.5" fill="url(#majorGlow)" opacity="0.7" />
      <line class="flare" x1="621.04" y1="235.47" x2="634.04" y2="235.47" />
      <line class="flare" x1="627.54" y1="228.97" x2="627.54" y2="241.97" />
      <circle class="core" cx="627.54" cy="235.47" r="1.8" fill="#ffffff" />
    </g>
    <g class="star">
      <title>Sep 04, 2026 - 2 contributions</title>
      <circle cx="635.48" cy="202.06" r="6.5" fill="url(#majorGlow)" opacity="0.7" />
      <line class="flare" x1="628.98" y1="202.06" x2="641.98" y2="202.06" />
      <line class="flare" x1="635.48" y1="195.56" x2="635.48" y2="208.56" />
      <circle class="core" cx="635.48" cy="202.06" r="1.8" fill="#ffffff" />
    </g>
    <g class="star">
      <title>Sep 05, 2026 - 3 contributions</title>
      <circle cx="655.54" cy="186.65" r="6.5" fill="url(#majorGlow)" opacity="0.7" />
      <line class="flare" x1="649.04" y1="186.65" x2="662.04" y2="186.65" />
      <line class="flare" x1="655.54" y1="180.15" x2="655.54" y2="193.15" />
      <circle class="core" cx="655.54" cy="186.65" r="1.8" fill="#ffffff" />
    </g>
    <g class="star">
      <title>Sep 06, 2026 - 10 contributions</title>
      <circle cx="674.36" cy="172.26" r="6.5" fill="url(#majorGlow)" opacity="0.7" />
      <line class="flare" x1="667.86" y1="172.26" x2="680.86" y2="172.26" />
      <line class="flare" x1="674.36" y1="165.76" x2="674.36" y2="178.76" />
      <circle class="core" cx="674.36" cy="172.26" r="1.8" fill="#ffffff" />
    </g>
    <g class="star">
      <title>Sep 07, 2026 - 10 contributions</title>
      <circle cx="693.84" cy="157.12" r="6.5" fill="url(#majorGlow)" opacity="0.7" />
      <line class="flare" x1="687.34" y1="157.12" x2="700.34" y2="157.12" />
      <line class="flare" x1="693.84" y1="150.62" x2="693.84" y2="163.62" />
      <circle class="core" cx="693.84" cy="157.12" r="1.8" fill="#ffffff" />
    </g>
    <g class="star">
      <title>Sep 08, 2026 - 1 contribution</title>
      <circle cx="712.74" cy="139.85" r="6.5" fill="url(#majorGlow)" opacity="0.7" />
      <line class="flare" x1="706.24" y1="139.85" x2="719.24" y2="139.85" />
      <line class="flare" x1="712.74" y1="133.35" x2="712.74" y2="146.35" />
      <circle class="core" cx="712.74" cy="139.85" r="1.8" fill="#ffffff" />
    </g>
    <g class="star">
      <title>Sep 09, 2026 - 1 contribution</title>
      <circle cx="728.58" cy="126.81" r="6.5" fill="url(#majorGlow)" opacity="0.7" />
      <line class="flare" x1="722.08" y1="126.81" x2="735.08" y2="126.81" />
      <line class="flare" x1="728.58" y1="120.31" x2="728.58" y2="133.31" />
      <circle class="core" cx="728.58" cy="126.81" r="1.8" fill="#ffffff" />
    </g>
    <g class="star">
      <title>Sep 10, 2026 - 8 contributions</title>
      <circle cx="750.5" cy="110.34" r="6.5" fill="url(#majorGlow)" opacity="0.7" />
      <line class="flare" x1="744.0" y1="110.34" x2="757.0" y2="110.34" />
      <line class="flare" x1="750.5" y1="103.84" x2="750.5" y2="116.84" />
      <circle class="core" cx="750.5" cy="110.34" r="1.8" fill="#ffffff" />
    </g>
    <g class="star">
      <title>Sep 11, 2026 - 1 contribution</title>
      <circle cx="767.31" cy="92.05" r="6.5" fill="url(#majorGlow)" opacity="0.7" />
      <line class="flare" x1="760.81" y1="92.05" x2="773.81" y2="92.05" />
      <line class="flare" x1="767.31" y1="85.55" x2="767.31" y2="98.55" />
      <circle class="core" cx="767.31" cy="92.05" r="1.8" fill="#ffffff" />
    </g>
    <g class="star">
      <title>Sep 12, 2026 - 3 contributions</title>
      <circle cx="786.51" cy="79.15" r="6.5" fill="url(#majorGlow)" opacity="0.7" />
      <line class="flare" x1="780.01" y1="79.15" x2="793.01" y2="79.15" />
      <line class="flare" x1="786.51" y1="72.65" x2="786.51" y2="85.65" />
      <circle class="core" cx="786.51" cy="79.15" r="1.8" fill="#ffffff" />
    </g>
    <g class="star">
      <title>Sep 13, 2026 - 2 contributions</title>
      <circle cx="804.13" cy="61.93" r="6.5" fill="url(#majorGlow)" opacity="0.7" />
      <line class="flare" x1="797.63" y1="61.93" x2="810.63" y2="61.93" />
      <line class="flare" x1="804.13" y1="55.43" x2="804.13" y2="68.43" />
      <circle class="core" cx="804.13" cy="61.93" r="1.8" fill="#ffffff" />
    </g>
    <g class="star">
      <title>Sep 14, 2026 - 5 contributions</title>
      <circle cx="825.54" cy="46.6" r="6.5" fill="url(#majorGlow)" opacity="0.7" />
      <line class="flare" x1="819.04" y1="46.6" x2="832.04" y2="46.6" />
      <line class="flare" x1="825.54" y1="40.1" x2="825.54" y2="53.1" />
      <circle class="core" cx="825.54" cy="46.6" r="1.8" fill="#ffffff" />
    </g>
    <g class="star">
      <title>Sep 15, 2026 - 1 contribution</title>
      <circle cx="845.0" cy="30.0" r="6.5" fill="url(#majorGlow)" opacity="0.7" />
      <line class="flare" x1="838.5" y1="30.0" x2="851.5" y2="30.0" />
      <line class="flare" x1="845.0" y1="23.5" x2="845.0" y2="36.5" />
      <circle class="core" cx="845.0" cy="30.0" r="1.8" fill="#ffffff" />
    </g>
    <g class="star">
      <title>Oct 05, 2026 - 9 contributions</title>
      <circle cx="799.96" cy="151.31" r="4.5" fill="url(#starGlow)" opacity="0.22" />
      <circle class="core" cx="799.96" cy="151.31" r="1.8" fill="#ffffff" opacity="0.95" />
    </g>
    <g class="star">
      <title>Oct 07, 2026 - 9 contributions</title>
      <circle cx="808.55" cy="81.54" r="4.5" fill="url(#starGlow)" opacity="0.22" />
      <circle class="core" cx="808.55" cy="81.54" r="1.8" fill="#ffffff" opacity="0.95" />
    </g>
  </g>
</svg>