<svg xmlns="http://www.w3.org/2000/svg" viewBox="0 0 880 200" width="100%" height="100%" style="background: transparent;">
  <defs>
    <radialGradient id="majorGlow" cx="50%" cy="50%" r="50%">
      <stop offset="0%" stop-color="#ffffff" stop-opacity="1" />
      <stop offset="30%" stop-color="#bae6fd" stop-opacity="0.85" />
      <stop offset="70%" stop-color="#38bdf8" stop-opacity="0.35" />
      <stop offset="100%" stop-color="#0284c7" stop-opacity="0" />
    </radialGradient>
    <radialGradient id="starGlow" cx="50%" cy="50%" r="50%">
      <stop offset="0%" stop-color="#bfdbfe" stop-opacity="0.75" />
      <stop offset="100%" stop-color="#3b82f6" stop-opacity="0" />
    </radialGradient>
    <style>
      .major-line { stroke: #bae6fd; stroke-width: 0.95; stroke-opacity: 0.65; stroke-dasharray: 2.5 3; }
      .minor-line { stroke: #7dd3fc; stroke-width: 0.6; stroke-opacity: 0.25; stroke-dasharray: 2 3; }
      .flare { stroke: #ffffff; stroke-width: 0.65; stroke-opacity: 0.85; }
      .star { cursor: pointer; }
      .star:hover circle.core { fill: #ffffff !important; stroke: #38bdf8; stroke-width: 1.2px; }
    </style>
  </defs>
  <g class="dust">
    <circle cx="180.36" cy="35.93" r="0.29" fill="#94a3b8" opacity="0.133" />
    <circle cx="281.14" cy="142.51" r="0.51" fill="#94a3b8" opacity="0.113" />
    <circle cx="356.46" cy="191.08" r="0.72" fill="#94a3b8" opacity="0.196" />
    <circle cx="639.94" cy="111.19" r="0.66" fill="#94a3b8" opacity="0.185" />
    <circle cx="104.09" cy="44.14" r="0.61" fill="#94a3b8" opacity="0.089" />
    <circle cx="743.03" cy="118.89" r="0.33" fill="#94a3b8" opacity="0.187" />
    <circle cx="814.95" cy="145.95" r="0.35" fill="#94a3b8" opacity="0.109" />
    <circle cx="418.0" cy="126.46" r="0.35" fill="#94a3b8" opacity="0.182" />
    <circle cx="507.3" cy="162.8" r="0.39" fill="#94a3b8" opacity="0.171" />
    <circle cx="839.43" cy="35.1" r="0.31" fill="#94a3b8" opacity="0.056" />
    <circle cx="620.42" cy="87.43" r="0.66" fill="#94a3b8" opacity="0.122" />
    <circle cx="76.85" cy="78.51" r="0.51" fill="#94a3b8" opacity="0.211" />
    <circle cx="173.38" cy="164.8" r="0.56" fill="#94a3b8" opacity="0.047" />
    <circle cx="212.43" cy="138.42" r="0.47" fill="#94a3b8" opacity="0.19" />
    <circle cx="802.89" cy="153.81" r="0.43" fill="#94a3b8" opacity="0.056" />
    <circle cx="79.64" cy="171.72" r="0.43" fill="#94a3b8" opacity="0.138" />
    <circle cx="503.64" cy="180.64" r="0.25" fill="#94a3b8" opacity="0.186" />
    <circle cx="405.38" cy="190.99" r="0.27" fill="#94a3b8" opacity="0.21" />
    <circle cx="642.16" cy="137.43" r="0.66" fill="#94a3b8" opacity="0.063" />
    <circle cx="714.35" cy="124.68" r="0.73" fill="#94a3b8" opacity="0.21" />
    <circle cx="674.1" cy="108.02" r="0.54" fill="#94a3b8" opacity="0.115" />
    <circle cx="279.66" cy="169.98" r="0.42" fill="#94a3b8" opacity="0.057" />
    <circle cx="373.79" cy="100.59" r="0.68" fill="#94a3b8" opacity="0.141" />
    <circle cx="814.68" cy="152.81" r="0.73" fill="#94a3b8" opacity="0.126" />
    <circle cx="116.71" cy="72.47" r="0.75" fill="#94a3b8" opacity="0.212" />
    <circle cx="613.65" cy="8.04" r="0.37" fill="#94a3b8" opacity="0.062" />
    <circle cx="236.11" cy="26.36" r="0.32" fill="#94a3b8" opacity="0.218" />
    <circle cx="733.4" cy="130.85" r="0.3" fill="#94a3b8" opacity="0.068" />
    <circle cx="701.31" cy="8.97" r="0.42" fill="#94a3b8" opacity="0.159" />
    <circle cx="628.14" cy="124.3" r="0.65" fill="#94a3b8" opacity="0.074" />
    <circle cx="672.64" cy="190.4" r="0.59" fill="#94a3b8" opacity="0.123" />
    <circle cx="457.16" cy="182.83" r="0.72" fill="#94a3b8" opacity="0.089" />
    <circle cx="288.42" cy="57.08" r="0.72" fill="#94a3b8" opacity="0.043" />
    <circle cx="750.25" cy="119.47" r="0.6" fill="#94a3b8" opacity="0.217" />
    <circle cx="358.04" cy="140.82" r="0.6" fill="#94a3b8" opacity="0.197" />
    <circle cx="289.89" cy="146.09" r="0.66" fill="#94a3b8" opacity="0.107" />
    <circle cx="201.46" cy="55.9" r="0.39" fill="#94a3b8" opacity="0.211" />
    <circle cx="471.75" cy="87.41" r="0.72" fill="#94a3b8" opacity="0.17" />
    <circle cx="570.82" cy="20.01" r="0.31" fill="#94a3b8" opacity="0.178" />
    <circle cx="258.2" cy="155.82" r="0.42" fill="#94a3b8" opacity="0.065" />
    <circle cx="89.27" cy="97.42" r="0.28" fill="#94a3b8" opacity="0.09" />
    <circle cx="655.42" cy="80.29" r="0.72" fill="#94a3b8" opacity="0.18" />
    <circle cx="401.54" cy="20.44" r="0.32" fill="#94a3b8" opacity="0.168" />
    <circle cx="93.61" cy="139.76" r="0.44" fill="#94a3b8" opacity="0.188" />
    <circle cx="488.75" cy="79.08" r="0.7" fill="#94a3b8" opacity="0.078" />
    <circle cx="586.87" cy="92.46" r="0.48" fill="#94a3b8" opacity="0.173" />
    <circle cx="755.05" cy="75.98" r="0.66" fill="#94a3b8" opacity="0.177" />
    <circle cx="599.59" cy="156.94" r="0.74" fill="#94a3b8" opacity="0.139" />
    <circle cx="203.05" cy="176.63" r="0.69" fill="#94a3b8" opacity="0.201" />
    <circle cx="365.83" cy="47.42" r="0.38" fill="#94a3b8" opacity="0.086" />
    <circle cx="833.07" cy="56.08" r="0.39" fill="#94a3b8" opacity="0.211" />
    <circle cx="420.13" cy="110.04" r="0.58" fill="#94a3b8" opacity="0.131" />
    <circle cx="791.98" cy="193.16" r="0.53" fill="#94a3b8" opacity="0.121" />
    <circle cx="727.37" cy="176.55" r="0.64" fill="#94a3b8" opacity="0.085" />
    <circle cx="455.6" cy="41.54" r="0.7" fill="#94a3b8" opacity="0.141" />
    <circle cx="225.84" cy="78.36" r="0.54" fill="#94a3b8" opacity="0.147" />
    <circle cx="139.41" cy="61.25" r="0.29" fill="#94a3b8" opacity="0.122" />
    <circle cx="517.58" cy="135.42" r="0.35" fill="#94a3b8" opacity="0.047" />
    <circle cx="593.2" cy="136.21" r="0.49" fill="#94a3b8" opacity="0.194" />
    <circle cx="674.78" cy="171.15" r="0.5" fill="#94a3b8" opacity="0.111" />
    <circle cx="119.25" cy="69.29" r="0.66" fill="#94a3b8" opacity="0.216" />
    <circle cx="655.05" cy="169.45" r="0.3" fill="#94a3b8" opacity="0.19" />
    <circle cx="760.49" cy="81.64" r="0.67" fill="#94a3b8" opacity="0.045" />
    <circle cx="221.7" cy="70.98" r="0.39" fill="#94a3b8" opacity="0.087" />
    <circle cx="626.46" cy="84.17" r="0.52" fill="#94a3b8" opacity="0.177" />
    <circle cx="123.45" cy="113.3" r="0.42" fill="#94a3b8" opacity="0.087" />
    <circle cx="375.13" cy="109.88" r="0.58" fill="#94a3b8" opacity="0.05" />
    <circle cx="303.54" cy="167.06" r="0.4" fill="#94a3b8" opacity="0.135" />
    <circle cx="343.61" cy="6.29" r="0.39" fill="#94a3b8" opacity="0.053" />
    <circle cx="632.97" cy="124.66" r="0.29" fill="#94a3b8" opacity="0.057" />
    <circle cx="742.24" cy="185.56" r="0.39" fill="#94a3b8" opacity="0.103" />
    <circle cx="44.2" cy="159.59" r="0.56" fill="#94a3b8" opacity="0.147" />
    <circle cx="259.49" cy="26.87" r="0.71" fill="#94a3b8" opacity="0.143" />
    <circle cx="857.82" cy="179.19" r="0.72" fill="#94a3b8" opacity="0.114" />
    <circle cx="770.71" cy="179.93" r="0.66" fill="#94a3b8" opacity="0.156" />
    <circle cx="728.47" cy="57.88" r="0.48" fill="#94a3b8" opacity="0.184" />
    <circle cx="715.52" cy="147.8" r="0.62" fill="#94a3b8" opacity="0.22" />
    <circle cx="352.1" cy="98.33" r="0.58" fill="#94a3b8" opacity="0.194" />
    <circle cx="510.97" cy="31.16" r="0.34" fill="#94a3b8" opacity="0.1" />
    <circle cx="566.64" cy="108.52" r="0.64" fill="#94a3b8" opacity="0.197" />
    <circle cx="211.42" cy="75.18" r="0.28" fill="#94a3b8" opacity="0.175" />
    <circle cx="574.3" cy="12.01" r="0.52" fill="#94a3b8" opacity="0.143" />
    <circle cx="108.46" cy="66.81" r="0.26" fill="#94a3b8" opacity="0.119" />
    <circle cx="553.84" cy="30.52" r="0.62" fill="#94a3b8" opacity="0.149" />
    <circle cx="270.44" cy="43.93" r="0.53" fill="#94a3b8" opacity="0.113" />
    <circle cx="160.29" cy="64.55" r="0.74" fill="#94a3b8" opacity="0.044" />
    <circle cx="229.77" cy="13.31" r="0.64" fill="#94a3b8" opacity="0.163" />
    <circle cx="396.57" cy="153.81" r="0.57" fill="#94a3b8" opacity="0.076" />
    <circle cx="28.75" cy="10.08" r="0.49" fill="#94a3b8" opacity="0.17" />
    <circle cx="256.13" cy="40.06" r="0.61" fill="#94a3b8" opacity="0.129" />
    <circle cx="655.82" cy="141.1" r="0.61" fill="#94a3b8" opacity="0.057" />
    <circle cx="533.53" cy="28.74" r="0.69" fill="#94a3b8" opacity="0.117" />
    <circle cx="861.14" cy="119.25" r="0.64" fill="#94a3b8" opacity="0.06" />
    <circle cx="91.42" cy="155.75" r="0.39" fill="#94a3b8" opacity="0.083" />
    <circle cx="282.4" cy="105.18" r="0.35" fill="#94a3b8" opacity="0.083" />
    <circle cx="520.83" cy="132.49" r="0.61" fill="#94a3b8" opacity="0.189" />
    <circle cx="108.43" cy="17.31" r="0.49" fill="#94a3b8" opacity="0.144" />
    <circle cx="39.76" cy="87.34" r="0.3" fill="#94a3b8" opacity="0.053" />
    <circle cx="823.24" cy="59.04" r="0.31" fill="#94a3b8" opacity="0.09" />
    <circle cx="249.32" cy="104.14" r="0.38" fill="#94a3b8" opacity="0.061" />
    <circle cx="450.32" cy="27.45" r="0.57" fill="#94a3b8" opacity="0.087" />
    <circle cx="649.13" cy="23.33" r="0.31" fill="#94a3b8" opacity="0.22" />
    <circle cx="57.08" cy="65.47" r="0.46" fill="#94a3b8" opacity="0.111" />
    <circle cx="13.58" cy="172.37" r="0.26" fill="#94a3b8" opacity="0.091" />
    <circle cx="163.82" cy="120.29" r="0.56" fill="#94a3b8" opacity="0.199" />
    <circle cx="800.67" cy="169.21" r="0.41" fill="#94a3b8" opacity="0.165" />
    <circle cx="49.35" cy="118.98" r="0.66" fill="#94a3b8" opacity="0.08" />
    <circle cx="169.28" cy="93.26" r="0.49" fill="#94a3b8" opacity="0.165" />
    <circle cx="31.14" cy="67.77" r="0.72" fill="#94a3b8" opacity="0.185" />
    <circle cx="167.94" cy="135.14" r="0.55" fill="#94a3b8" opacity="0.174" />
    <circle cx="600.63" cy="22.89" r="0.33" fill="#94a3b8" opacity="0.05" />
    <circle cx="566.03" cy="66.96" r="0.59" fill="#94a3b8" opacity="0.187" />
    <circle cx="383.91" cy="47.25" r="0.46" fill="#94a3b8" opacity="0.137" />
    <circle cx="805.29" cy="150.27" r="0.32" fill="#94a3b8" opacity="0.209" />
    <circle cx="44.53" cy="49.75" r="0.64" fill="#94a3b8" opacity="0.185" />
    <circle cx="643.37" cy="138.61" r="0.48" fill="#94a3b8" opacity="0.127" />
    <circle cx="481.47" cy="63.68" r="0.5" fill="#94a3b8" opacity="0.156" />
    <circle cx="341.59" cy="135.61" r="0.44" fill="#94a3b8" opacity="0.073" />
    <circle cx="487.15" cy="178.09" r="0.65" fill="#94a3b8" opacity="0.111" />
    <circle cx="871.24" cy="155.67" r="0.46" fill="#94a3b8" opacity="0.065" />
    <circle cx="351.39" cy="38.0" r="0.35" fill="#94a3b8" opacity="0.145" />
    <circle cx="382.3" cy="141.68" r="0.29" fill="#94a3b8" opacity="0.206" />
    <circle cx="718.38" cy="100.7" r="0.69" fill="#94a3b8" opacity="0.217" />
    <circle cx="409.25" cy="169.8" r="0.62" fill="#94a3b8" opacity="0.129" />
    <circle cx="298.82" cy="143.1" r="0.66" fill="#94a3b8" opacity="0.209" />
    <circle cx="442.05" cy="52.97" r="0.28" fill="#94a3b8" opacity="0.08" />
    <circle cx="621.3" cy="34.57" r="0.45" fill="#94a3b8" opacity="0.048" />
    <circle cx="374.63" cy="148.21" r="0.5" fill="#94a3b8" opacity="0.182" />
    <circle cx="373.03" cy="15.6" r="0.55" fill="#94a3b8" opacity="0.086" />
    <circle cx="290.71" cy="72.41" r="0.6" fill="#94a3b8" opacity="0.164" />
    <circle cx="821.43" cy="153.81" r="0.31" fill="#94a3b8" opacity="0.131" />
    <circle cx="24.6" cy="139.27" r="0.62" fill="#94a3b8" opacity="0.188" />
    <circle cx="673.72" cy="51.58" r="0.28" fill="#94a3b8" opacity="0.106" />
    <circle cx="207.77" cy="179.35" r="0.72" fill="#94a3b8" opacity="0.216" />
    <circle cx="59.94" cy="32.41" r="0.35" fill="#94a3b8" opacity="0.202" />
    <circle cx="15.16" cy="193.54" r="0.66" fill="#94a3b8" opacity="0.122" />
    <circle cx="430.32" cy="81.25" r="0.29" fill="#94a3b8" opacity="0.154" />
    <circle cx="275.11" cy="184.22" r="0.34" fill="#94a3b8" opacity="0.045" />
    <circle cx="874.32" cy="171.66" r="0.34" fill="#94a3b8" opacity="0.198" />
    <circle cx="25.54" cy="95.18" r="0.49" fill="#94a3b8" opacity="0.211" />
    <circle cx="476.58" cy="55.14" r="0.47" fill="#94a3b8" opacity="0.069" />
    <circle cx="807.83" cy="161.46" r="0.41" fill="#94a3b8" opacity="0.113" />
    <circle cx="469.04" cy="124.79" r="0.56" fill="#94a3b8" opacity="0.11" />
    <circle cx="562.67" cy="19.7" r="0.36" fill="#94a3b8" opacity="0.105" />
    <circle cx="480.16" cy="147.81" r="0.41" fill="#94a3b8" opacity="0.144" />
    <circle cx="810.72" cy="9.87" r="0.5" fill="#94a3b8" opacity="0.145" />
    <circle cx="786.81" cy="83.25" r="0.72" fill="#94a3b8" opacity="0.094" />
    <circle cx="120.78" cy="59.18" r="0.49" fill="#94a3b8" opacity="0.075" />
    <circle cx="408.71" cy="86.58" r="0.67" fill="#94a3b8" opacity="0.12" />
    <circle cx="781.6" cy="150.23" r="0.38" fill="#94a3b8" opacity="0.105" />
    <circle cx="679.2" cy="46.63" r="0.36" fill="#94a3b8" opacity="0.208" />
    <circle cx="369.64" cy="194.06" r="0.72" fill="#94a3b8" opacity="0.119" />
    <circle cx="638.87" cy="172.48" r="0.39" fill="#94a3b8" opacity="0.069" />
    <circle cx="310.22" cy="98.56" r="0.39" fill="#94a3b8" opacity="0.171" />
    <circle cx="159.03" cy="111.29" r="0.26" fill="#94a3b8" opacity="0.088" />
    <circle cx="667.65" cy="54.0" r="0.72" fill="#94a3b8" opacity="0.136" />
    <circle cx="864.33" cy="27.91" r="0.62" fill="#94a3b8" opacity="0.06" />
    <circle cx="138.42" cy="190.75" r="0.27" fill="#94a3b8" opacity="0.182" />
    <circle cx="705.26" cy="174.33" r="0.71" fill="#94a3b8" opacity="0.173" />
    <circle cx="788.24" cy="186.11" r="0.54" fill="#94a3b8" opacity="0.176" />
    <circle cx="29.47" cy="84.91" r="0.68" fill="#94a3b8" opacity="0.116" />
    <circle cx="167.5" cy="128.47" r="0.37" fill="#94a3b8" opacity="0.066" />
    <circle cx="581.6" cy="124.11" r="0.33" fill="#94a3b8" opacity="0.193" />
    <circle cx="369.69" cy="35.36" r="0.34" fill="#94a3b8" opacity="0.073" />
    <circle cx="335.16" cy="92.21" r="0.45" fill="#94a3b8" opacity="0.089" />
    <circle cx="610.13" cy="67.9" r="0.41" fill="#94a3b8" opacity="0.121" />
    <circle cx="23.62" cy="117.13" r="0.73" fill="#94a3b8" opacity="0.049" />
    <circle cx="249.6" cy="58.17" r="0.49" fill="#94a3b8" opacity="0.203" />
    <circle cx="199.59" cy="83.98" r="0.73" fill="#94a3b8" opacity="0.203" />
    <circle cx="692.61" cy="165.59" r="0.32" fill="#94a3b8" opacity="0.161" />
    <circle cx="735.88" cy="104.17" r="0.67" fill="#94a3b8" opacity="0.052" />
    <circle cx="784.99" cy="129.44" r="0.34" fill="#94a3b8" opacity="0.149" />
    <circle cx="643.49" cy="70.47" r="0.66" fill="#94a3b8" opacity="0.192" />
    <circle cx="668.4" cy="69.96" r="0.42" fill="#94a3b8" opacity="0.137" />
    <circle cx="311.29" cy="87.83" r="0.66" fill="#94a3b8" opacity="0.199" />
    <circle cx="271.91" cy="173.16" r="0.65" fill="#94a3b8" opacity="0.11" />
    <circle cx="468.49" cy="167.52" r="0.45" fill="#94a3b8" opacity="0.091" />
    <circle cx="19.59" cy="161.82" r="0.49" fill="#94a3b8" opacity="0.112" />
    <circle cx="595.62" cy="150.66" r="0.35" fill="#94a3b8" opacity="0.209" />
    <circle cx="727.48" cy="174.31" r="0.38" fill="#94a3b8" opacity="0.127" />
    <circle cx="639.79" cy="166.53" r="0.27" fill="#94a3b8" opacity="0.062" />
    <circle cx="656.22" cy="128.55" r="0.34" fill="#94a3b8" opacity="0.166" />
    <circle cx="400.51" cy="29.11" r="0.51" fill="#94a3b8" opacity="0.081" />
    <circle cx="12.41" cy="147.77" r="0.47" fill="#94a3b8" opacity="0.162" />
    <circle cx="593.93" cy="40.64" r="0.7" fill="#94a3b8" opacity="0.098" />
    <circle cx="526.97" cy="46.48" r="0.62" fill="#94a3b8" opacity="0.209" />
    <circle cx="762.07" cy="112.28" r="0.26" fill="#94a3b8" opacity="0.114" />
    <circle cx="9.09" cy="20.55" r="0.73" fill="#94a3b8" opacity="0.09" />
    <circle cx="508.88" cy="70.93" r="0.54" fill="#94a3b8" opacity="0.192" />
    <circle cx="467.16" cy="126.5" r="0.28" fill="#94a3b8" opacity="0.141" />
    <circle cx="449.11" cy="61.39" r="0.54" fill="#94a3b8" opacity="0.115" />
    <circle cx="655.39" cy="149.63" r="0.53" fill="#94a3b8" opacity="0.107" />
    <circle cx="598.59" cy="146.22" r="0.67" fill="#94a3b8" opacity="0.133" />
    <circle cx="551.05" cy="70.35" r="0.59" fill="#94a3b8" opacity="0.123" />
    <circle cx="691.19" cy="28.5" r="0.69" fill="#94a3b8" opacity="0.139" />
    <circle cx="235.88" cy="41.92" r="0.73" fill="#94a3b8" opacity="0.17" />
    <circle cx="739.85" cy="64.84" r="0.62" fill="#94a3b8" opacity="0.173" />
    <circle cx="640.18" cy="169.4" r="0.71" fill="#94a3b8" opacity="0.043" />
    <circle cx="307.32" cy="24.09" r="0.74" fill="#94a3b8" opacity="0.183" />
    <circle cx="601.94" cy="64.23" r="0.45" fill="#94a3b8" opacity="0.186" />
    <circle cx="598.22" cy="48.98" r="0.51" fill="#94a3b8" opacity="0.11" />
    <circle cx="292.87" cy="31.44" r="0.6" fill="#94a3b8" opacity="0.218" />
    <circle cx="412.99" cy="142.9" r="0.61" fill="#94a3b8" opacity="0.136" />
    <circle cx="154.17" cy="186.65" r="0.65" fill="#94a3b8" opacity="0.13" />
    <circle cx="226.46" cy="18.75" r="0.44" fill="#94a3b8" opacity="0.116" />
    <circle cx="860.97" cy="31.57" r="0.26" fill="#94a3b8" opacity="0.18" />
    <circle cx="192.83" cy="177.06" r="0.6" fill="#94a3b8" opacity="0.067" />
    <circle cx="89.07" cy="142.24" r="0.45" fill="#94a3b8" opacity="0.052" />
    <circle cx="296.26" cy="182.94" r="0.27" fill="#94a3b8" opacity="0.166" />
    <circle cx="276.6" cy="107.93" r="0.39" fill="#94a3b8" opacity="0.072" />
    <circle cx="337.23" cy="125.26" r="0.56" fill="#94a3b8" opacity="0.209" />
    <circle cx="651.57" cy="123.9" r="0.42" fill="#94a3b8" opacity="0.044" />
    <circle cx="26.32" cy="43.67" r="0.51" fill="#94a3b8" opacity="0.13" />
    <circle cx="704.42" cy="93.94" r="0.29" fill="#94a3b8" opacity="0.067" />
    <circle cx="556.56" cy="107.24" r="0.31" fill="#94a3b8" opacity="0.154" />
    <circle cx="196.58" cy="138.4" r="0.55" fill="#94a3b8" opacity="0.16" />
    <circle cx="178.86" cy="14.46" r="0.67" fill="#94a3b8" opacity="0.141" />
    <circle cx="77.99" cy="151.66" r="0.71" fill="#94a3b8" opacity="0.055" />
    <circle cx="232.04" cy="95.8" r="0.35" fill="#94a3b8" opacity="0.119" />
    <circle cx="206.07" cy="45.58" r="0.37" fill="#94a3b8" opacity="0.18" />
    <circle cx="498.76" cy="38.37" r="0.32" fill="#94a3b8" opacity="0.082" />
    <circle cx="786.82" cy="35.78" r="0.7" fill="#94a3b8" opacity="0.11" />
    <circle cx="736.63" cy="53.4" r="0.28" fill="#94a3b8" opacity="0.095" />
    <circle cx="401.64" cy="11.85" r="0.33" fill="#94a3b8" opacity="0.084" />
    <circle cx="795.41" cy="169.94" r="0.74" fill="#94a3b8" opacity="0.082" />
    <circle cx="190.74" cy="21.55" r="0.42" fill="#94a3b8" opacity="0.06" />
    <circle cx="750.74" cy="110.57" r="0.7" fill="#94a3b8" opacity="0.191" />
    <circle cx="38.99" cy="194.55" r="0.39" fill="#94a3b8" opacity="0.131" />
    <circle cx="594.56" cy="91.07" r="0.54" fill="#94a3b8" opacity="0.134" />
    <circle cx="357.05" cy="137.42" r="0.7" fill="#94a3b8" opacity="0.105" />
    <circle cx="321.94" cy="98.39" r="0.55" fill="#94a3b8" opacity="0.048" />
    <circle cx="253.41" cy="177.77" r="0.53" fill="#94a3b8" opacity="0.192" />
    <circle cx="788.68" cy="124.54" r="0.6" fill="#94a3b8" opacity="0.075" />
    <circle cx="106.61" cy="131.38" r="0.36" fill="#94a3b8" opacity="0.184" />
    <circle cx="348.47" cy="97.0" r="0.44" fill="#94a3b8" opacity="0.093" />
    <circle cx="237.91" cy="164.94" r="0.36" fill="#94a3b8" opacity="0.106" />
    <circle cx="780.08" cy="23.66" r="0.41" fill="#94a3b8" opacity="0.057" />
    <circle cx="159.26" cy="194.75" r="0.63" fill="#94a3b8" opacity="0.144" />
    <circle cx="763.03" cy="171.66" r="0.66" fill="#94a3b8" opacity="0.172" />
    <circle cx="149.66" cy="109.12" r="0.74" fill="#94a3b8" opacity="0.101" />
    <circle cx="811.08" cy="102.42" r="0.7" fill="#94a3b8" opacity="0.069" />
    <circle cx="264.11" cy="6.75" r="0.57" fill="#94a3b8" opacity="0.164" />
    <circle cx="498.75" cy="148.16" r="0.68" fill="#94a3b8" opacity="0.215" />
    <circle cx="638.6" cy="28.42" r="0.44" fill="#94a3b8" opacity="0.045" />
    <circle cx="463.59" cy="17.95" r="0.68" fill="#94a3b8" opacity="0.188" />
    <circle cx="333.36" cy="84.84" r="0.26" fill="#94a3b8" opacity="0.122" />
    <circle cx="225.96" cy="125.31" r="0.43" fill="#94a3b8" opacity="0.124" />
    <circle cx="83.31" cy="72.85" r="0.66" fill="#94a3b8" opacity="0.077" />
    <circle cx="598.64" cy="91.26" r="0.33" fill="#94a3b8" opacity="0.19" />
    <circle cx="779.22" cy="80.29" r="0.42" fill="#94a3b8" opacity="0.042" />
    <circle cx="317.83" cy="156.66" r="0.28" fill="#94a3b8" opacity="0.081" />
    <circle cx="192.83" cy="162.24" r="0.42" fill="#94a3b8" opacity="0.183" />
    <circle cx="607.54" cy="70.65" r="0.71" fill="#94a3b8" opacity="0.193" />
    <circle cx="421.37" cy="100.94" r="0.39" fill="#94a3b8" opacity="0.17" />
    <circle cx="409.28" cy="183.71" r="0.32" fill="#94a3b8" opacity="0.154" />
    <circle cx="125.29" cy="94.66" r="0.35" fill="#94a3b8" opacity="0.207" />
    <circle cx="721.14" cy="178.2" r="0.48" fill="#94a3b8" opacity="0.211" />
    <circle cx="145.19" cy="104.32" r="0.59" fill="#94a3b8" opacity="0.126" />
    <circle cx="89.96" cy="71.61" r="0.43" fill="#94a3b8" opacity="0.07" />
    <circle cx="449.52" cy="79.49" r="0.72" fill="#94a3b8" opacity="0.16" />
    <circle cx="239.45" cy="118.14" r="0.31" fill="#94a3b8" opacity="0.042" />
    <circle cx="690.46" cy="161.88" r="0.47" fill="#94a3b8" opacity="0.218" />
    <circle cx="566.26" cy="157.93" r="0.49" fill="#94a3b8" opacity="0.189" />
    <circle cx="701.49" cy="157.37" r="0.72" fill="#94a3b8" opacity="0.109" />
    <circle cx="410.17" cy="63.53" r="0.27" fill="#94a3b8" opacity="0.145" />
    <circle cx="27.46" cy="167.09" r="0.28" fill="#94a3b8" opacity="0.14" />
    <circle cx="108.77" cy="127.14" r="0.52" fill="#94a3b8" opacity="0.185" />
    <circle cx="251.77" cy="110.97" r="0.53" fill="#94a3b8" opacity="0.183" />
    <circle cx="185.62" cy="44.8" r="0.69" fill="#94a3b8" opacity="0.123" />
    <circle cx="223.62" cy="107.1" r="0.65" fill="#94a3b8" opacity="0.136" />
    <circle cx="501.33" cy="46.31" r="0.55" fill="#94a3b8" opacity="0.129" />
    <circle cx="660.19" cy="20.63" r="0.68" fill="#94a3b8" opacity="0.073" />
    <circle cx="792.06" cy="171.61" r="0.64" fill="#94a3b8" opacity="0.072" />
    <circle cx="322.85" cy="56.33" r="0.45" fill="#94a3b8" opacity="0.117" />
    <circle cx="591.46" cy="153.5" r="0.58" fill="#94a3b8" opacity="0.095" />
    <circle cx="398.39" cy="119.03" r="0.28" fill="#94a3b8" opacity="0.167" />
    <circle cx="489.05" cy="114.47" r="0.49" fill="#94a3b8" opacity="0.047" />
    <circle cx="659.11" cy="136.7" r="0.37" fill="#94a3b8" opacity="0.078" />
    <circle cx="18.2" cy="37.71" r="0.25" fill="#94a3b8" opacity="0.046" />
    <circle cx="200.12" cy="114.68" r="0.67" fill="#94a3b8" opacity="0.087" />
  </g>
  <g class="lines">
    <line class="minor-line" x1="72.13" y1="88.05" x2="92.58" y2="88.42" />
    <line class="minor-line" x1="35.0" y1="108.53" x2="57.16" y2="92.99" />
    <line class="minor-line" x1="57.16" y1="92.99" x2="82.06" y2="74.78" />
    <line class="minor-line" x1="82.06" y1="74.78" x2="100.64" y2="65.35" />
    <line class="minor-line" x1="100.64" y1="65.35" x2="99.09" y2="33.47" />
    <line class="minor-line" x1="99.09" y1="33.47" x2="136.47" y2="30.0" />
    <line class="minor-line" x1="136.47" y1="30.0" x2="147.88" y2="60.99" />
    <line class="minor-line" x1="147.88" y1="60.99" x2="100.64" y2="65.35" />
    <line class="minor-line" x1="147.88" y1="60.99" x2="163.75" y2="69.19" />
    <line class="minor-line" x1="163.75" y1="69.19" x2="186.11" y2="84.04" />
    <line class="minor-line" x1="186.11" y1="84.04" x2="204.45" y2="97.07" />
    <line class="minor-line" x1="140.84" y1="96.4" x2="165.72" y2="100.77" />
    <line class="minor-line" x1="254.54" y1="87.84" x2="282.27" y2="96.74" />
    <line class="minor-line" x1="315.23" y1="72.91" x2="337.36" y2="68.94" />
    <line class="minor-line" x1="638.03" y1="111.49" x2="660.01" y2="118.32" />
    <line class="minor-line" x1="657.98" y1="40.09" x2="674.38" y2="52.94" />
    <line class="minor-line" x1="741.69" y1="71.3" x2="766.71" y2="60.57" />
    <line class="minor-line" x1="766.71" y1="60.57" x2="773.95" y2="85.76" />
    <line class="minor-line" x1="773.95" y1="85.76" x2="741.69" y2="71.3" />
    <line class="major-line" x1="488.7" y1="78.26" x2="515.4" y2="96.92" />
    <line class="major-line" x1="515.4" y1="96.92" x2="535.16" y2="119.01" />
    <line class="major-line" x1="535.16" y1="119.01" x2="559.04" y2="133.53" />
    <line class="major-line" x1="559.04" y1="133.53" x2="547.52" y2="162.86" />
    <line class="major-line" x1="547.52" y1="162.86" x2="586.87" y2="177.66" />
    <line class="major-line" x1="586.87" y1="177.66" x2="602.83" y2="142.87" />
    <line class="major-line" x1="602.83" y1="142.87" x2="559.04" y2="133.53" />
    <line class="major-line" x1="602.83" y1="142.87" x2="625.08" y2="136.12" />
    <line class="major-line" x1="625.08" y1="136.12" x2="648.94" y2="124.42" />
    <line class="major-line" x1="648.94" y1="124.42" x2="671.82" y2="116.04" />
    <line class="major-line" x1="671.82" y1="116.04" x2="690.5" y2="105.52" />
    <line class="major-line" x1="690.5" y1="105.52" x2="713.18" y2="91.87" />
    <line class="major-line" x1="713.18" y1="91.87" x2="735.6" y2="85.63" />
    <line class="major-line" x1="735.6" y1="85.63" x2="759.46" y2="72.03" />
    <line class="major-line" x1="759.46" y1="72.03" x2="778.15" y2="62.44" />
    <line class="major-line" x1="778.15" y1="62.44" x2="803.01" y2="50.38" />
    <line class="major-line" x1="803.01" y1="50.38" x2="826.09" y2="44.21" />
    <line class="major-line" x1="826.09" y1="44.21" x2="845.0" y2="30.0" />
  </g>
  <g class="stars">
    <g class="star">
      <title>Sep 24, 2025 - 1 contribution</title>
      <circle class="core" cx="63.91" cy="145.69" r="1.8" fill="#dbeafe" opacity="0.67" />
    </g>
    <g class="star">
      <title>Sep 30, 2025 - 2 contributions</title>
      <circle cx="60.91" cy="161.6" r="4.5" fill="url(#starGlow)" opacity="0.11" />
      <circle class="core" cx="60.91" cy="161.6" r="1.8" fill="#dbeafe" opacity="0.74" />
    </g>
    <g class="star">
      <title>Oct 04, 2025 - 3 contributions</title>
      <circle cx="72.13" cy="88.05" r="4.5" fill="url(#starGlow)" opacity="0.14" />
      <circle class="core" cx="72.13" cy="88.05" r="1.8" fill="#dbeafe" opacity="0.79" />
    </g>
    <g class="star">
      <title>Oct 05, 2025 - 5 contributions</title>
      <circle cx="92.58" cy="88.42" r="4.5" fill="url(#starGlow)" opacity="0.17" />
      <circle class="core" cx="92.58" cy="88.42" r="1.8" fill="#ffffff" opacity="0.86" />
    </g>
    <g class="star">
      <title>Oct 07, 2025 - 3 contributions</title>
      <circle cx="35.0" cy="108.53" r="4.5" fill="url(#starGlow)" opacity="0.14" />
      <circle class="core" cx="35.0" cy="108.53" r="1.8" fill="#dbeafe" opacity="0.79" />
    </g>
    <g class="star">
      <title>Oct 08, 2025 - 4 contributions</title>
      <circle cx="57.16" cy="92.99" r="4.5" fill="url(#starGlow)" opacity="0.16" />
      <circle class="core" cx="57.16" cy="92.99" r="1.8" fill="#ffffff" opacity="0.83" />
    </g>
    <g class="star">
      <title>Oct 09, 2025 - 1 contribution</title>
      <circle class="core" cx="82.06" cy="74.78" r="1.8" fill="#dbeafe" opacity="0.67" />
    </g>
    <g class="star">
      <title>Oct 10, 2025 - 3 contributions</title>
      <circle cx="100.64" cy="65.35" r="4.5" fill="url(#starGlow)" opacity="0.14" />
      <circle class="core" cx="100.64" cy="65.35" r="1.8" fill="#dbeafe" opacity="0.79" />
    </g>
    <g class="star">
      <title>Oct 11, 2025 - 3 contributions</title>
      <circle cx="99.09" cy="33.47" r="4.5" fill="url(#starGlow)" opacity="0.14" />
      <circle class="core" cx="99.09" cy="33.47" r="1.8" fill="#dbeafe" opacity="0.79" />
    </g>
    <g class="star">
      <title>Oct 12, 2025 - 5 contributions</title>
      <circle cx="136.47" cy="30.0" r="4.5" fill="url(#starGlow)" opacity="0.17" />
      <circle class="core" cx="136.47" cy="30.0" r="1.8" fill="#ffffff" opacity="0.86" />
    </g>
    <g class="star">
      <title>Oct 13, 2025 - 1 contribution</title>
      <circle class="core" cx="147.88" cy="60.99" r="1.8" fill="#dbeafe" opacity="0.67" />
    </g>
    <g class="star">
      <title>Oct 14, 2025 - 3 contributions</title>
      <circle cx="163.75" cy="69.19" r="4.5" fill="url(#starGlow)" opacity="0.14" />
      <circle class="core" cx="163.75" cy="69.19" r="1.8" fill="#dbeafe" opacity="0.79" />
    </g>
    <g class="star">
      <title>Oct 15, 2025 - 5 contributions</title>
      <circle cx="186.11" cy="84.04" r="4.5" fill="url(#starGlow)" opacity="0.17" />
      <circle class="core" cx="186.11" cy="84.04" r="1.8" fill="#ffffff" opacity="0.86" />
    </g>
    <g class="star">
      <title>Oct 16, 2025 - 3 contributions</title>
      <circle cx="204.45" cy="97.07" r="4.5" fill="url(#starGlow)" opacity="0.14" />
      <circle class="core" cx="204.45" cy="97.07" r="1.8" fill="#dbeafe" opacity="0.79" />
    </g>
    <g class="star">
      <title>Nov 07, 2025 - 2 contributions</title>
      <circle cx="140.84" cy="96.4" r="4.5" fill="url(#starGlow)" opacity="0.11" />
      <circle class="core" cx="140.84" cy="96.4" r="1.8" fill="#dbeafe" opacity="0.74" />
    </g>
    <g class="star">
      <title>Nov 08, 2025 - 2 contributions</title>
      <circle cx="165.72" cy="100.77" r="4.5" fill="url(#starGlow)" opacity="0.11" />
      <circle class="core" cx="165.72" cy="100.77" r="1.8" fill="#dbeafe" opacity="0.74" />
    </g>
    <g class="star">
      <title>Nov 22, 2025 - 1 contribution</title>
      <circle class="core" cx="183.38" cy="104.6" r="1.8" fill="#dbeafe" opacity="0.67" />
    </g>
    <g class="star">
      <title>Nov 24, 2025 - 2 contributions</title>
      <circle cx="184.53" cy="33.05" r="4.5" fill="url(#starGlow)" opacity="0.11" />
      <circle class="core" cx="184.53" cy="33.05" r="1.8" fill="#dbeafe" opacity="0.74" />
    </g>
    <g class="star">
      <title>Nov 26, 2025 - 1 contribution</title>
      <circle class="core" cx="188.34" cy="121.03" r="1.8" fill="#dbeafe" opacity="0.67" />
    </g>
    <g class="star">
      <title>Dec 15, 2025 - 3 contributions</title>
      <circle cx="220.68" cy="168.53" r="4.5" fill="url(#starGlow)" opacity="0.14" />
      <circle class="core" cx="220.68" cy="168.53" r="1.8" fill="#dbeafe" opacity="0.79" />
    </g>
    <g class="star">
      <title>Dec 18, 2025 - 1 contribution</title>
      <circle class="core" cx="251.96" cy="64.26" r="1.8" fill="#dbeafe" opacity="0.67" />
    </g>
    <g class="star">
      <title>Dec 29, 2025 - 1 contribution</title>
      <circle class="core" cx="275.37" cy="66.56" r="1.8" fill="#dbeafe" opacity="0.67" />
    </g>
    <g class="star">
      <title>Jan 01, 2026 - 1 contribution</title>
      <circle class="core" cx="254.54" cy="87.84" r="1.8" fill="#dbeafe" opacity="0.67" />
    </g>
    <g class="star">
      <title>Jan 02, 2026 - 1 contribution</title>
      <circle class="core" cx="282.27" cy="96.74" r="1.8" fill="#dbeafe" opacity="0.67" />
    </g>
    <g class="star">
      <title>Jan 05, 2026 - 1 contribution</title>
      <circle class="core" cx="284.53" cy="74.31" r="1.8" fill="#dbeafe" opacity="0.67" />
    </g>
    <g class="star">
      <title>Jan 27, 2026 - 2 contributions</title>
      <circle cx="315.23" cy="72.91" r="4.5" fill="url(#starGlow)" opacity="0.11" />
      <circle class="core" cx="315.23" cy="72.91" r="1.8" fill="#dbeafe" opacity="0.74" />
    </g>
    <g class="star">
      <title>Jan 28, 2026 - 1 contribution</title>
      <circle class="core" cx="337.36" cy="68.94" r="1.8" fill="#dbeafe" opacity="0.67" />
    </g>
    <g class="star">
      <title>Jun 30, 2026 - 2 contributions</title>
      <circle cx="638.03" cy="111.49" r="4.5" fill="url(#starGlow)" opacity="0.11" />
      <circle class="core" cx="638.03" cy="111.49" r="1.8" fill="#dbeafe" opacity="0.74" />
    </g>
    <g class="star">
      <title>Jul 01, 2026 - 2 contributions</title>
      <circle cx="660.01" cy="118.32" r="4.5" fill="url(#starGlow)" opacity="0.11" />
      <circle class="core" cx="660.01" cy="118.32" r="1.8" fill="#dbeafe" opacity="0.74" />
    </g>
    <g class="star">
      <title>Jul 09, 2026 - 1 contribution</title>
      <circle class="core" cx="657.98" cy="40.09" r="1.8" fill="#dbeafe" opacity="0.67" />
    </g>
    <g class="star">
      <title>Jul 10, 2026 - 1 contribution</title>
      <circle class="core" cx="674.38" cy="52.94" r="1.8" fill="#dbeafe" opacity="0.67" />
    </g>
    <g class="star">
      <title>Jul 16, 2026 - 12 contributions</title>
      <circle cx="692.04" cy="83.59" r="4.5" fill="url(#starGlow)" opacity="0.25" />
      <circle class="core" cx="692.04" cy="83.59" r="1.8" fill="#ffffff" opacity="1.0" />
    </g>
    <g class="star">
      <title>Aug 22, 2026 - 3 contributions</title>
      <circle cx="741.69" cy="71.3" r="4.5" fill="url(#starGlow)" opacity="0.14" />
      <circle class="core" cx="741.69" cy="71.3" r="1.8" fill="#dbeafe" opacity="0.79" />
    </g>
    <g class="star">
      <title>Aug 23, 2026 - 1 contribution</title>
      <circle class="core" cx="766.71" cy="60.57" r="1.8" fill="#dbeafe" opacity="0.67" />
    </g>
    <g class="star">
      <title>Aug 24, 2026 - 4 contributions</title>
      <circle cx="773.95" cy="85.76" r="4.5" fill="url(#starGlow)" opacity="0.16" />
      <circle class="core" cx="773.95" cy="85.76" r="1.8" fill="#ffffff" opacity="0.83" />
    </g>
    <g class="star">
      <title>Aug 29, 2026 - 3 contributions</title>
      <circle cx="488.7" cy="78.26" r="6.5" fill="url(#majorGlow)" opacity="0.7" />
      <line class="flare" x1="482.2" y1="78.26" x2="495.2" y2="78.26" />
      <line class="flare" x1="488.7" y1="71.76" x2="488.7" y2="84.76" />
      <circle class="core" cx="488.7" cy="78.26" r="1.8" fill="#ffffff" />
    </g>
    <g class="star">
      <title>Aug 30, 2026 - 9 contributions</title>
      <circle cx="515.4" cy="96.92" r="6.5" fill="url(#majorGlow)" opacity="0.7" />
      <line class="flare" x1="508.9" y1="96.92" x2="521.9" y2="96.92" />
      <line class="flare" x1="515.4" y1="90.42" x2="515.4" y2="103.42" />
      <circle class="core" cx="515.4" cy="96.92" r="1.8" fill="#ffffff" />
    </g>
    <g class="star">
      <title>Aug 31, 2026 - 12 contributions</title>
      <circle cx="535.16" cy="119.01" r="6.5" fill="url(#majorGlow)" opacity="0.7" />
      <line class="flare" x1="528.66" y1="119.01" x2="541.66" y2="119.01" />
      <line class="flare" x1="535.16" y1="112.51" x2="535.16" y2="125.51" />
      <circle class="core" cx="535.16" cy="119.01" r="1.8" fill="#ffffff" />
    </g>
    <g class="star">
      <title>Sep 01, 2026 - 1 contribution</title>
      <circle cx="559.04" cy="133.53" r="6.5" fill="url(#majorGlow)" opacity="0.7" />
      <line class="flare" x1="552.54" y1="133.53" x2="565.54" y2="133.53" />
      <line class="flare" x1="559.04" y1="127.03" x2="559.04" y2="140.03" />
      <circle class="core" cx="559.04" cy="133.53" r="1.8" fill="#ffffff" />
    </g>
    <g class="star">
      <title>Sep 02, 2026 - 3 contributions</title>
      <circle cx="547.52" cy="162.86" r="6.5" fill="url(#majorGlow)" opacity="0.7" />
      <line class="flare" x1="541.02" y1="162.86" x2="554.02" y2="162.86" />
      <line class="flare" x1="547.52" y1="156.36" x2="547.52" y2="169.36" />
      <circle class="core" cx="547.52" cy="162.86" r="1.8" fill="#ffffff" />
    </g>
    <g class="star">
      <title>Sep 03, 2026 - 4 contributions</title>
      <circle cx="586.87" cy="177.66" r="6.5" fill="url(#majorGlow)" opacity="0.7" />
      <line class="flare" x1="580.37" y1="177.66" x2="593.37" y2="177.66" />
      <line class="flare" x1="586.87" y1="171.16" x2="586.87" y2="184.16" />
      <circle class="core" cx="586.87" cy="177.66" r="1.8" fill="#ffffff" />
    </g>
    <g class="star">
      <title>Sep 04, 2026 - 2 contributions</title>
      <circle cx="602.83" cy="142.87" r="6.5" fill="url(#majorGlow)" opacity="0.7" />
      <line class="flare" x1="596.33" y1="142.87" x2="609.33" y2="142.87" />
      <line class="flare" x1="602.83" y1="136.37" x2="602.83" y2="149.37" />
      <circle class="core" cx="602.83" cy="142.87" r="1.8" fill="#ffffff" />
    </g>
    <g class="star">
      <title>Sep 05, 2026 - 3 contributions</title>
      <circle cx="625.08" cy="136.12" r="6.5" fill="url(#majorGlow)" opacity="0.7" />
      <line class="flare" x1="618.58" y1="136.12" x2="631.58" y2="136.12" />
      <line class="flare" x1="625.08" y1="129.62" x2="625.08" y2="142.62" />
      <circle class="core" cx="625.08" cy="136.12" r="1.8" fill="#ffffff" />
    </g>
    <g class="star">
      <title>Sep 06, 2026 - 10 contributions</title>
      <circle cx="648.94" cy="124.42" r="6.5" fill="url(#majorGlow)" opacity="0.7" />
      <line class="flare" x1="642.44" y1="124.42" x2="655.44" y2="124.42" />
      <line class="flare" x1="648.94" y1="117.92" x2="648.94" y2="130.92000000000002" />
      <circle class="core" cx="648.94" cy="124.42" r="1.8" fill="#ffffff" />
    </g>
    <g class="star">
      <title>Sep 07, 2026 - 10 contributions</title>
      <circle cx="671.82" cy="116.04" r="6.5" fill="url(#majorGlow)" opacity="0.7" />
      <line class="flare" x1="665.32" y1="116.04" x2="678.32" y2="116.04" />
      <line class="flare" x1="671.82" y1="109.54" x2="671.82" y2="122.54" />
      <circle class="core" cx="671.82" cy="116.04" r="1.8" fill="#ffffff" />
    </g>
    <g class="star">
      <title>Sep 08, 2026 - 1 contribution</title>
      <circle cx="690.5" cy="105.52" r="6.5" fill="url(#majorGlow)" opacity="0.7" />
      <line class="flare" x1="684.0" y1="105.52" x2="697.0" y2="105.52" />
      <line class="flare" x1="690.5" y1="99.02" x2="690.5" y2="112.02" />
      <circle class="core" cx="690.5" cy="105.52" r="1.8" fill="#ffffff" />
    </g>
    <g class="star">
      <title>Sep 09, 2026 - 1 contribution</title>
      <circle cx="713.18" cy="91.87" r="6.5" fill="url(#majorGlow)" opacity="0.7" />
      <line class="flare" x1="706.68" y1="91.87" x2="719.68" y2="91.87" />
      <line class="flare" x1="713.18" y1="85.37" x2="713.18" y2="98.37" />
      <circle class="core" cx="713.18" cy="91.87" r="1.8" fill="#ffffff" />
    </g>
    <g class="star">
      <title>Sep 10, 2026 - 8 contributions</title>
      <circle cx="735.6" cy="85.63" r="6.5" fill="url(#majorGlow)" opacity="0.7" />
      <line class="flare" x1="729.1" y1="85.63" x2="742.1" y2="85.63" />
      <line class="flare" x1="735.6" y1="79.13" x2="735.6" y2="92.13" />
      <circle class="core" cx="735.6" cy="85.63" r="1.8" fill="#ffffff" />
    </g>
    <g class="star">
      <title>Sep 11, 2026 - 1 contribution</title>
      <circle cx="759.46" cy="72.03" r="6.5" fill="url(#majorGlow)" opacity="0.7" />
      <line class="flare" x1="752.96" y1="72.03" x2="765.96" y2="72.03" />
      <line class="flare" x1="759.46" y1="65.53" x2="759.46" y2="78.53" />
      <circle class="core" cx="759.46" cy="72.03" r="1.8" fill="#ffffff" />
    </g>
    <g class="star">
      <title>Sep 12, 2026 - 3 contributions</title>
      <circle cx="778.15" cy="62.44" r="6.5" fill="url(#majorGlow)" opacity="0.7" />
      <line class="flare" x1="771.65" y1="62.44" x2="784.65" y2="62.44" />
      <line class="flare" x1="778.15" y1="55.94" x2="778.15" y2="68.94" />
      <circle class="core" cx="778.15" cy="62.44" r="1.8" fill="#ffffff" />
    </g>
    <g class="star">
      <title>Sep 13, 2026 - 2 contributions</title>
      <circle cx="803.01" cy="50.38" r="6.5" fill="url(#majorGlow)" opacity="0.7" />
      <line class="flare" x1="796.51" y1="50.38" x2="809.51" y2="50.38" />
      <line class="flare" x1="803.01" y1="43.88" x2="803.01" y2="56.88" />
      <circle class="core" cx="803.01" cy="50.38" r="1.8" fill="#ffffff" />
    </g>
    <g class="star">
      <title>Sep 14, 2026 - 5 contributions</title>
      <circle cx="826.09" cy="44.21" r="6.5" fill="url(#majorGlow)" opacity="0.7" />
      <line class="flare" x1="819.59" y1="44.21" x2="832.59" y2="44.21" />
      <line class="flare" x1="826.09" y1="37.71" x2="826.09" y2="50.71" />
      <circle class="core" cx="826.09" cy="44.21" r="1.8" fill="#ffffff" />
    </g>
    <g class="star">
      <title>Sep 15, 2026 - 1 contribution</title>
      <circle cx="845.0" cy="30.0" r="6.5" fill="url(#majorGlow)" opacity="0.7" />
      <line class="flare" x1="838.5" y1="30.0" x2="851.5" y2="30.0" />
      <line class="flare" x1="845.0" y1="23.5" x2="845.0" y2="36.5" />
      <circle class="core" cx="845.0" cy="30.0" r="1.8" fill="#ffffff" />
    </g>
  </g>
</svg>